<?xml version="1.0" standalone="no"?>
<!DOCTYPE svg PUBLIC "-//W3C//DTD SVG 1.1//EN" "http://www.w3.org/Graphics/SVG/1.1/DTD/svg11.dtd" >
<svg xmlns="http://www.w3.org/2000/svg">
<defs>
<font id="BickhamScriptPro-Semibold" horiz-adv-x="405" >
  <font-face 
    font-family="Bickham Script Pro Semibold"
    font-weight="600"
    font-style="italic"
    font-stretch="normal"
    units-per-em="2048"
    panose-1="3 3 6 2 4 7 7 13 13 6"
    ascent="1393"
    descent="-655"
    x-height="354"
    cap-height="885"
    bbox="-4542.8 -2198 7166.61 2611"
    underline-thickness="61"
    underline-position="-185"
    slope="-39"
    unicode-range="U+0020-U+FB06"
  />
<missing-glyph horiz-adv-x="1024" 
d="M0 0v1434h1024v-1434h-1024zM512 809l348 522h-696zM573 717l349 -522v1044zM164 102h696l-348 523zM102 1239v-1044l349 522z" />
    <glyph glyph-name="uniE045" unicode="On" horiz-adv-x="1716" 
d="M788 293q156 195 168 315q4 41 -16 67.5t-59 31.5q-143 16 -299 -179q-51 -63 -72 -126.5t-2.5 -112.5t84.5 -64q68 -14 153 19q16 14 43 49zM1548 170q-49 -61 -63 -84q-20 -35 -6 -47q16 -10 51 10q51 25 88 57l102 87q16 16 25 10q4 -6 -10 -21q-68 -68 -131 -112
q-111 -84 -195 -84q-53 -2 -73.5 19.5t-14.5 53.5q4 39 74 125q47 53 84 101q16 20 -2 26q-14 8 -60 -14q-70 -37 -151 -98l-234 -183q-27 -23 -86 -24q-41 -2 -50 5t-1 28q33 61 94 137l86 110q18 27 10 35q-18 18 -112 -16q-25 -8 -64 -24.5l-49 -20.5
q-106 -121 -268 -201t-295 -76q-88 2 -161 40t-93 128q-23 115 40.5 239t158.5 214q143 135 329.5 204.5t350.5 53.5q180 -20 190 -162q6 -68 -35 -113q-20 -25 -28 -16l16 25q31 41 25 102q-4 57 -51.5 97t-116.5 40q-137 4 -288 -86t-255 -203q-96 -100 -153.5 -225
t-37.5 -217q18 -98 134 -102q186 -6 405 233q-80 -25 -139 -12q-111 20 -120 131t81 221q66 80 160 126t176 38q59 -6 92 -49t24 -119q-12 -150 -120 -285q55 27 100 43q121 43 176 41q74 0 74 -51q0 -31 -45 -90l-94 -121l4 -2q76 63 192 150q156 115 256 114q86 0 80 -61
q-4 -35 -76 -125z" />
    <glyph glyph-name="uniE046" unicode="Or" horiz-adv-x="1390" 
d="M723 223q221 272 233 385q4 41 -16 67.5t-59 31.5q-68 8 -155 -50.5t-165 -154.5q-61 -76 -97 -157t-30 -147.5t66 -84.5q61 -16 133 8q57 57 90 102zM1292 106l99 84q20 20 28 15q6 -4 -20 -31q-41 -45 -121 -104q-106 -82 -188 -84q-55 -2 -80 15t-23 46q0 57 92 139
q131 111 133 117q2 8 -2 12t-17 5.5t-26.5 1.5t-33.5 -3q-29 -2 -50 5q-20 -23 -127 -95q-121 -80 -225 -112q-213 -162 -434 -154q-215 4 -252 174q-23 115 39.5 240t157.5 213q143 135 329.5 204.5t350.5 53.5q180 -20 190 -162q6 -68 -35 -113q-20 -25 -28 -16l16 25
q31 41 25 102q-4 57 -55.5 97t-121.5 40q-131 4 -277.5 -83t-256.5 -206q-94 -100 -151.5 -224t-39.5 -218q20 -106 134 -108q141 -4 290 116q-63 -14 -120 -2q-70 18 -92.5 86t8 161t106.5 185q76 88 183.5 146.5t187.5 50.5q59 -6 94 -49t27 -119q-12 -147 -146 -307
q-59 -72 -106 -109q92 39 198 107q86 55 115 84q-14 10 -15 29.5t17 39.5q29 37 86 37q43 0 57 -20q-20 -16 -38 -33q-35 -43 6 -47q6 0 18 -1t19.5 -2t18.5 -2t18.5 -2t16.5 -3t15 -5.5l11.5 -6.5t8.5 -8t3 -11q0 -8 -2 -16.5t-10.5 -18.5t-15.5 -19.5t-23.5 -28.5
t-28.5 -36q-49 -61 -70 -96q-18 -27 -4 -41q12 -12 45 6q37 16 92 59z" />
    <glyph glyph-name="uniE132" unicode="dd" horiz-adv-x="1378" 
d="M401 334h-2q-53 0 -190 -133q-119 -119 -113 -162q2 -20 27 -21q29 0 79 29t93 68q51 45 96 102t47 80q2 37 -37 37zM1094 334h-2q-57 0 -191 -133q-119 -115 -115 -162q2 -20 27 -21q29 0 79 29t93 68q51 45 97 101t48 81q3 37 -36 37zM1069 -18q-70 0 -80 49
q-8 35 21 71l-2 2q-139 -123 -248 -122q-53 -2 -83 17t-28 62q0 47 58 115l-2 4q-2 -2 -8.5 -7t-10.5 -9q-6 -6 -47 -41l-66 -55q-117 -86 -194 -86q-72 0 -82 49q-6 35 22 71l-2 2q-143 -123 -249 -122h-2h2q-53 -2 -83 17t-28 62q4 53 63 117l-2 2q-6 -6 -22 -18
q-20 -18 -27 -12q-6 8 21 30q20 23 71 58q51 37 129 71q113 53 201 47q41 -2 56.5 -23.5t7.5 -47.5l2 -2q76 109 200 249q166 182 269 240q51 31 110 31q49 0 64 -21q-47 -10 -111.5 -65t-187.5 -193q-70 -76 -174 -207q-135 -168 -174 -235q-16 -27 -4 -39q18 -14 55 6
q25 10 84 57q72 57 88 72q25 23 74 58q61 41 133 73q113 53 200 47q39 -2 54.5 -22.5t9.5 -48.5l2 -2q92 131 260 325q160 176 266 242q59 37 113 37q47 0 63 -21q-84 -23 -292 -256q-31 -35 -240 -293q-131 -164 -176 -235q-18 -29 -2 -41q16 -10 51 6q29 12 88 59
q65 52 98 87q23 18 29 12t-18 -31q-72 -66 -123 -106q-115 -86 -197 -86z" />
    <glyph glyph-name="uniE1CC" unicode="fb" horiz-adv-x="1112" 
d="M-424 -788q18 -6 51 20q41 33 128 147.5t157 225.5q188 297 278 555h-2q-268 -350 -413 -572q-164 -248 -199 -325q-16 -41 0 -51zM254 242q94 70 342 137q66 82 199 229q162 178 387 330q-43 55 -133 55q-131 0 -301 -164q-78 -74 -225.5 -250.5t-268.5 -336.5zM766 401
q309 94 371 115q233 78 387 170q195 115 196 232q2 66 -41 101.5t-123 31.5q-147 -8 -325 -146q16 -39 6 -92q-8 -36 -14 -37q-2 2 -1 3t2 11.5t1 20.5q0 47 -17 80q-96 -84 -174 -170q-164 -187 -268 -320zM637 12q51 6 98 35q55 35 94 86q-10 -6 -33.5 -13t-53 -14.5
t-40.5 -11.5q-59 -16 -84.5 -30.5t-23.5 -32.5q2 -23 43 -19zM115 264l-2 2l-95 -84q-25 -20 -30 -16q-6 8 12 24l162 138q213 285 391 442q131 119 262 180.5t236 61.5q113 0 153 -60q184 109 350 117q92 4 140.5 -37t46.5 -114q-2 -133 -201 -252q-121 -74 -393 -166
q-86 -29 -240.5 -75t-158.5 -48q-76 -98 -164 -223l4 -2q94 86 178 139q102 68 199 65q51 0 74.5 -22.5t19.5 -59.5q-10 -100 -131 -192q-125 -96 -277 -96h-2q-94 0 -94 45q0 27 29.5 42t99.5 36q156 45 162 47q49 61 63 102q23 61 -18 61q-59 0 -178 -92
q-123 -94 -230 -207q-20 -23 -80 -26q-23 -2 -36 -1t-21 4t-8 10t6 18q23 43 88 139q41 63 146 190q-260 -80 -357 -155q-90 -305 -284 -615q-61 -96 -162 -222t-158 -165q-53 -39 -106 -26q-59 12 -54 81q8 72 92 224.5t207 320.5q148 205 359 467z" />
    <glyph glyph-name="uniE1DC" unicode="ffr" horiz-adv-x="1325" 
d="M745 338q68 0 158 4q27 2 57.5 5t40.5 3q47 0 43 -47q-4 -29 -43 -86l-38.5 -50l-30.5 -40l4 -4q82 82 129 123q127 113 201 114q43 0 65.5 -18t16.5 -53q-10 -47 -81 -85t-102 -14q-4 8 -5 12.5t5 15.5t12.5 18.5t17.5 21.5t19 27q12 18 -2 26q-10 6 -45 -12
q-53 -37 -123 -98q-63 -55 -200 -191q-14 -14 -82 -18q-41 -2 -50.5 4t1.5 29q18 45 88 137l82 106q16 25 12 39q-2 12 -43 12q-90 0 -123 -2l-147 -186q-147 -387 -291 -623q-125 -207 -254 -305q-59 -45 -115 -30q-61 12 -51 88q10 74 96 227.5t201 308.5l217 289l182 229
q-35 0 -108.5 -1t-100.5 -3l-131 -170l-241 -329q-102 -141 -205 -314q-102 -170 -148 -286q-4 -12 -9 -29t-8 -21t-9 -4q-20 -2 -28.5 37t-2.5 78q10 84 75.5 229.5t162.5 294.5q59 92 202 279q12 45 16.5 100t12.5 78q16 43 49 60.5t115 23.5q201 262 389 444
q109 104 234.5 167t222.5 63q113 0 153 -45q260 168 461 168q129 0 188.5 -64.5t45.5 -157.5q-2 -12 -5.5 -22t-7.5 -15.5t-6 -5.5q-2 4 -1 6.5t4 14.5t3 22q4 70 -64.5 124.5t-178.5 54.5q-125 0 -217.5 -40t-188.5 -132q18 -39 10 -93q-6 -35 -14 -34v3q0 3 1 11t-1 18
q0 41 -18 74q-6 -6 -20.5 -19.5t-20.5 -19.5q-90 -92 -361 -432q-4 -6 -72 -90zM43 115l147 196q-98 -6 -122 -65q-8 -20 -12.5 -61t-12.5 -70zM-12 -786q16 -8 51 18q78 59 223.5 294.5t288.5 565.5q-205 -262 -367 -504q-162 -246 -196 -325q-18 -43 0 -49zM375 334
q27 2 100.5 3t108.5 1l110 131q211 258 434 436q29 25 54 41q-41 45 -113 45q-70 0 -129 -36.5t-152 -125.5q-120 -116 -413 -495z" />
    <glyph glyph-name="uniE1DE" unicode="fh" horiz-adv-x="1155" 
d="M-424 -788q18 -6 51 20q41 33 128 147.5t157 225.5q188 297 278 555h-2q-268 -350 -413 -572q-164 -248 -199 -325q-16 -41 0 -51zM254 242q94 70 342 137q66 82 199 229q162 178 387 330q-43 55 -133 55q-131 0 -301 -164q-78 -76 -226.5 -252.5t-267.5 -334.5zM766 401
q309 94 371 115q233 78 387 170q195 115 196 232q2 66 -41 101.5t-123 31.5q-147 -8 -325 -146q14 -37 4 -92q-6 -37 -12 -37v1v4t1 6.5t1 9.5v12q0 49 -17 82q-96 -84 -174 -170q-164 -187 -268 -320zM168 336q205 274 383 434q272 242 500 242q113 0 153 -60
q184 109 350 117q92 4 140.5 -37t46.5 -114q-2 -133 -201 -252q-127 -76 -389 -166q-86 -29 -240.5 -75t-162.5 -48q-119 -152 -205 -283l4 -2q106 92 180 148q158 117 256 116q39 0 60.5 -16t19.5 -45q-4 -33 -78 -125q-49 -61 -63 -84q-20 -37 -4 -47t49 10q33 16 90 57
q43 35 100 87q20 16 25 10q6 -6 -8 -21q-57 -57 -132 -112q-115 -84 -196 -84q-96 -2 -88 73q4 41 76 125l42.5 53l38.5 48q16 20 -2 26q-14 8 -59 -14q-70 -37 -147 -100l-228 -187q-25 -18 -82 -18q-29 -2 -46 5t-9 28q20 47 86 137l147 192q-256 -80 -354 -155
q-90 -305 -284 -615q-61 -96 -162 -222t-158 -165q-53 -39 -106 -26q-59 14 -54 81q8 72 92 224.5t207 320.5q147 205 359 467l-2 2l-95 -84q-25 -20 -30 -16q-6 8 12 24q98 89 168 146z" />
    <glyph glyph-name="uniE1E2" unicode="fj" horiz-adv-x="727" 
d="M-1288 -1012q-264 -8 -392 92.5t-128 262.5q0 68 33.5 136t86.5 113l16.5 12.5t15.5 8.5t7 0q2 -4 -7 -11q-15 -12 -25 -24q-80 -94 -80 -231q0 -152 118.5 -250t354.5 -90q291 8 561 219q-39 57 -14 137q0 -74 34 -123q201 160 519 570l204 266q12 45 16.5 100t12.5 78
q16 41 50 59.5t114 22.5l141 178q172 213 379 385q129 102 270.5 160.5t262.5 62.5q147 2 225 -54t78 -142t-80 -148q-23 -20 -29 -14q-2 2 17 20q47 51 47 129q0 84 -63.5 139.5t-194.5 51.5q-193 -6 -433 -234q-127 -121 -305 -346l-147 -186q156 4 190 4q117 0 160 6
q20 2 25.5 -10t-11.5 -23q-55 -35 -129 -135q-12 -16 -48 -68.5l-97 -140.5l-123 -172q-184 -256 -364 -436q-233 -236 -500 -235q-109 0 -166 49q-289 -181 -602 -189zM-518 -854h2q164 0 369 227q145 160 462 609q166 236 211 284q35 37 66 51v2q-166 0 -232 -4l-133 -174
l-254 -338q-313 -410 -635 -612q48 -45 144 -45zM43 111l147 200q-102 -6 -122 -65q-8 -20 -12.5 -63t-12.5 -72zM750 492q-23 37 -2 90q23 49 102 49q31 0 39 -19.5t-12 -48.5q-23 -29 -63.5 -50t-63.5 -21z" />
    <glyph glyph-name="uniE3BE" unicode="rs" horiz-adv-x="1191" 
d="M737 4h2q68 0 131 105q23 37 54.5 120.5t42.5 96.5v2q-33 -33 -99 -74q-76 -49 -118 -68q6 -10 6 -22q-2 -25 -35 -51q-39 -29 -39 -62q0 -47 55 -47zM944 12q-92 -31 -196 -30q-78 0 -116 35.5t-36 84.5q4 37 20 58q-66 -8 -104 10q-63 27 -57 100q-33 -14 -97 -67
q-160 -137 -208 -187q-23 -20 -87 -24q-41 -2 -50 5t1 28q29 55 92 137l87 110q16 23 6 31q-8 8 -31 -6q-18 -10 -76 -53q-43 -33 -90 -78q-27 -25 -35 -16q-4 8 21 28q55 55 106 92q113 86 180 86q74 0 74 -51v-2q0 -35 -45 -88q-18 -27 -67 -86l4 -4q45 45 137 121
q63 51 104 76q37 25 62 28q39 10 67 2q18 -4 22.5 -15t-11.5 -22q-76 -43 -80 -75q-8 -43 26 -58q25 -12 64 -4q29 27 67 31q27 0 39 -10q66 33 121 71q70 47 125 97q8 18 33 45q29 25 59 24q23 0 32 -7t1 -20.5t-31 -27.5q-6 -4 -23.5 -14.5t-25.5 -16.5q-18 -18 -2 -59
q39 -92 6 -168q-18 -49 -57 -78q41 14 86 43q41 27 133 105q23 16 27 12q8 -8 -13 -25q-61 -55 -121 -98q-57 -41 -143 -70z" />
    <glyph glyph-name="uniE3C0" unicode="rst" horiz-adv-x="1402" 
d="M985 -31h-2q-16 0 -15 9q0 10 15 38q18 33 139 224q12 68 15 73q14 35 69 35q82 113 234 268q-47 -18 -119 -18q-80 0 -198.5 26.5t-157.5 28.5q-174 6 -195 -118q-14 -88 51 -134q14 -10 13 -16q-2 -4 -21 4q-106 55 -98 146q8 70 71.5 112.5t178.5 36.5q57 -2 181 -35
t181 -33q80 0 133 23l17 16q88 84 143 99q25 8 51.5 6t34.5 -12q-31 -72 -133 -140q-154 -174 -223 -264q94 4 180 4q16 0 23.5 -3t5.5 -9q-4 -10 -37 -10q-94 0 -189 -4l-29.5 -41l-52 -74t-43.5 -60q-35 -88 -131 -147q-53 -31 -92 -31zM303 215q-18 -27 -67 -86l4 -4
q45 45 137 121q31 25 98 71q23 39 64 43q61 10 84 -12q16 -16 -21 -41q-37 -29 -37 -47q-2 -25 23.5 -38t66.5 -9q68 8 129 45q43 27 97 80q12 23 30 39q27 23 62 26q35 2 38 -15t-20 -30q-6 -4 -20.5 -12t-25.5 -15t-15 -12q-12 -12 0 -53q27 -84 -8 -149
q-31 -61 -125 -107q-82 -39 -189 -39q-76 0 -105.5 30t-23.5 71q4 41 35 67.5t70 26.5q25 0 39 -13.5t14 -31.5q0 -39 -41 -60q-52 -30 -55 -41q0 -29 49 -28q78 0 170 129q20 29 55 91t49 81l-4 2q-33 -33 -72 -55q-68 -41 -141 -47q-117 -8 -151 32q-25 25 -25 62
q-53 -35 -113 -84q-160 -137 -208 -187q-23 -20 -87 -24q-41 -2 -50 5t1 28q31 59 92 137l87 110q16 23 6 31q-8 8 -31 -6q-18 -10 -76 -53q-43 -33 -90 -78q-27 -25 -35 -16q-4 8 21 28q55 55 106 92q113 86 180 86q74 0 74 -51q0 -33 -45 -90z" />
    <glyph glyph-name="uniE3C1" unicode="r&#x161;" horiz-adv-x="1191" 
d="M737 4h2q68 0 131 105q23 37 54.5 120.5t42.5 96.5v2q-33 -33 -99 -74q-76 -49 -118 -68q6 -10 6 -22q-2 -25 -35 -51q-39 -29 -39 -62q0 -47 55 -47zM944 12q-92 -31 -196 -30q-78 0 -116 35.5t-36 84.5q4 37 20 58q-66 -8 -104 10q-63 27 -57 100q-33 -14 -97 -67
q-160 -137 -208 -187q-23 -20 -87 -24q-41 -2 -50 5t1 28q29 55 92 137l87 110q16 23 6 31q-8 8 -31 -6q-18 -10 -76 -53q-43 -33 -90 -78q-27 -25 -35 -16q-4 8 21 28q55 55 106 92q113 86 180 86q74 0 74 -51v-2q0 -35 -45 -88q-18 -27 -67 -86l4 -4q45 45 137 121
q63 51 104 76q37 25 62 28q39 10 67 2q18 -4 22.5 -15t-11.5 -22q-76 -43 -80 -75q-8 -43 26 -58q25 -12 64 -4q29 27 67 31q27 0 39 -10q66 33 121 71q70 47 125 97q8 18 33 45q29 25 59 24q23 0 32 -7t1 -20.5t-31 -27.5q-6 -4 -23.5 -14.5t-25.5 -16.5q-18 -18 -2 -59
q39 -92 6 -168q-18 -49 -57 -78q41 14 86 43q41 27 133 105q23 16 27 12q8 -8 -13 -25q-61 -55 -121 -98q-57 -41 -143 -70zM1098 547h-2q-8 0 -13 14q-35 90 -73 152q-8 12 -6 14q4 6 26 -2q63 -31 107 -78q98 53 213 86q23 10 26 0q2 -8 -14 -16q-158 -92 -242 -160
q-12 -12 -22 -10z" />
    <glyph glyph-name="uniE3E6" unicode="sfe" horiz-adv-x="1400" 
d="M98 -788q18 -6 52 20q41 33 128 147.5t156 225.5q188 297 279 555h-2q-268 -350 -414 -572q-164 -248 -199 -325q-16 -41 0 -51zM299 43q45 18 90 47q59 35 135 100q51 47 158 134q2 2 10 14q-31 31 -20 63q10 35 43 25q10 -2 14 -41l244 309q-236 -20 -350 -45
q-154 -33 -227.5 -82t-82.5 -96q-2 -35 11 -55q2 -2 6 -8q4 -3 4 -5l10 11q23 23 57.5 22.5t35.5 -17t-34 -38.5q-6 -4 -24.5 -14.5t-24.5 -16.5q-20 -20 -2 -59q37 -88 6 -168q-20 -49 -59 -80zM1149 723q190 43 364 149q94 59 151.5 131t61.5 125q4 59 -57 60
q-88 0 -233 -139q-105 -99 -287 -326zM909 168q-35 12 -63 33q-35 29 -49 61l-52 -65q-82 -289 -284 -613q-61 -96 -161.5 -222t-158.5 -165q-53 -39 -106 -26q-59 12 -53 81.5t90 221t209 323.5q152 211 356 465l-2 2l-98 -86q-41 -41 -113 -90q-74 -51 -150 -76
q-92 -31 -192 -30q-78 0 -121 36.5t-39 83.5q2 49 33 79t68 28q59 0 59 -45q-2 -27 -37 -51q-37 -29 -37 -62q0 -47 55 -47q70 0 134 105q23 37 54.5 120.5t41.5 96.5l-2 2q-25 -27 -92 -76q-57 -43 -93 -62q-18 -10 -22 -4q-6 8 12 19q31 18 90 63q66 47 123 99
q10 18 19 30q-6 0 -21 15q-29 25 -28 71q0 147 276 191q49 8 432 41q117 147 221 246q129 123 255 184t212 61q45 0 71 -26.5t21 -63.5q-10 -129 -245 -268q-150 -90 -387 -148l-291 -374q-14 -16 -33 -43q15 -40 49 -68q29 -23 62 -33q47 63 139 113q123 63 225 63
q47 0 69.5 -17t20.5 -44q-6 -72 -127 -119q-100 -39 -198 -43q-25 -33 -25 -72q0 -45 49 -45q90 0 205 76q66 45 119 94q20 16 26.5 10.5t-20.5 -30.5q-68 -61 -121 -96q-135 -86 -258 -90q-154 -6 -154 88q0 51 37 98zM1063 156q78 0 141 43q70 47 78 104q8 31 -22 31
q-43 0 -113 -76q-45 -49 -84 -102z" />
    <glyph glyph-name="uniE3F2" unicode="ss" horiz-adv-x="1046" 
d="M594 4h2q66 0 131 105q23 37 54.5 119.5t41.5 97.5l-2 2q-29 -29 -100 -80q-39 -29 -111 -70q0 -2 1 -8l1 -6q0 -25 -36.5 -51.5t-36.5 -61.5q0 -47 55 -47zM944 82q-61 -41 -145 -70q-92 -31 -187 -30q-76 0 -118.5 33.5t-40.5 82.5q-10 -6 -52 -26q-72 -39 -131 -60
q-92 -31 -188 -30h-2q-76 0 -117 34.5t-39 85.5q2 47 33 76t68 31q57 0 57 -45q0 -27 -37 -51q-37 -33 -37 -62q0 -47 55 -47q63 0 130 94q29 39 76.5 146.5t66.5 132.5l-2 2q-74 -82 -133 -123q-59 -47 -92 -66q-20 -12 -25 -4q-6 8 12 19q66 43 90.5 63.5l56 48t64.5 59.5
t45 42q12 25 33 45q25 25 59.5 24.5t35.5 -15.5t-34 -40q-6 -4 -24.5 -14t-24.5 -17q-16 -16 -2 -59q27 -92 -18 -197q-31 -70 -78 -100q53 18 94 41q34 18 62 37q8 39 36.5 62.5t61.5 23.5q35 0 47 -16q70 43 111 71q74 53 129 103q8 20 32.5 44.5t59.5 24.5t36 -16.5
t-34 -38.5q-6 -4 -24.5 -14.5t-24.5 -16.5q-20 -20 -2 -59q37 -90 6 -168q-23 -51 -60 -78q41 14 86 43q41 27 134 105q23 16 26 12q8 -8 -12 -25q-49 -49 -119 -98z" />
    <glyph glyph-name="uniE4D0" unicode="wh" horiz-adv-x="1744" 
d="M1296 197l-227 -187q-16 -12 -82 -18q-41 -2 -50 5t-1 28q25 51 84 137l86 110q-23 -18 -39 -28q-86 -51 -137 -56q-43 -6 -64 9q-51 -63 -112 -107q-139 -109 -254 -108q-106 0 -107 63q0 35 27 74q18 29 63 82q35 45 49 71q12 31 -8 31q-16 0 -104 -59
q-113 -78 -168 -129q-37 -37 -98 -88q-61 -47 -105 -47h-2q-35 0 -37 26q-2 12 19 37q92 111 98 119q61 74 80 119q6 23 -4 28q-12 8 -35 -6q-23 -12 -72 -51q-61 -53 -80 -72q-25 -25 -32 -20q-8 8 14 28q31 31 92 84q98 84 176 84q49 0 70.5 -19.5t17.5 -58t-39 -88.5
q111 88 189 127q78 37 129 35q57 -4 51 -53q-2 -43 -57 -115q-53 -72 -70 -104q-16 -41 0 -53q18 -12 57 4q63 25 123 73q72 57 111 107q-35 35 -21 88q16 68 74 68q20 0 31.5 -12.5t7.5 -30.5q-6 -49 -57 -107q10 -10 47 -6q49 4 135 55q16 10 63 45q139 182 240 299
q119 141 259 273.5t237 197.5q123 84 202 84q35 0 51.5 -20.5t12.5 -52.5q-12 -145 -395 -435l-142.5 -102.5l-169 -120.5t-104.5 -82q-27 -33 -186 -258l4 -2q106 92 180 148q158 117 256 116h2q39 0 60.5 -16t19.5 -45q-4 -35 -76 -125q-49 -59 -63 -84q-23 -35 -7 -47
q16 -10 52 10q39 18 88 57q43 35 100 87q20 16 26.5 10t-10.5 -21q-57 -57 -131 -112q-111 -84 -194 -84q-98 -2 -90 73q6 39 75 125l84 101q4 4 5.5 10t-2 11t-9.5 5q-18 4 -59 -14q-70 -37 -148 -100zM1341 393q55 47 182.5 146.5t174.5 140.5q367 309 377 424
q6 39 -33 39q-51 0 -137 -82q-92 -88 -263 -293q-195 -234 -301 -375z" />
    <glyph glyph-name="uniE4F3" unicode="yg" horiz-adv-x="1333" 
d="M819 18h2q27 0 78 29t92 68q53 45 98.5 101t47.5 79q2 39 -37 39q-59 0 -193 -133q-119 -115 -114 -162q1 -21 26 -21zM201 -162l307 408l-2 2l-45 -41l-135 -109q-156 -117 -246 -116q-43 0 -63.5 17t-18.5 46q0 37 35 84q96 135 166 178q-41 -14 -117 -74l-82 -69
q-20 -18 -29 -12q-6 6 17 28q82 74 147 115q80 55 160 55q64 0 64 -13q0 -6 -11 -20q-45 -51 -112 -135q-51 -63 -78 -112q-14 -25 -4 -35q12 -8 49 8q63 35 153 104l120 101.5l95 83.5q29 23 111 22q41 0 48 -5t-9 -27.5t-55 -71.5l-60 -76l-280 -373q-301 -387 -621 -600
q68 -80 221 -84q266 -10 523 238q117 111 387 495q111 152 170 244l-2 2q-131 -115 -240 -114q-51 -2 -81 17t-28 62q0 63 70 136q63 70 162 112q106 49 200 47q41 0 57.5 -21.5t10.5 -47.5h2q41 43 60.5 53t66.5 10q52 0 52 -13q0 -6 -9 -18q-55 -66 -106 -137l-277 -395
q-213 -305 -432 -471q-295 -227 -586 -217q-182 4 -250 82q-299 -182 -641 -193q-266 -8 -396 88.5t-130 261.5q0 147 129 254q18 14 26.5 18.5t10.5 2.5t-1 -5t-12.5 -11.5t-19.5 -18.5q-80 -94 -80 -231q0 -150 119 -249t354 -91q330 10 609 217q-39 63 -6 141
q-2 -68 32 -121q185 150 531 594z" />
    <glyph glyph-name="uniE507" unicode="&#xff;&#x123;" horiz-adv-x="1331" 
d="M1120 449q-27 0 -26 18q0 12 12 31q78 96 166 145q23 12 24 10q4 -4 -14 -22q-53 -57 -68 -92q-6 -8 -1.5 -24.5t1.5 -25.5q-12 -28 -94 -40zM598 461q-18 25 0 74q12 41 84 40q27 0 33 -16t-13 -39q-41 -49 -104 -59zM381 461q-8 8 -9 30.5t7 43.5q14 41 84 40
q27 0 33 -16t-13 -39q-39 -47 -102 -59zM819 18h2q27 0 78 29t92 68q53 45 98.5 101t47.5 79q2 39 -37 39q-59 0 -193 -133q-119 -115 -114 -162q1 -21 26 -21zM201 -162l307 408l-2 2l-45 -41l-135 -109q-156 -117 -246 -116q-43 0 -63.5 17t-18.5 46q0 37 35 84
q96 135 166 178q-41 -14 -117 -74l-82 -69q-20 -18 -29 -12q-6 6 17 28q82 74 147 115q80 55 160 55q64 0 64 -13q0 -6 -11 -20q-45 -51 -112 -135q-51 -63 -78 -112q-14 -25 -4 -35q12 -8 49 8q63 35 153 104l120 101.5l95 83.5q29 23 111 22q41 0 48 -5t-9 -27.5
t-55 -71.5l-60 -76l-280 -373q-301 -387 -621 -600q68 -80 221 -84q266 -10 523 238q117 111 387 495q111 152 170 244l-2 2q-131 -115 -240 -114q-51 -2 -81 17t-28 62q0 63 70 136q63 70 162 112q106 49 200 47q41 0 57.5 -21.5t10.5 -47.5h2q41 43 60.5 53t66.5 10
q52 0 52 -13q0 -6 -9 -18q-55 -66 -106 -137l-277 -395q-213 -305 -432 -471q-295 -227 -586 -217q-182 4 -250 82q-299 -182 -641 -193q-266 -8 -396 88.5t-130 261.5q0 147 129 254q18 14 26.5 18.5t10.5 2.5t-1 -5t-12.5 -11.5t-19.5 -18.5q-80 -94 -80 -231
q0 -150 119 -249t354 -91q330 10 609 217q-39 63 -6 141q-2 -68 32 -121q185 150 531 594z" />
    <glyph glyph-name=".notdef" horiz-adv-x="1024" 
d="M0 0v1434h1024v-1434h-1024zM512 809l348 522h-696zM573 717l349 -522v1044zM164 102h696l-348 523zM102 1239v-1044l349 522z" />
    <glyph glyph-name=".null" horiz-adv-x="0" 
 />
    <glyph glyph-name="nonmarkingreturn" horiz-adv-x="682" 
 />
    <glyph glyph-name="space" unicode=" " horiz-adv-x="313" 
 />
    <glyph glyph-name="exclam" unicode="!" horiz-adv-x="540" 
d="M674 694q25 0 24 -10q-1 -13 -39 -61q-121 -152 -442 -428q-23 -18 -31 -13q-6 3 17 31q154 195 284 393q60 88 187 88zM143 117q31 0 39 -19.5t-12 -46.5q-23 -29 -61.5 -48t-61.5 -21q-23 35 -2 88q16 47 98 47z" />
    <glyph glyph-name="quotedbl" unicode="&#x22;" horiz-adv-x="460" 
d="M393.5 731q69.5 0 9.5 -53q-100 -90 -184 -156q-18 -14 -24 -12q-6 4 8 27l96 151q25 43 94.5 43zM602 731q70 0 10 -53q-135 -117 -184 -156q-18 -14 -25 -12q-6 4 9 27l96 151q24 43 94 43z" />
    <glyph glyph-name="numbersign" unicode="#" horiz-adv-x="778" 
d="M547 575q18 0 18 -8q0 -12 -37 -57l-100 -121q74 0 172 -6l117 152q29 35 45 46t47 11q25 0 24 -11q-1 -13 -38 -57l-121 -141q16 -2 56 -3t58 -1q35 0 35 -8.5t-32 -8.5q-23 0 -70 -1t-66 -3l-46 -57l-60 -74q20 0 73.5 -1t67.5 -1q33 0 33 -8q0 -10 -31 -10
q-115 -4 -164 -4l-188 -217q-25 -25 -33 -19q-6 4 10 31l150 203q-33 -2 -95.5 -3t-97.5 -1l-198 -226q-23 -29 -35 -18q-6 6 12 31l160 213h-100q-43 0 -43 18q0 20 49 21h121l90 116h-117q-45 0 -45 17q0 23 49 22q23 0 71 -1t68 -1l97 129q27 35 44 46t50 11zM403 352
l-98 -119q39 0 182 -4l97 127q-103 -4 -181 -4z" />
    <glyph glyph-name="dollar" unicode="$" horiz-adv-x="520" 
d="M535 553l-148 -203q49 -123 16 -192q-27 -55 -93 -87t-140 -36q-12 0 -16 2q-33 -45 -48 -62q-14 -18 -22 -12q-10 4 4 27l33 49q-49 8 -78 41t-20 76q6 31 26.5 47t44.5 12q43 -6 33 -49q-4 -16 -20.5 -34.5t-16.5 -29.5q-4 -37 43 -45l152 211q-37 113 -17 176
q23 61 87.5 96t156.5 33q16 20 27 37q35 51 51 41q12 -6 -19 -49l-24 -33q78 -27 61 -92q-6 -20 -23.5 -33.5t-33.5 -11.5q-45 8 -25 51q6 12 17.5 26.5t11.5 22.5q-2 15 -20 21zM375 387l125 170q-37 0 -73 -24.5t-48 -59.5q-14 -39 -4 -86zM297 229l-129 -174h18
q70 10 103 68q22 47 8 106z" />
    <glyph glyph-name="percent" unicode="%" horiz-adv-x="878" 
d="M567 -12q-90 0 -90 80q0 70 64 137q35 35 92 62.5t98 27.5q20 4 21 -4q0 -2 -3.5 -4l-11.5 -6.5t-16 -8.5q-47 -33 -94 -94q-61 -82 -70 -131q-6 -35 21 -41q51 -6 116 88q61 86 78 142q9 31 0 43q-2 4 -7 7t-5 5q4 10 28 2q43 -14 37 -64q-4 -74 -88 -161
q-78 -80 -170 -80zM651 508q-61 -29 -112 -35q-53 -6 -88 12q10 -20 4 -51q-14 -66 -88 -143q-78 -82 -168 -82q-88 0 -93 80q0 70 66 139q74 76 186 90q25 2 25 -4q0 -2 -4 -4t-13.5 -6t-15.5 -8q-39 -25 -94 -97q-61 -82 -70 -129q-6 -39 21 -41q49 -6 119 88
q57 76 75 142q10 27 0 43q-2 4 -5 6t-5 3t-2 3q4 10 27 2q6 -2 12 -5l10 -5q37 -23 99 -17q92 10 163 70q8 6 21.5 18.5t21 17.5t19.5 11t26 8q36 4 35 -10t-37 -47q-350 -324 -612 -627q-23 -27 -31 -20q-8 8 13 35q266 336 495 563z" />
    <glyph glyph-name="ampersand" unicode="&#x26;" horiz-adv-x="974" 
d="M1087 612q49 0 75 -26.5t18 -69.5q-6 -33 -33 -58.5t-55 -19.5q-37 6 -25 76q6 47 -33 49q-61 6 -217 -133l-250 -231q113 -160 84 -297q-23 -113 -128 -186.5t-255 -73.5q-96 0 -127 59q-14 31 -4 35q2 0 4 -2t5.5 -10.5t7.5 -14.5q35 -43 110 -43q88 0 156.5 66.5
t87.5 161.5q20 117 -39 231q-166 -135 -315 -135q-41 0 -67 23.5t-17 68.5q16 88 170 176l135 70q-20 66 -6 123t72.5 105t129.5 44q35 -2 53.5 -28.5t6.5 -69.5q-4 -14 -15.5 -30.5t-22.5 -28t-30.5 -27t-30 -22.5l-32 -21.5l-27.5 -18.5q18 -49 82 -137l129 123l119 115
q173 157 284 157zM567 567q-35 0 -63.5 -33.5t-38.5 -80.5q-8 -43 2 -80q106 72 131 129q10 27 1 46t-32 19zM264 55q84 0 195 90q-53 94 -76 162q-84 -57 -113 -86q-61 -59 -67 -108q-2 -27 13 -42.5t48 -15.5z" />
    <glyph glyph-name="quotesingle" unicode="'" horiz-adv-x="249" 
d="M391 731q31 0 34 -13t-26 -40q-135 -117 -184 -156q-18 -14 -25 -12q-8 6 9 27l96 151q24 43 96 43z" />
    <glyph glyph-name="parenleft" unicode="(" horiz-adv-x="552" 
d="M211 -188q-4 -2 -6 3t-4 13q-12 39 -19.5 97.5t-9.5 157.5t33 215t104 214q254 356 738 434q23 4 22 -2q2 -2 -2 -4t-16 -6q-385 -117 -633 -467q-209 -297 -203 -637q0 -16 -4 -18z" />
    <glyph glyph-name="parenright" unicode=")" horiz-adv-x="552" 
d="M-219 -176q0 2 18 8q139 47 296 166t288 317q174 268 156 623q0 16 2 16q6 0 12 -14q16 -51 27.5 -107.5t19.5 -152.5t-19.5 -204.5t-88.5 -205.5q-78 -121 -184.5 -212t-211 -138t-172 -69.5t-121.5 -30.5q-22 -4 -22 4z" />
    <glyph glyph-name="asterisk" unicode="*" horiz-adv-x="473" 
d="M623 694q0 -12 -41 -12q-76 0 -109 2q33 -74 39 -90q14 -41 -2 -45q-10 -4 -29 22q-41 61 -59 97l-109 -105q-27 -27 -41 -16q-12 8 15 45q63 78 88 102q-63 10 -90 17q-37 8 -37 24.5t43 16.5q41 0 88 -7q-18 37 -39 86q-12 39 0 46q14 10 39 -27q14 -16 55 -90
q33 33 101 94q31 27 45 18q14 -10 -13 -45q-25 -33 -82 -94q78 -10 101 -16q37 -9 37 -23z" />
    <glyph glyph-name="plus" unicode="+" horiz-adv-x="753" 
d="M602 512q20 0 29.5 -4t4.5 -18.5t-28 -43.5l-141 -167q33 -2 108.5 -5.5t112.5 -5.5q27 -5 27 -10q-2 -8 -37 -12q-90 -4 -246 -8l-215 -238q-25 -29 -37 -23q-12 2 6 31l160 228h-205q-20 0 -31.5 3t-12.5 8t1 11q12 33 49 29q20 0 102.5 -2t129.5 -4l129 174
q39 57 94 57z" />
    <glyph glyph-name="comma" unicode="," horiz-adv-x="282" 
d="M190 106q0 -20 -24 -47q-78 -90 -203 -170q-28 -18 -31 -12q-2 2 21 27q57 57 84 110q6 10 1 32t-3 30q14 41 123 49q32 4 32 -19z" />
    <glyph glyph-name="hyphen" unicode="-" horiz-adv-x="524" 
d="M322 256q53 0 78.5 -34t21.5 -85q0 -12 -6 -12q-4 0 -10 6q-23 31 -91 31q-27 0 -78 -10.5t-92 -10.5q-55 0 -77 29q-6 6 -2 12q2 2 12 -2q16 -6 37 -2q41 4 108 45q52 33 99 33z" />
    <glyph glyph-name="period" unicode="." horiz-adv-x="282" 
d="M143 125q35 0 43.5 -20.5t-16.5 -49.5q-23 -29 -63.5 -49t-65.5 -24q-25 33 -2 92q18 51 104 51z" />
    <glyph glyph-name="slash" unicode="/" horiz-adv-x="489" 
d="M813 784q42 0 -5 -54q-9 -10 -22 -23l-854 -871q-18 -18 -30 -10q-6 6 16 33l719 835q78 90 176 90z" />
    <glyph glyph-name="zero" unicode="0" horiz-adv-x="606" 
d="M174 -18h-2q-80 0 -116 43t-27 110q16 125 129 238q74 74 158.5 120t156.5 50h23.5t14.5 -3t5 -5l-6 -4l-18.5 -9t-24.5 -14q-84 -59 -176 -174q-121 -147 -139 -246q-14 -74 34 -80q80 -14 222 164q123 156 151 274q14 49 -6 70q-6 8 -27 19q0 10 25 6q47 2 71.5 -43
t10.5 -109q-27 -119 -150 -252q-145 -155 -309 -155z" />
    <glyph glyph-name="one" unicode="1" horiz-adv-x="430" 
d="M395 459q-106 -70 -172 -103q-25 -12 -54.5 -20t-44.5 -9t-22 3q-2 4 1 6t20 9q49 20 100 46q96 47 183 101q104 59 139 59q27 0 -8 -45q-6 -7 -15 -19q-168 -203 -311 -405q-43 -61 -68.5 -75.5t-128.5 -31.5q-29 -4 -28 7q1 12 43 67q82 106 200.5 240.5t165.5 169.5z
" />
    <glyph glyph-name="two" unicode="2" horiz-adv-x="575" 
d="M80 88q35 8 84 8q39 0 97 -16.5t75 -16.5q70 0 143 78q10 16 19 11q4 -4 -4 -17q-39 -47 -65 -74.5t-66.5 -53t-79.5 -25.5q-55 0 -121 28q-66 31 -109 31q-72 0 -110 -29q-10 -6 -18.5 -13t-13.5 -12t-7 -5q-6 -2 -10.5 1t0.5 13q4 12 32 31q14 10 219 114
q111 57 198 135t108 144q10 35 -6.5 57.5t-51.5 22.5q-76 4 -141 -49q-59 -41 -72 -99q-6 -33 12.5 -50t49.5 -9q8 0 10 -2q4 -6 -12 -12q-23 -12 -50 -9q-68 8 -59 70q12 61 109 129q106 76 219 76q74 0 112.5 -35t22.5 -102q-29 -113 -225 -209q-27 -13 -289 -111z" />
    <glyph glyph-name="three" unicode="3" horiz-adv-x="540" 
d="M330 305q70 -4 104 -31q59 -41 33 -112q-31 -88 -150 -135q-106 -45 -227 -45q-66 2 -105.5 29.5t-31.5 76.5q4 37 35.5 63.5t72.5 26.5q29 0 43.5 -15.5t10.5 -33.5q-2 -27 -39 -49q-39 -25 -41 -37q-4 -20 13.5 -32.5t49.5 -10.5q51 2 112.5 46t108.5 134
q18 33 17.5 68t-25.5 37q-18 2 -51 -13q-6 -2 -14 -7t-10.5 -6t-6.5 1q-10 18 33 35q88 33 144.5 82t54.5 92q0 35 -49 39q-57 4 -109 -29q-47 -31 -61 -76q-10 -25 -2 -45q2 -4 5 -9q4 -5 1 -7q-2 -2 -14.5 0t-20.5 8q-27 20 -16 53q12 47 96 93q92 49 182 49
q119 0 123 -74q4 -82 -121 -127q-65 -25 -145 -39z" />
    <glyph glyph-name="four" unicode="4" horiz-adv-x="610" 
d="M694 547h2q14 0 15.5 -5t-9.5 -18q-123 -147 -319 -418q68 -6 78 -8q16 -4 24.5 -9t6.5 -13q-2 -2 -39 -2q-31 2 -91 2q-98 -127 -141 -189q-33 -47 -58.5 -61t-103.5 -25q-32 -5 -32 7q-1 12 36 65q10 16 150 201q-119 0 -164 -4q-33 -2 -86 -11q-25 -4 -26 7
q-4 12 32 36q180 135 273 197q160 113 270 178q114 70 182 70zM559 473l-4 4q-94 -53 -301 -198q-135 -94 -248 -183v-2q84 12 230 12q53 70 164.5 196t158.5 171z" />
    <glyph glyph-name="five" unicode="5" horiz-adv-x="552" 
d="M399 565h2q4 0 23 -14q45 -25 78 -33q41 -10 80 -10q25 0 57 12q16 8 18 8q6 -3 -6 -24q-18 -33 -63 -55q-53 -33 -125 -29q-84 4 -123 31q-55 -74 -133 -148l2 -2q47 33 115 33q78 0 128 -37t37 -104q-18 -90 -141 -150.5t-246 -60.5q-68 0 -114.5 26.5t-40.5 77.5
q4 39 33.5 63.5t68.5 24.5q25 0 42.5 -12t14.5 -39q0 -27 -34 -49q-27 -18 -29 -39q0 -35 61 -35q82 0 155 63.5t89 153.5q8 39 -12.5 62.5t-52.5 25.5q-31 2 -62 -12q-20 -10 -41 -31q-23 -23 -35 -14q-16 12 21 45q59 55 108 110q55 63 109 148q6 14 16 14z" />
    <glyph glyph-name="six" unicode="6" horiz-adv-x="593" 
d="M45 109v2q0 135 158 292q111 115 259 188t275 64q96 -6 123 -65q10 -20 0 -27q-2 0 -4 1t-5 6t-5 8q-33 53 -107 53q-166 0 -426 -275q-154 -164 -168 -288q-6 -63 45 -66q84 -6 191 156q43 63 52 112t-21 60q-37 10 -99 -29q-14 -10 -18 -4t16 20q66 49 129 43
q80 -4 99.5 -75.5t-37.5 -153.5q-49 -70 -139.5 -112t-167.5 -37q-150 6 -150 127z" />
    <glyph glyph-name="seven" unicode="7" horiz-adv-x="460" 
d="M555 477q-152 -66 -270 -65q-55 0 -83 22.5t-20 59.5q10 39 54 63q27 14 53 14q8 0 8 -2q2 -4 -4 -8q-5 -6 -6 -10q-6 -14 1 -26.5t32.5 -20.5t68.5 -8q123 0 209 24q39 18 41 4q2 -4 -5 -9t-24 -13q-326 -309 -530 -543q-14 -14 -121 -29q-59 -8 -69.5 0.5t26.5 44.5
q285 262 639 502z" />
    <glyph glyph-name="eight" unicode="8" horiz-adv-x="550" 
d="M524 623h-2q-43 0 -78.5 -29t-44.5 -70q-12 -68 33 -166q49 -109 33 -172q-18 -84 -111.5 -144t-195.5 -60q-78 2 -119 36.5t-29 100.5q8 57 69.5 111.5t158.5 91.5q47 16 49 8q0 -2 -5.5 -6.5t-15.5 -9.5t-16 -9q-100 -70 -127 -174q-29 -113 61 -119q66 -8 115 49.5
t49 128.5q0 29 -37 125q-35 76 -30 131q6 82 93 144.5t179 62.5q68 0 102.5 -35.5t24.5 -89.5q-18 -100 -176 -157q-49 -20 -51 -13q0 4 4 8.5t14 9.5t12 7q86 57 105 145q8 39 -9.5 67t-54.5 28z" />
    <glyph glyph-name="nine" unicode="9" horiz-adv-x="587" 
d="M-174 -188h2q117 0 274 116q63 47 134 123t116 142q131 188 140 272q8 57 -31 59q-41 6 -98.5 -36t-110.5 -119q-41 -61 -48 -111.5t23 -58.5q41 -12 101 32q27 18 28 17q8 -8 -24 -33q-66 -51 -129 -43q-80 8 -95.5 80t39.5 149q53 76 144.5 113t163.5 31
q49 -2 84.5 -31t42.5 -78q14 -129 -119 -301q-115 -147 -304.5 -252.5t-328.5 -95.5q-94 6 -119 63q-8 23 2 27q4 2 10 -10q2 -3 3 -4q26 -51 100 -51z" />
    <glyph glyph-name="colon" unicode=":" horiz-adv-x="356" 
d="M152 125h2q33 0 40 -20.5t-15.5 -49t-63.5 -49t-66 -24.5q-25 33 -2 92q19 51 105 51zM266 334h2q33 0 40 -20.5t-15.5 -49t-63.5 -49t-65 -25.5q-10 10 -10 39t10 54q18 51 102 51z" />
    <glyph glyph-name="semicolon" unicode=";" horiz-adv-x="356" 
d="M197 106v-2q0 -16 -23 -45q-86 -100 -205 -170q-27 -16 -28 -12q-4 4 18 27q59 55 84 110q6 10 2 32t-2 30q14 41 123 49q31 3 31 -19zM266 334h2q33 0 40 -20.5t-15.5 -49t-63.5 -49t-65 -25.5q-10 10 -10 39t10 54q18 51 102 51z" />
    <glyph glyph-name="less" unicode="&#x3c;" horiz-adv-x="577" 
d="M80 264v2q0 10 47 27l479 176q23 8 27 0q6 -10 -25 -25l-399 -184l250 -170q23 -14 14 -27q-8 -8 -24 0l-343 177q-26 14 -26 24z" />
    <glyph glyph-name="equal" unicode="=" horiz-adv-x="804" 
d="M831 354v-2q0 -10 -38 -12q-324 -10 -584 -12q-33 0 -42 8t-5 20q8 35 53 35q391 -14 586 -22q30 -1 30 -15zM750 217v-2q0 -14 -39 -14l-584 -13q-23 0 -35 5.5t-13 11.5t1 12q10 39 51 35q346 -12 590 -23q29 0 29 -12z" />
    <glyph glyph-name="greater" unicode="&#x3e;" horiz-adv-x="577" 
d="M549 266v-2q0 -10 -43 -26l-481 -179q-25 -10 -27 2q-4 12 25 25l397 184q-182 123 -246 170q-20 18 -16 27q6 10 26 0l340 -176q25 -11 25 -25z" />
    <glyph glyph-name="question" unicode="?" horiz-adv-x="540" 
d="M508 690h2q70 0 105.5 -34.5t25.5 -94.5q-25 -133 -250 -215q-109 -39 -145 -61q-51 -31 -66 -60q-16 -59 -37 -59q-6 0 -9 9t-1 24.5t8 29.5q31 53 117 107q197 125 227 231q10 35 -4 58.5t-47 23.5q-66 0 -131 -49q-45 -31 -64.5 -82t-0.5 -82q2 -4 6 -8t7 -6t3 -4
q0 -6 -23 -2q-66 12 -51 78q16 61 109 122q110 74 219 74zM143 117h2q31 0 38 -19.5t-13 -46.5q-23 -29 -61.5 -48t-61.5 -21q-23 35 -2 88q20 47 98 47z" />
    <glyph glyph-name="at" unicode="@" horiz-adv-x="1026" 
d="M643 563h2q117 0 189.5 -54t70.5 -128q-4 -57 -47 -115q10 -20 10 -45q0 -72 -47 -129q-55 -68 -159.5 -107.5t-231.5 -37.5q-111 2 -187.5 44t-106.5 103.5t-19.5 135t63.5 141.5q72 88 196 140t267 52zM643 545h-2q-111 0 -205 -54.5t-155 -132.5q-70 -86 -80.5 -175
t50 -151.5t185.5 -66.5q111 -2 208 40t155 106q45 53 45 108q0 6 -1 14l-1 9q-27 -31 -64 -56q-88 -68 -174 -67q-59 0 -67 41q-4 23 14 51h-2q-88 -84 -172 -86q-37 0 -58.5 14.5t-19.5 46.5q8 74 125 148q92 59 178 55q51 -2 47 -51h2q27 31 43.5 38t44.5 7q37 0 40 -6
q1 -4 -9 -17q-109 -135 -127 -167q-14 -31 10 -37q16 -4 53 10t64 37q37 29 61 71q-6 16 -20 31q-10 10 -8 14q4 4 20 -8l17 -16q18 45 18 88q0 68 -57.5 115t-157.5 47zM608 373h-2q-35 0 -133 -94q-78 -78 -78 -113q0 -14 17 -14q43 0 118 65q96 84 103 129q2 27 -25 27z
" />
    <glyph glyph-name="A" unicode="A" horiz-adv-x="1460" 
d="M35 115v2q0 57 35.5 94t79.5 39q41 2 64.5 -18.5t21.5 -53.5q0 -31 -50 -67q-35 -27 -34 -52q0 -35 49 -55t141 -12q188 16 414 172q-49 39 -88 102.5t-37 134.5q2 94 70.5 161t177.5 67q154 0 235 -158q41 41 88 82q182 174 314 246q147 78 264 78q80 0 104 -25
q6 -6 10 -12t4 -10.5t-2 -6.5q-2 0 -4 1t-6 5.5t-10 8.5q-16 12 -45 12q-37 0 -66 -23q-74 -57 -168 -192q-188 -262 -380 -576q55 4 118 39q53 27 115 82q25 25 33 19q8 -8 -19 -31q-61 -57 -123 -88q-72 -37 -135 -41q-37 -43 -131 -53q-27 -4 -40 0t-11 12l4 16
q2 6 9 17.5t7 13.5q-61 6 -143 35q-76 31 -125 67q-227 -166 -440 -182q-127 -10 -214 29t-87 121zM1139 199q158 242 252 356q184 233 391 301v2q-117 0 -256 -76q-109 -59 -275 -209l-127 -122q20 -55 25 -123q4 -72 -10 -129zM901 586h-2q-76 0 -119 -55.5t-47 -133.5
q-6 -119 64 -200q43 33 149 122l148 134q-72 133 -193 133zM811 178q31 -37 109 -74q66 -29 135 -38l51 86q25 49 20 163q-4 72 -22 117l-146 -131q-57 -51 -147 -123z" />
    <glyph glyph-name="B" unicode="B" horiz-adv-x="1423" 
d="M885 -18q-80 0 -130 30.5t-40 93.5q8 49 50 81t93 32q31 0 50.5 -15.5t17.5 -41.5q0 -45 -62 -74q-49 -23 -53 -45q-2 -20 20.5 -32.5t53.5 -12.5q104 0 202.5 95t104.5 218q4 66 -44 99.5t-87 29.5q-29 -8 -51 -8q-25 0 -36 5t-9 16q2 16 49 16q31 0 59 -8
q66 10 130.5 64.5t84.5 121.5q29 98 -57 146q-14 -12 -39 -37q-27 -27 -58.5 -66l-55 -70.5l-67.5 -92l-73 -97.5q-150 -203 -344.5 -337t-370.5 -134q-213 0 -235 139q-14 96 68.5 223.5t271.5 258.5q180 123 400 191.5t402 64.5q8 0 26 -1t22 -1q119 72 221 108
q115 41 219 39q109 -4 143 -55q12 -14 2 -19l-10 11q-39 45 -133 45q-109 0 -199 -41q-80 -33 -159 -103q182 -47 159 -176q-16 -82 -109 -133t-200 -57v-2q106 -8 170 -57.5t59 -119.5q-8 -127 -141 -209.5t-315 -82.5zM100 106q0 -59 34 -94t93 -35q147 0 307 182
q42 48 168 214q160 209 383 395q35 27 62 43q-12 4 -39 4q-164 4 -364.5 -62.5t-354.5 -187.5q-152 -121 -220.5 -241t-68.5 -218z" />
    <glyph glyph-name="C" unicode="C" horiz-adv-x="835" 
d="M555 963h2q178 0 266 -129q53 12 111 12q102 4 178 -34t66 -120q-6 -66 -77 -113t-157 -67t-170 -20q-217 0 -325 77q-106 -94 -175 -212.5t-69 -213.5q0 -186 201 -178q139 4 290 111q35 23 129 106q31 27 37 21q6 -8 -24 -35q-96 -88 -140 -119q-162 -111 -317 -121
q-154 -10 -245 44.5t-95 170.5q-4 129 83 259t241 239q-51 61 -52 129q0 84 70 138.5t172 54.5zM776 512h2q113 0 204 49t105 139q8 66 -33.5 97.5t-119.5 31.5q-59 0 -103 -14q25 -45 29 -113v-23t-1 -19.5t-2 -14.5t-2 -8t-3 -2t-3 6t-2 21.5t-3 29.5q-10 68 -45 113
q-78 -25 -176.5 -90.5t-159.5 -130.5q106 -72 313 -72zM555 934h-2q-90 0 -151.5 -44t-61.5 -120q0 -70 41 -117q195 121 405 172q-33 45 -97 77t-134 32z" />
    <glyph glyph-name="D" unicode="D" horiz-adv-x="1501" 
d="M748 557v2q0 41 -26 65.5t-65 26.5q-72 2 -131 -53q-8 -6 -14 -13l-10 -11.5t-6 -8.5t-4.5 -5t-4.5 -1q-2 2 0 8t10.5 18.5t20.5 24.5q68 68 150 64q47 -2 81.5 -33t38.5 -84q10 -129 -116 -233q-57 -45 -147.5 -71t-180.5 -22q-113 4 -190.5 55.5t-77.5 141.5
q0 178 225 308t500 130q289 0 475 -129q78 45 137 66q106 39 209 39q76 0 119 -33q8 -6 12 -13.5t5 -11.5t-1 -6q-2 0 -3 2t-7 8.5t-16 12.5q-37 20 -103 20q-88 0 -192 -43q-78 -33 -125 -71q113 -94 144.5 -229.5t-32.5 -246.5q-145 -250 -661 -249q-156 0 -303 16
q-78 -14 -230 -14q-23 0 -66 -1q-73 0 -108 0.5t-76.5 3.5t-58 10t-14.5 19q4 47 291 41q86 0 282 -28q49 14 92 37.5t89.5 68.5t69 69.5t76.5 95.5t68 87q82 100 187.5 190.5t187.5 141.5q-162 129 -448 129q-242 0 -424 -131t-184 -303q-4 -154 153 -164q160 -8 289 108
q113 107 113 199zM518 23q123 -20 213 -21q164 0 307.5 68.5t233.5 205.5q70 100 74 217t-58 193q-47 -45 -134 -167t-124 -165q-111 -137 -233.5 -211.5t-278.5 -119.5z" />
    <glyph glyph-name="E" unicode="E" horiz-adv-x="845" 
d="M469 549v2q0 63 45 121q-86 66 -84 147q4 59 53 96t127 37q154 0 256 -108q90 10 156 8q100 -4 161.5 -42t59.5 -89q-2 -68 -98 -117t-219 -49q-166 0 -291 55q-20 -29 -29 -59q-10 -35 -6 -64q53 6 102 5q115 -4 109 -52q-6 -41 -113 -41q-133 0 -194 56
q-78 -31 -154 -101q-102 -94 -119 -196q-20 -94 31 -144.5t154 -46.5q139 8 284 105q23 16 50.5 38.5l55.5 46l38 31.5q18 18 26 11q6 -6 -22 -31q-74 -70 -148 -121q-162 -109 -323 -121q-164 -10 -246 51.5t-61 180.5q14 82 88.5 149.5t159.5 104.5t176 57q-25 31 -25 80z
M922 575h2q98 0 179 41t83 105q4 43 -35 76.5t-123 36.5q-68 2 -139 -25q27 -45 31 -86q2 -12 3 -22.5t1 -18.5t-1 -14t-3 -8.5t-4.5 -2.5t-2.5 4.5t-3 18.5t-9 33q-10 47 -45 84q-68 -35 -121 -76q-41 -31 -90 -92q109 -54 277 -54zM823 836q-102 98 -215 98
q-70 0 -110.5 -31t-44.5 -84q-4 -74 73 -133q41 51 127 88q76 42 170 62zM604 471q12 -47 96 -51q72 -4 74 26q2 12 -18.5 19.5t-53.5 9.5q-49 4 -98 -4z" />
    <glyph glyph-name="F" unicode="F" horiz-adv-x="1181" 
d="M700 805h-2q-348 0 -397 -205q-14 -68 16.5 -132.5t118.5 -102.5l27 -13q-4 -10 -39 2q-88 31 -134 102.5t-36 155.5q16 117 142 198t313 79q137 0 346 -58q152 -43 250 -65q133 57 235 57q57 0 95 -17.5t34 -49.5q-2 -61 -168 -62q-82 0 -186 15q-57 -49 -139 -148
q-35 -41 -86.5 -108.5l-77.5 -100.5q96 -4 155 17q61 82 113 69q46 -12 -13 -64q-6 -6 -14 -12q-74 -59 -106 -94l-33 -32q-6 2 -4 18t8 33q14 37 33 57q-51 -14 -156 -14q-25 -33 -47 -56q-129 -143 -309 -228t-340 -85q-111 0 -183.5 41t-74.5 113q0 49 32.5 86t86.5 37
q41 0 63.5 -24t20.5 -56q-4 -35 -33 -66q-27 -27 -27 -49q0 -57 107 -61q213 -8 401 198q72 76 125 152q-88 0 -112 -2q-22 -1 -47 -5q-15 -1 -15 3q4 18 78 24h110q47 66 105 127q139 150 297 244q-84 12 -205 39q-226 43 -328 43zM1538 803h-2q-88 0 -170 -53
q109 -29 184 -29q39 0 68 11t31 28q4 43 -111 43z" />
    <glyph glyph-name="G" unicode="G" horiz-adv-x="1019" 
d="M1282 752q2 -84 -68.5 -164t-187.5 -142q-96 -49 -230 -72.5t-251 -15.5q-70 2 -142 27q-96 -137 -106 -254q-4 -53 21.5 -87t74.5 -36q133 -2 336 207q63 63 148 64q31 0 36 -6.5t-10 -26.5l-102 -135l-121 -160v-2q102 53 205 131q68 51 133 110q27 16 29 15
q8 -8 -27 -39q-47 -43 -121 -98q-94 -72 -242 -152q-121 -174 -251 -330q-123 -141 -281 -236t-266 -95q-49 0 -76 21.5t-25 64.5q12 135 318 323q88 53 210 112.5t203 112.5l177 240q-152 -150 -316 -152q-197 -4 -213 150q-16 150 123 322q-117 78 -117 194
q0 119 98.5 187.5t237.5 68.5q164 0 285 -96q209 72 352 69q166 1 166 -120zM1257 754q0 96 -137 96q-154 0 -319 -90q33 -51 43 -107q6 -29 7 -53.5t-5 -24.5q-2 0 -3 4.5t-8.5 24l-17.5 45.5q-23 57 -55 86q-121 -82 -213 -170q-70 -70 -135 -166q55 -16 121 -18
q94 -4 224 27.5t234 87.5q109 59 187.5 130t76.5 128zM461 866h-2q-121 0 -206 -58t-85 -165q0 -104 104 -180q86 102 183 170q131 96 264 147q-108 86 -258 86zM467 -147q-49 -31 -156.5 -89.5t-212.5 -125.5q-96 -61 -176 -145.5t-84 -154.5q-2 -53 47 -57q51 -8 127 41
q115 74 262 266z" />
    <glyph glyph-name="H" unicode="H" horiz-adv-x="1406" 
d="M1141 786q-94 -33 -457 -20q-207 6 -339 -60.5t-146 -197.5q-18 -170 147 -223q24 -10 25 -13q-4 -10 -39 0q-92 27 -148.5 96.5t-48.5 149.5q12 152 153.5 235t383.5 64q35 -2 110.5 -8t121.5 -9t103.5 -5t93.5 1t52 11q55 31 65.5 25t-11.5 -25q-8 -7 -13 -12
q-72 -68 -150 -162l-141 -184l268 2q66 76 148 151q152 147 285 217q129 70 247 70q53 0 88 -20.5t46 -51.5q10 -27 -3 -31q-2 0 -3 1t-3 7.5t-4 10.5q-29 57 -119 57q-84 0 -182 -69q-59 -41 -186 -175q-84 -90 -146 -172q111 0 166 -6q4 0 12.5 -1t12.5 -1t10 -1t8 -3
t2 -4q-2 -8 -43 -8q-141 0 -188 -2q-229 -291 -221 -365q2 -33 39 -32q55 0 145 63q12 8 31.5 24.5l44 37t35.5 28.5q25 25 30 17q6 -6 -12 -25q-86 -76 -117 -98q-115 -82 -202 -82q-135 0 -138 94q0 16 4.5 36.5t13.5 42t18 40t25.5 44l27 41t31 41t27.5 35t26.5 33
t21.5 25.5l-266 -4q-172 -211 -346.5 -332t-374.5 -121q-86 0 -149.5 40t-63.5 120q0 47 32.5 81t81.5 34q37 0 59.5 -25t18.5 -59q-2 -35 -32 -62q-27 -25 -27 -51q2 -59 90 -59q39 0 82 14t75.5 30.5t77 54.5l69 59.5t68.5 72.5t57 67.5l57 73l47 60.5q-88 0 -150 -2
q-41 0 -39 12q0 6 59 12q47 6 152 10q217 256 414 340z" />
    <glyph glyph-name="I" unicode="I" horiz-adv-x="989" 
d="M1319 850l-110.5 -22.5t-123.5 -26.5q-166 -39 -297 -113q-55 -31 -93 -75t-38 -87q0 -51 52 -51q29 0 53 17q18 12 20 10q4 -8 -10 -23q-31 -25 -74 -28q-49 -4 -83.5 20.5t-34.5 67.5q0 113 180 192q102 49 321 94q29 6 84.5 16.5t96.5 17.5t57 13q43 14 55 13
q8 0 10 -7.5t-2 -14.5t-12 -11q-88 -35 -194 -186q-29 -41 -89.5 -135.5t-93.5 -137.5q-332 -430 -774 -430q-117 0 -186.5 40t-69.5 118q0 55 38 96t91 41q47 0 67.5 -27.5t14.5 -62.5q-8 -37 -45 -66q-41 -37 -41 -63q0 -25 32 -40t87 -15q297 0 606 411q143 190 213 262
q150 150 293 193z" />
    <glyph glyph-name="J" unicode="J" horiz-adv-x="765" 
d="M410 -45q61 27 110 55q57 33 137 90q55 43 109 90q23 20 29 14.5t-25 -34.5q-49 -47 -117 -96q-72 -55 -143 -92q-70 -37 -123 -60q-96 -119 -145 -172q-221 -236 -435 -340q-143 -76 -270 -69q-121 0 -127 84q-8 70 85 145.5t278 153.5q90 39 413 159q233 313 410 506
q162 174 307 283q106 78 209 129q39 18 39 22q0 8 -21 8q-94 2 -229 -28.5t-254 -91.5q-143 -76 -236.5 -178.5t-93.5 -190.5q0 -78 58 -90q6 -2 12 -2h10t7.5 1t5.5 0t2 -3t-4.5 -5t-13.5 -5t-19 -2q-51 4 -87 37.5t-42 93.5q-10 92 64.5 191t230.5 171q117 55 288.5 91
t309.5 30q20 0 34.5 -7t10.5 -24q-2 -12 -33 -35q-82 -66 -127 -110q-129 -129 -250 -277zM168 -147q-176 -63 -391 -154q-152 -68 -225.5 -142.5t-69.5 -134.5q6 -53 65 -57q111 -12 275 113q106 72 262 264z" />
    <glyph glyph-name="K" unicode="K" horiz-adv-x="1372" 
d="M1845 752q0 -70 -83 -118t-175 -40q-49 4 -74 20q-9 6 -6 13q2 2 13 -2q20 -10 61 -15q86 -8 162 36t76 108q0 39 -30 61.5t-71 22.5q-53 0 -103 -32t-82 -68t-81 -103q-11 -14 -16 -23q-123 -164 -346 -217q61 -23 84 -76q18 -49 -29 -129q-10 -16 -27.5 -41.5l-26 -38
t-15.5 -30t-7 -31.5q0 -35 39 -35q55 0 154 82l100 86q25 18 31 13q4 -4 -19 -27q-27 -27 -104 -92q-125 -98 -221 -99q-119 0 -123 86q-4 68 63 156q74 94 74 123q0 23 -14 41q-33 -12 -62 -12q-25 0 -42 7t-15 21q2 27 65 27q31 0 70 -16q37 16 70.5 45.5t55 54.5l58.5 71
t60 70q186 209 413 205q51 -2 88 -29.5t35 -74.5zM-43 121v2q0 57 37 94t88 37q37 -2 60.5 -23.5t23.5 -58.5q-2 -35 -39 -78q-27 -27 -27 -55q0 -59 90 -59q61 0 123 27.5t126.5 87t102.5 100.5t103.5 121.5l77.5 95.5q150 172 319 268v2q-158 -90 -337 -90
q-125 0 -194 33.5t-62 103.5q2 68 69 109q39 25 94 24q27 0 4 -24q-47 -47 -53 -107q-4 -49 33 -83t111 -34q113 0 241.5 45.5t218.5 126.5q45 45 66 39q34 -7 -10 -41q-6 -5 -13 -10q-43 -27 -135 -143l-55 -74l-61.5 -83t-45.5 -58q-360 -455 -733 -455q-88 0 -155.5 40
t-67.5 120zM989 385h2q27 0 43 10q-14 12 -39 15q-43 4 -43 -10.5t37 -14.5z" />
    <glyph glyph-name="L" unicode="L" horiz-adv-x="1226" 
d="M516 717v2q0 82 82 146.5t219 64.5q190 0 324 -111q86 31 190 31q96 2 162 -38t57 -105q-12 -90 -146 -144.5t-292 -73.5q-106 -10 -203 0q-145 -219 -364 -362q31 -4 178 -43q102 -27 170 -27q98 0 175 29t161 107q18 12 22 8q8 -8 -18 -29q-113 -111 -187.5 -156
t-169 -45t-204.5 41q-178 66 -187 68q-137 -102 -276 -105q-127 -4 -123 48q2 47 101.5 80.5t203.5 35.5q41 2 111 -4q57 57 135 195.5t111 183.5q-98 20 -165 74.5t-67 128.5zM920 508q76 -8 194 6q113 14 231.5 70.5t131.5 138.5q6 53 -34 82t-102 29q-94 0 -165 -54
q23 -31 32 -65q6 -20 8.5 -40t0 -28t-4.5 -8t-3 6t-8 24.5t-19 41.5q-12 25 -37 49q-94 -66 -225 -252zM537 719v-2q0 -66 65.5 -116t157.5 -71q141 205 342 277q-121 82 -295 82q-125 0 -197.5 -49t-72.5 -121zM455 90q-78 20 -146 19q-51 -2 -93 -25t-40 -51q4 -37 66 -33
q119 4 213 90z" />
    <glyph glyph-name="M" unicode="M" horiz-adv-x="1804" 
d="M182 -61h-2q-238 0 -250 143q-4 57 34 100t93 43q43 0 66.5 -20.5t21.5 -52.5q0 -41 -39 -72q-37 -31 -40 -47q-12 -70 141 -70q129 0 312 83t349 202q209 154 580 518q-160 27 -397 27q-203 0 -338 -74t-156 -207q-16 -164 141 -217q6 -2 13.5 -4t9.5 -3t2 -3
q-4 -12 -39 -2q-90 25 -144.5 93t-47.5 152q12 156 164.5 241t383.5 75q125 -4 426 -58q16 16 27 25q41 35 86 33q59 0 23 -51q-4 -6 -10.5 -14.5t-6.5 -10.5q80 -10 162 -8q150 0 246 39q119 47 147 100q6 8 9 16.5t3 12.5t2.5 7t4.5 3q4 2 7 -4t2 -17.5t-5 -25.5
q-12 -37 -74 -103q-285 -307 -358 -399q-207 -256 -209 -334q0 -29 30 -28q53 0 152 79q45 35 88 74q23 18 29 12t-13 -24q-63 -59 -114 -94q-109 -86 -199 -86q-113 -4 -113 86q0 70 146 262q168 215 327 348v2q-123 -88 -403 -321q-82 -70 -381 -345q-37 -33 -78 -22.5
t-8 53.5q35 49 196.5 307t221.5 332l-2 2q-330 -326 -516 -461q-408 -292 -703 -292zM1223 193q133 123 370 317q229 186 346 254v2q-68 -27 -196 -27q-94 0 -170 11q-49 -68 -175 -279.5t-175 -277.5z" />
    <glyph glyph-name="N" unicode="N" horiz-adv-x="1372" 
d="M-190 98v2q0 59 40.5 96t90.5 37q86 0 86 -69q0 -33 -39 -68q-43 -35 -47 -59q-4 -33 30.5 -51.5t104.5 -18.5q125 0 280.5 63.5t294.5 172.5q293 223 445 510q20 41 59 80q53 49 100 49q23 0 31 -9.5t0 -19.5q-31 -45 -47 -113q-12 -49 -29 -249q-18 -227 -53 -314h2
q205 299 389 506q135 154 249 241t220 85q61 -2 96 -39t31 -90q-4 -23 -10 -23q-2 0 -2 3t-1 9.5t-3 10.5q-20 61 -111 63q-168 8 -446 -285q-193 -201 -479 -614q-29 -45 -64 -33q-47 14 -35 54q47 143 56 329q12 229 34 291h-2q-59 -113 -174.5 -238.5t-242.5 -222.5
q-147 -111 -304 -176t-286 -67q-111 -2 -187.5 36.5t-76.5 120.5z" />
    <glyph glyph-name="O" unicode="O" horiz-adv-x="933" 
d="M330 106v-2q0 -47 26 -77q10 -10 9 -13q-4 -8 -17 4q-39 27 -51 91q-8 70 26.5 164t110.5 186q102 129 234.5 203.5t226.5 70.5q106 -6 106 -141q0 -66 -33.5 -155t-95.5 -165q-106 -129 -273 -218t-308 -85q-88 2 -162 40t-92 128q-25 115 37.5 239t158.5 214
q143 137 335 209.5t358 56.5q137 -14 151 -113q6 -59 -35 -100q-20 -25 -28 -16l16 24q31 39 25 90q-6 41 -43 64.5t-86 23.5q-137 4 -292 -90t-263 -207q-94 -102 -152.5 -226t-38.5 -216q18 -98 135 -102q207 -6 467 311q160 201 172 340q4 35 -14 54.5t-47 21.5
q-78 4 -185.5 -71t-209.5 -206q-168 -213 -168 -332z" />
    <glyph glyph-name="P" unicode="P" horiz-adv-x="1337" 
d="M823 575v3q0 39 -24.5 64.5t-61.5 27.5q-76 2 -135 -52q-8 -6 -14 -13t-9.5 -12t-5.5 -9t-4 -5t-4 -1q-2 2 0 9t9.5 19t19.5 25q63 63 149 59q47 -2 82 -32.5t37 -84.5q10 -127 -119 -227t-299 -98q-113 2 -180 48t-63 136q6 121 112.5 221.5t272.5 154.5t352 54
q223 0 350 -65q86 53 156 77q121 39 217 39q113 0 147 -57q10 -16 2 -18q-2 -2 -4 3q-3 5 -8 9q-39 43 -135 43q-90 0 -195 -43q-68 -31 -129 -82q94 -66 129 -149.5t-12 -184.5q-88 -156 -381 -160q-70 0 -106 11q-129 -125 -342 -215v-2q111 -27 219 -33q117 -4 164 24
q10 6 24 18q9 7 11 5t0.5 -5t-6.5 -11.5t-13 -16.5q-74 -72 -197 -72q-145 0 -297 39q-131 -41 -344 -41q-70 0 -127 16.5t-57 51.5q0 41 64.5 68.5t158.5 25.5q150 -6 367 -61q51 37 92 83t101.5 127t97.5 126q207 254 381 368q-45 25 -137.5 44.5t-188.5 19.5
q-252 0 -428 -117t-201 -297q-8 -66 25 -112t108 -50q145 -6 262 101.5t117 205.5zM987 307q29 -10 74 -6q68 6 140.5 48t119.5 124q35 61 41 119.5t-8.5 93.5t-38.5 59q-55 -53 -143.5 -189t-122.5 -179q-42 -50 -62 -70zM489 27q-193 43 -282 49q-178 14 -178 -33t161 -47
q201 0 299 31z" />
    <glyph glyph-name="Q" unicode="Q" horiz-adv-x="1071" 
d="M803 571q0 33 -25.5 55.5t-72.5 20.5q-63 -2 -103 -39q-14 -12 -28 -29q-7 -10 -11 -8q-2 2 0 8.5t9.5 16.5t17.5 20q51 51 123 52q55 0 91 -29t38 -82q4 -92 -86 -172q-55 -49 -138 -79t-161 -27q-70 2 -120 38.5t-58 108.5q-8 76 36.5 156t122.5 139q80 63 205 105
t223 42q137 0 226.5 -55t89.5 -158q0 -113 -72 -196.5t-199 -171.5q-166 -115 -450 -205v-2q166 -39 246 -39q100 0 182 31.5t178 113.5q23 23 29 15q6 -6 -9 -21q-227 -209 -399 -209q-158 0 -360 56q-166 -51 -301 -52q-168 0 -168 66q0 41 61.5 70.5t163.5 29.5
q96 0 336 -47q203 82 379 236q207 180 221 348q6 76 -34 124t-122 48q-172 0 -377 -168q-160 -135 -159 -258q0 -61 35.5 -94t93.5 -35q127 -2 258 117q88 77 88 159zM293 41q-164 35 -227 41q-72 6 -126.5 -3t-54.5 -36q0 -47 144 -47q129 0 264 45z" />
    <glyph glyph-name="R" unicode="R" horiz-adv-x="1429" 
d="M1626 887h-2q-70 0 -174 -39q-63 -27 -107 -53q66 -33 109 -103.5t2 -150.5q-35 -68 -124 -97.5t-177 -31.5v-2q98 -31 104 -93q6 -51 -51 -127l-28.5 -37.5t-27.5 -39t-16.5 -31t-9.5 -33.5q-2 -12 7.5 -23.5t29.5 -11.5q53 0 160 82q63 51 94 82q25 20 31 14t-12 -24
q-70 -66 -115 -100q-113 -86 -203 -91q-133 -6 -137 86q0 66 78 156q86 98 88 127q6 35 -37 57q-20 -4 -39 -4q-6 0 -31 7q-45 -57 -84 -97q-147 -150 -399 -250q111 -31 174 -30q65 -3 117 30q10 6 17 12.5t10.5 9.5t5.5 3q12 0 -8 -25q-4 -5 -9 -10q-74 -68 -192 -67
q-90 0 -205 32q-141 -43 -328 -39q-184 4 -184 68q0 43 60.5 72.5t152.5 25.5q135 -8 356 -71q16 10 32.5 22t36 29.5l35 31t38 39l37 42l43 50l44 51t49 60.5t52.5 64q184 219 381 334q-121 51 -305 51q-203 0 -382.5 -108.5t-209.5 -272.5q-16 -86 11.5 -144.5t98.5 -62.5
q18 -2 32.5 0t17 3t6.5 -1q2 -4 -4.5 -9t-20.5 -9t-33 -4q-113 0 -179 65.5t-50 167.5q29 180 243 286.5t470 106.5q207 0 335 -51q59 37 138 61q102 33 188 33q117 0 148 -53q4 -8 6 -15.5t2 -11.5t-2 -4t-3 3q-3 10 -14 20q-39 43 -137 43zM1317 768q-61 -53 -139 -162
l-121 -170q18 0 30 -2q20 -2 35 -10q57 8 114.5 43t92.5 94q37 68 32 121t-44 86zM428 25q-172 41 -274 49q-176 14 -177 -33q0 -41 160 -47q174 -4 291 31z" />
    <glyph glyph-name="S" unicode="S" horiz-adv-x="1204" 
d="M805 449q23 8 137.5 52l175.5 66q127 178 264 264q86 55 162 56q33 0 52.5 -13.5t17.5 -42.5q-4 -49 -76 -106t-176 -100l-55 -23l-109 -209q-109 -217 -302.5 -323.5t-422.5 -122.5q-236 -14 -354 59q-109 -88 -158 -180q-13 -18 -14 -19q-8 2 0 25q31 84 141 195
q-102 80 -94 200q12 139 158.5 224.5t312.5 95.5q94 6 194.5 -17.5t145.5 -80.5zM1317 629q12 4 43 16q219 96 233 186q2 20 -13 30.5t-38 6.5q-41 -6 -92 -57q-59 -57 -133 -182zM524 143h-2q-92 0 -162 45q-49 -31 -112 -77q-68 -55 -70 -58q51 -51 137 -72.5t177 -15.5
q158 14 283.5 118.5t240.5 311.5q59 100 90 142v2q-147 -51 -287 -113q20 -31 17 -72q-6 -96 -103.5 -153.5t-208.5 -57.5zM520 164h2q88 0 169 54t85 136q2 29 -6 54l-139 -62q-106 -51 -252 -145q59 -37 141 -37zM762 430q-33 61 -120 84t-177 14q-123 -8 -230.5 -84.5
t-117.5 -201.5q-6 -100 37 -160q37 33 65 53l113 78q-35 31 -41 74q-4 20 6 20q2 0 8 -16q12 -39 45 -68q123 74 273 146q98 45 139 61z" />
    <glyph glyph-name="T" unicode="T" horiz-adv-x="1259" 
d="M1487 1071h-2q-176 0 -264 -106q-18 -20 -31 -58q-2 -6 -4 -13t-3 -10t-3 -3q-8 0 -4 26q12 43 32 70q39 53 114 87t167 34q123 0 198.5 -55.5t63.5 -147.5q-12 -100 -117.5 -154.5t-267.5 -50.5q-45 0 -51 -2q-78 -29 -162 -127q-25 -29 -98.5 -129t-139.5 -158
q-207 -184 -477 -237v-2q203 -18 322 -19q139 4 227 23.5t174 75.5q49 31 88 67q20 14 25 13q8 -6 -10 -27q-47 -43 -97 -76q-184 -121 -440 -121q-227 0 -418 27q-96 -12 -200 -16q-119 -4 -166 2t-43 30q12 57 184 58q137 0 301 -27q109 20 238 129q70 59 164 165.5
l124 139.5q168 170 363 215v2q-137 18 -264 43q-252 47 -414 47q-135 -2 -226 -48t-102 -136q-8 -68 47.5 -113t139.5 -49q92 -2 152.5 33t68.5 96q4 37 -12 60q-10 13 -9 14q6 6 31 -8q43 -27 43 -70q-2 -66 -87 -106.5t-189 -36.5q-94 4 -154.5 54t-54.5 132
q10 113 122.5 181.5t290.5 66.5q121 0 387 -41q223 -37 349 -43q137 -8 229 25.5t102.5 103.5t-56 120t-181.5 50z" />
    <glyph glyph-name="U" unicode="U" horiz-adv-x="1200" 
d="M874 274q-106 -104 -243 -198t-242 -94q-59 0 -84.5 21.5t-23.5 64.5q2 100 251 378q193 219 218 314q10 43 -13.5 62.5t-60.5 19.5q-178 0 -361 -178q-164 -160 -163 -267q0 -82 73 -84q37 -2 74 21l15.5 12t10.5 8t5 0q4 -2 -4.5 -13t-20.5 -19q-37 -29 -86 -27
q-90 6 -106 100q-12 70 31.5 159t123.5 157q90 76 204 113.5t212 37.5q88 0 141.5 -30.5t53.5 -88.5q0 -43 -33 -101t-67 -100l-99 -120q-242 -276 -254 -354q-6 -41 33 -41q76 0 215 104q152 111 299 287q176 205 352 344q145 115 225 104q27 -6 24 -32.5t-34 -59.5
q-49 -53 -154 -129q-121 -88 -186 -143l-17 -21.5l-19.5 -24t-16.5 -20.5q-213 -281 -219 -356q-6 -37 20 -43q47 -6 127 53q45 31 117 94q25 20 31 14.5t-17 -26.5q-47 -45 -123 -102q-113 -88 -204 -88q-49 -2 -76 21.5t-27 64.5q0 77 98 206zM1251 567l123 88
q72 49 133 111q20 23 31.5 40t12.5 26.5t-5 13.5q-29 12 -110 -78z" />
    <glyph glyph-name="V" unicode="V" horiz-adv-x="1081" 
d="M166 8q158 -2 358 62q248 78 441 229q225 176 301 313q12 18 12 43q0 10 -10.5 32t-25.5 49.5t-21 45.5q-12 20 -5 51t37 31q84 0 84 -98q0 -76 -41 -162q-98 -213 -290 -358q-166 -133 -471 -209q-219 -55 -426 -55q-68 -18 -109 -23q-100 -8 -100 21q0 41 90 45
q16 0 133 -13q168 63 381 277q225 225 248 399q10 76 -24 116t-99 40q-150 0 -305 -121q-66 -51 -112 -125t-54 -135q-16 -125 88 -131q94 -8 217 125q82 90 90 166q4 31 -6 49q-8 12 -6 14q8 8 14 -8q25 -25 25 -74q-4 -84 -76 -170q-43 -49 -117 -86t-145 -35
q-68 2 -107 45t-35 111q4 63 50.5 137t125.5 129q76 55 171.5 89t173.5 38q125 8 212 -44t74 -177q-16 -184 -262 -383q-78 -66 -225.5 -144.5t-253.5 -105.5z" />
    <glyph glyph-name="W" unicode="W" horiz-adv-x="1331" 
d="M629 844q-147 2 -305 -121q-66 -51 -112 -124t-54 -136q-14 -127 88 -133q96 -4 217 127q82 90 90 166q4 27 -6 49q-8 12 -6 14q8 4 16 -8q23 -29 23 -74q-4 -88 -76 -170q-43 -51 -117 -89t-145 -32q-70 4 -109 46t-35 108q4 63 50.5 135t123.5 129q164 121 349 131
q123 6 212 -49t66 -174q-18 -102 -126.5 -252.5t-231.5 -273.5l2 -2l109.5 81l121.5 89q156 111 252 186q33 100 74 168q49 74 107.5 116t101.5 37q29 -2 44 -23.5t7 -57.5q-6 -27 -29.5 -58t-45 -51t-59.5 -50t-48 -40q-76 -315 -138 -397l2 -2l92.5 84l144.5 127.5
l128 113.5q242 219 268 383q8 51 -10 70q-8 6 -20 10q-6 3 -7 4q4 6 21 6q57 0 88 -31.5t27 -80.5q-14 -121 -342 -389q-360 -297 -443 -377q-55 -55 -102 -56q-55 0 -23 54q41 61 95.5 230l56.5 175v2q-86 -72 -264 -201l-308 -219q-76 -49 -114 -49q-27 0 -33 13.5
t14 35.5q168 186 252 305q170 240 189 369q10 74 -22.5 114t-100.5 42zM1184 543q4 2 24.5 18.5t30.5 25.5l29.5 26.5t31 30.5t22.5 30.5t15 32.5q8 27 -1 44t-31 17q-39 0 -70 -74q-22 -47 -51 -151z" />
    <glyph glyph-name="X" unicode="X" horiz-adv-x="1050" 
d="M1022 643q240 209 414 209q51 0 78.5 -23.5t23.5 -60.5q-6 -66 -88 -113t-158 -61q-29 -6 -30 2q0 4 28 12q61 16 111.5 58.5t60.5 95.5q4 27 -8 46t-39 21q-100 2 -235.5 -111.5t-268.5 -283.5q-174 -223 -198 -336q-16 -84 49 -84q57 0 164 74q37 27 110 90
q29 23 33 19q4 -8 -14 -27q-51 -51 -117 -98q-109 -86 -215 -90q-86 -2 -127 29.5t-35 90.5q6 49 37 93l-2 2q-246 -225 -473 -226q-188 0 -199 127q-4 55 32 100.5t95 45.5q33 0 55.5 -17.5t22.5 -48.5q0 -35 -33 -72q-41 -45 -41 -69q0 -47 74 -47q270 0 586 401
q76 96 140.5 202.5t76.5 156t-12.5 72t-67.5 22.5q-80 0 -175 -48t-181 -132q-162 -158 -164 -267q-4 -82 74 -86q43 0 73 23l29 20q4 -2 -3 -12t-20 -20q-37 -29 -84 -27q-94 4 -104 102q-4 76 35 157t112 146q86 78 203 120t205 42q207 0 207 -119q-2 -51 -37 -100z" />
    <glyph glyph-name="Y" unicode="Y" horiz-adv-x="1110" 
d="M895 295q-119 -119 -259 -216t-247 -97q-59 0 -84.5 21.5t-23.5 64.5q2 100 251 378q193 219 218 314q10 43 -13.5 63.5t-60.5 20.5q-176 0 -361 -180q-164 -160 -163 -267q0 -84 71 -86q39 0 76 23q6 4 13 11t11.5 9t6.5 0q8 -8 -25 -32q-39 -27 -84 -27
q-43 0 -72.5 27.5t-35.5 72.5q-10 72 31.5 162t117.5 156q88 76 204 113.5t218 37.5q88 0 142.5 -31.5t52.5 -89.5q-2 -61 -52.5 -134.5t-146.5 -186.5q-242 -276 -254 -354q-6 -41 33 -41q76 0 215 104q152 111 299 287q213 246 321 348q125 113 209 100q20 -2 27.5 -16
t3.5 -32.5t-21 -39.5q-41 -53 -139 -133q-123 -102 -166 -143l-266 -365l-178 -252q156 4 238.5 -64.5t64.5 -182.5q-2 -14 -6 -23.5t-8 -15t-9 -2.5l5 38q12 111 -68 174.5t-231 55.5q-100 -143 -218 -277q-135 -154 -290.5 -243.5t-253.5 -89.5q-43 0 -71 19t-23 67
q6 82 99 183t204 177q186 127 399 170zM1255 569l105 86q82 68 117 111q55 66 28 80q-25 14 -98 -78zM580 -154q-190 -45 -363 -163q-88 -61 -171 -165t-87 -182q-2 -49 39 -57q53 -8 131 39q117 74 262 270z" />
    <glyph glyph-name="Z" unicode="Z" horiz-adv-x="987" 
d="M940 670q-152 -84 -293 -88q-201 -6 -192 114q6 70 89 120t181 54q31 0 31 -10q0 -2 -31 -6q-57 -4 -102 -31.5t-47.5 -66.5t29.5 -57.5t79 -22.5q166 -10 293 37q45 53 104 100q59 49 97 41q14 -4 17 -17.5t-9 -29.5q-12 -14 -32.5 -28.5t-37 -24t-48.5 -26.5l-44 -23
q-68 -59 -276 -213l-213 -154v-2q39 6 83 2q104 -8 165 -71.5t65 -176.5q55 31 131 94q27 23 33 19q6 -6 -23 -35q-57 -57 -139 -100q-8 -215 -287 -451q-170 -143 -407.5 -248.5t-376.5 -103.5q-127 4 -129 94q-2 98 119.5 195.5t312.5 193.5q121 63 313.5 143t282.5 129
q37 160 -23 228q-29 33 -82 43t-92 2q-55 -45 -125 -88q-127 -80 -149 -43q-10 18 25.5 53t91.5 59q90 43 163 58q49 33 209 151zM672 -6q-88 -47 -281.5 -131t-296.5 -139q-100 -53 -151.5 -84t-127 -83.5t-110.5 -100.5t-33 -97q2 -37 31 -55.5t74 -18.5q125 0 308 97.5
t327 244.5q217 224 260 367zM440 287q-39 -2 -106 -35q-43 -20 -69.5 -41t-22.5 -31q10 -18 100 41q61 39 98 66z" />
    <glyph glyph-name="bracketleft" unicode="[" horiz-adv-x="528" 
d="M1032 948l-10 -14q-63 -4 -127 -12q-35 -4 -50.5 -11.5t-33.5 -33.5q-8 -10 -151.5 -205t-225.5 -297q-96 -121 -391 -467q-27 -35 -20.5 -46.5t40.5 -15.5l121 -12l-8 -12h-266q6 6 76.5 105.5l164 225.5l175.5 230l467 565h239z" />
    <glyph glyph-name="backslash" unicode="\" horiz-adv-x="489" 
d="M289 -176h-2q-12 0 -19 26l-196 848q-8 41 32 80q23 16 36.5 0t19.5 -61q47 -336 137 -854q6 -39 -8 -39z" />
    <glyph glyph-name="bracketright" unicode="]" horiz-adv-x="528" 
d="M-29 -178h-239l10 14q63 4 127 12q25 4 36 7.5t23.5 11.5t24.5 27q8 10 151.5 204.5t225.5 296.5q96 121 391 467q27 35 21.5 46.5t-42.5 15.5l-120 12l8 12h266q-4 -6 -75.5 -105.5l-165 -224l-175.5 -229.5z" />
    <glyph glyph-name="asciicircum" unicode="^" horiz-adv-x="628" 
d="M436 522h2q4 0 17 -20q61 -106 141 -207q10 -14 6 -19q-6 -6 -33 9q-94 53 -159 121q-41 -29 -142.5 -75t-148.5 -63q-23 -8 -27 0q-4 6 17 21q176 115 297 217q20 16 30 16z" />
    <glyph glyph-name="underscore" unicode="_" horiz-adv-x="1024" 
d="M911 -215v-76h-1042v76h1042z" />
    <glyph glyph-name="grave" unicode="`" horiz-adv-x="628" 
d="M440 711h2q31 0 37 -41q25 -92 51 -162q6 -23 2 -25q-8 -8 -22 11q-86 92 -113 139q-10 14 -10 31q0 20 17.5 33.5t35.5 13.5z" />
    <glyph glyph-name="a" unicode="a" horiz-adv-x="686" 
d="M457 287q39 43 60.5 53t70.5 10q55 0 55 -14q0 -7 -10 -19l-111 -135q-59 -78 -69 -100q-16 -31 -2 -41q12 -10 49 6q29 12 88 59q53 43 100 87q23 16 27 12q6 -6 -21 -33q-68 -63 -121 -104q-111 -86 -194 -86q-72 0 -82 49q-6 35 22 71l-2 2q-139 -123 -249 -122
q-53 -2 -83 17t-28 62q4 53 63 117l-2 2q-10 -10 -22 -18q-20 -18 -27 -12q-4 8 19 30q39 35 73 58q53 39 129 71q117 51 201 47q39 -2 55.5 -22t10.5 -47zM401 334h-2q-53 0 -190 -133q-119 -119 -113 -162q2 -20 27 -21q29 0 79 29t93 68q51 45 96 102t47 80q2 37 -37 37z
" />
    <glyph glyph-name="b" unicode="b" horiz-adv-x="712" 
d="M657 274q-10 -100 -131 -192q-125 -96 -276 -96h-2q-94 0 -94 45q0 27 29.5 42t99.5 36q156 45 161 47q49 61 64 102q23 61 -19 61q-59 0 -178 -92q-123 -94 -229 -207q-20 -23 -80 -26q-23 -2 -36 -1t-21 4t-8 10t6 18q12 25 88 137q8 12 63 86h-2q-47 -39 -72 -66
q-31 -25 -34 -16q-6 6 14 24l135 117q117 154 242 303q117 139 257 270.5t238 200.5q119 86 203 84q74 -4 64 -73q-12 -145 -396 -435l-142 -102.5l-168 -120.5t-105 -82q-51 -63 -146 -198l4 -2q94 86 179 139q109 70 198 65q51 0 74.5 -22.5t19.5 -59.5zM236 12
q47 2 98 35q55 35 94 86q-10 -6 -33.5 -13t-53.5 -14.5t-40 -11.5q-59 -16 -85 -30.5t-23 -32.5q2 -23 43 -19zM354 399l175 139.5l178 141.5q367 313 376 424q6 39 -32 39q-51 0 -138 -82q-92 -88 -262 -293q-180 -215 -297 -369z" />
    <glyph glyph-name="c" unicode="c" horiz-adv-x="485" 
d="M113 -18h-2q-135 0 -136 92q0 55 54 112l-2 2q-6 -4 -27 -24q-25 -20 -31 -14q-4 8 13 24q37 35 71 57q59 43 103 64q133 68 217 61q47 -2 69.5 -23.5t16.5 -54t-29.5 -55t-48.5 -22.5q-29 0 -36 21.5t9 47.5q33 55 27 62q-2 3 -8 4q-35 10 -127 -86q-104 -104 -115 -182
q-6 -47 47 -48q76 0 189 74q27 18 118 94q18 16 24.5 10.5t-20.5 -30.5q-63 -57 -114 -92q-137 -94 -262 -94z" />
    <glyph glyph-name="d" unicode="d" horiz-adv-x="686" 
d="M401 334h-2q-53 0 -190 -133q-119 -119 -113 -162q2 -20 27 -21q29 0 79 29t93 68q51 45 96 102t47 80q2 37 -37 37zM190 309q109 53 201 47q41 -2 56.5 -23.5t7.5 -47.5l2 -2q90 127 262 327q127 150 235 248q47 43 115 43q45 0 49 -16q-63 -61 -233 -254
q-70 -80 -258 -314q-150 -184 -174 -235q-16 -31 -2 -41q12 -10 49 6q29 12 88 59q55 45 100 87q23 16 27 12q6 -6 -19 -31q-45 -45 -123 -106q-111 -86 -194 -86q-72 0 -82 49q-6 35 22 71l-2 2q-139 -123 -249 -122q-53 -2 -83 17t-28 62q4 53 63 117l-2 2q-6 -6 -22 -18
q-20 -18 -27 -12q-6 8 21 30q23 27 71 58q57 40 129 71z" />
    <glyph glyph-name="e" unicode="e" horiz-adv-x="485" 
d="M170 16q76 0 195 78q68 47 122 99q16 12 23 6q6 -8 -23 -33q-57 -53 -120 -94q-127 -86 -248 -90q-147 -6 -144 92q0 53 54 112l-2 2q-2 -4 -14.5 -14t-14.5 -12q-23 -18 -29 -12q-4 8 13 24q31 29 69 57q41 31 105 64q127 63 223 63h2q92 0 88 -61q-4 -63 -135 -127
q-82 -39 -201 -64q-12 -18 -12 -45q0 -45 49 -45zM143 127q70 12 142 63q82 59 90 115q6 31 -23 31q-39 0 -110 -78q-66 -74 -99 -131z" />
    <glyph glyph-name="f" unicode="f" horiz-adv-x="385" 
d="M1063 1165h2q41 0 55.5 -23.5t3.5 -58.5q-12 -57 -122.5 -174.5t-276.5 -249.5l-219 -165.5t-162 -120.5q-141 -172 -283 -367q29 6 93 33q57 23 122 67q53 33 109 84q25 20 31 14.5t-25 -34.5q-55 -51 -125 -96q-57 -35 -162 -78q-41 -18 -51 -33q-14 -20 -28 -65
q-57 -205 -160 -390q-109 -193 -250 -303q-59 -47 -111 -36q-66 10 -51 96q14 74 99.5 227.5t195.5 304.5l342 447l-2 2l-70 -64q-25 -20 -30 -16q-6 8 12 24q80 72 137 119l244 303q92 106 215 232.5t197 185.5q166 135 270 135zM369 414q270 211 331 266q315 289 367 418
q10 23 5 37t-25 12q-43 -2 -132 -86q-86 -84 -260 -291zM20 -51q-109 -137 -258 -361q-170 -258 -200 -329q-14 -37 4 -45q14 -8 49 18q100 76 225 295q112 197 180 422z" />
    <glyph glyph-name="g" unicode="g" horiz-adv-x="686" 
d="M145 -152l-151.5 -86.5t-235.5 -144.5q-139 -92 -231 -189.5t-100 -172.5q-2 -47 30 -58q47 -12 129 35q154 86 375 369q65 81 184 247zM401 334h-2q-53 0 -190 -133q-119 -119 -113 -162q2 -20 27 -21q29 0 79 29t93 68q51 45 96 102t47 80q2 37 -37 37zM190 309
q113 53 201 47q39 -2 55.5 -23.5t10.5 -45.5h2q41 43 61.5 53t67.5 10q51 0 51 -13q0 -6 -8 -18l-109 -137l-170 -229q111 59 223 145l111 92q16 18 25 11q6 -8 -21 -31q-57 -53 -123 -100q-106 -80 -237 -154q-106 -162 -207 -289q-227 -287 -529 -420q-80 -39 -153 -38
q-115 0 -109 86q4 154 406 393q98 59 228 126.5t198 110.5q55 74 147 211l-2 2q-137 -117 -241 -116q-53 -2 -83 17t-28 62q4 53 63 117l-2 2q-6 -6 -22 -18q-20 -18 -27 -12q-6 8 21 30q33 33 71 58q57 40 129 71z" />
    <glyph glyph-name="h" unicode="h" horiz-adv-x="753" 
d="M350 393q55 47 182 146.5t175 140.5q367 309 376 424q6 39 -32 39q-51 0 -138 -82q-92 -88 -262 -293q-195 -234 -301 -375zM641 70q-115 -84 -197 -84q-96 -2 -88 73q4 35 76 125l82 101q16 20 -2 26q-12 8 -59 -14q-70 -37 -148 -100l-227 -187q-16 -12 -82 -18
q-41 -2 -50 5t-1 28q39 72 84 137q33 45 69 88l-2 2l-92 -84q-16 -12 -22 -4q-2 8 18 26q14 14 64.5 56.5l70.5 60.5q117 154 242 303q119 141 259 273.5t236 197.5q123 84 203 84q35 0 51.5 -20.5t12.5 -52.5q-12 -145 -396 -435l-142 -102.5l-168 -120.5t-105 -82
q-27 -33 -187 -258l4 -2q106 92 181 148q158 117 256 116q39 0 60.5 -16t19.5 -45q-6 -35 -78 -125q-55 -70 -64 -84q-20 -37 -4 -47t49 10q47 25 90 57q43 35 101 87q20 16 24 10q6 -6 -8 -21q-57 -57 -131 -112z" />
    <glyph glyph-name="i" unicode="i" horiz-adv-x="395" 
d="M485 631h2q31 0 38 -19.5t-15.5 -48t-62 -50t-62.5 -21.5q-27 37 -2 90q20 49 102 49zM199 307q-41 -14 -117 -74l-80 -67q-27 -18 -31 -14q-8 4 17 28q82 74 147 115q80 55 164 55q66 0 67 -13q1 -7 -12 -20q-76 -86 -114 -135q-45 -57 -70 -100q-18 -37 -6 -45t45 8
q35 16 90 61l96 82q23 20 29 14.5t-18 -28.5q-53 -55 -119 -104q-117 -88 -205 -88q-80 0 -80 57q0 33 29 78q29 47 86 110.5t82 79.5z" />
    <glyph glyph-name="j" unicode="j" horiz-adv-x="417" 
d="M236 322q-6 0 -39 -15q-49 -23 -115 -74l-82 -69q-20 -18 -29 -12q-6 6 17 28q82 74 147 115q82 55 164 55q83 0 82 -19q0 -6 -8 -14q-66 -72 -115 -135q-23 -27 -170 -219q94 43 201 121q39 29 129 106q20 20 28 13q6 -6 -24 -35q-59 -55 -123 -102q-109 -78 -229 -138
q-141 -207 -293 -372q-143 -158 -327.5 -272.5t-289.5 -114.5q-53 0 -85.5 19t-28.5 67q8 84 122.5 189t296.5 212q74 45 424 240l154 217q130 174 193 209zM-133 -139q-203 -115 -395 -244q-139 -92 -231.5 -189.5t-100.5 -172.5q-2 -47 33 -56q47 -16 129 35
q160 92 374 367q115 145 191 260zM487 631h2q31 0 38.5 -19.5t-15.5 -48t-62.5 -50t-62.5 -21.5q-27 37 -2 90q22 49 102 49z" />
    <glyph glyph-name="k" unicode="k" horiz-adv-x="739" 
d="M98 250l-2 2l-92 -84q-16 -12 -22 -4q-2 8 18 26q14 14 64.5 56.5l70.5 60.5q100 135 242 303q117 139 255 269.5t240 201.5q121 84 203 84q35 0 51.5 -20.5t12.5 -52.5q-14 -147 -396 -435l-142 -102.5l-168 -120.5t-105 -82q-84 -100 -187 -256l2 -2q145 129 176 154
q84 61 138 86q63 25 123 22q47 0 71.5 -20.5t20.5 -48.5q-6 -45 -92 -58q-76 -12 -91 -28q-18 -25 -14 -88q6 -70 35 -76q18 -2 53 16q39 23 78 53q74 59 102 87q18 16 24.5 10t-22.5 -33q-63 -59 -118 -102q-106 -82 -203 -82q-100 0 -94 98q6 76 45 111q23 20 92 30
q39 6 57 29q12 12 14.5 32.5t-12.5 32.5q-23 12 -71 -10q-66 -31 -154 -102q-33 -27 -114 -99.5t-109 -93.5q-25 -18 -82 -22q-41 -2 -51.5 5t0.5 28q18 37 84 137q6 10 69 88zM350 393q55 47 182 146.5t175 140.5q367 309 376 424q6 39 -32 39q-51 0 -138 -82
q-92 -88 -262 -293z" />
    <glyph glyph-name="l" unicode="l" horiz-adv-x="393" 
d="M100 252l-2 2l-94 -86q-16 -12 -22 -4q-2 8 18 26q6 6 141 121q104 139 246 299q113 131 231 242q51 51 119 51q47 0 56 -20q-33 -27 -134.5 -137.5t-175.5 -200.5q-293 -354 -331 -457q-14 -35 0 -47q16 -10 45 4q43 18 98 61q39 29 98 84q20 18 26.5 12.5t-18.5 -30.5
q-70 -66 -120 -102q-123 -88 -213 -88q-84 0 -84 63q1 76 116 207z" />
    <glyph glyph-name="m" unicode="m" horiz-adv-x="1214" 
d="M94 270q113 86 180 86q74 0 74 -51q0 -33 -45 -90l-94 -121l4 -2q133 106 193 150q156 115 245 114q47 0 63.5 -19.5t12.5 -47.5q-4 -33 -70 -117l-63 -78l4 -4q74 66 188 150q158 117 256 116q39 0 60.5 -16t19.5 -45q-6 -35 -78 -125q-49 -61 -63 -84q-20 -37 -4 -47
t49 10q35 18 92 60l99 84q18 16 24 10t-8 -21q-57 -57 -131 -112q-115 -84 -197 -84q-96 -2 -88 71q4 43 76 127l82 101q16 20 -2 26q-14 8 -60 -16q-49 -25 -149 -98l-232 -185q-23 -16 -86 -20q-39 -2 -48 5t1 28q20 45 109 159q68 86 78 101q14 20 -2.5 26t-57.5 -16
q-57 -29 -143 -96l-233 -183q-27 -23 -87 -24q-41 -2 -50 5t-1 28q27 49 94 137q18 25 48 61.5t39 48.5q16 23 6 31q-8 8 -31 -6q-31 -18 -76 -53q-57 -45 -90 -78q-27 -25 -35 -16q-4 8 21 28q55 55 106 92z" />
    <glyph glyph-name="n" unicode="n" horiz-adv-x="833" 
d="M526 -14q-53 -2 -73.5 19.5t-14.5 53.5q4 39 74 125q47 53 84 101q16 20 -2 26q-16 8 -59 -14q-61 -31 -152 -98l-233 -183q-27 -23 -87 -24q-41 -2 -50 5t-1 28q33 63 94 137l87 110q16 23 6 31q-8 8 -31 -6q-39 -23 -76 -53q-57 -45 -90 -78q-27 -25 -35 -16
q-4 8 21 28q51 51 106 94q109 84 182 84q72 0 72 -51q0 -33 -45 -90l-94 -121l4 -2q86 72 193 150q156 115 256 114q86 0 79 -61q-2 -33 -75 -125q-49 -61 -64 -84q-20 -35 -6 -47q16 -10 51 10q51 25 88 57l103 87q18 16 24 10t-10 -21q-66 -68 -131 -112
q-115 -84 -195 -84z" />
    <glyph glyph-name="o" unicode="o" horiz-adv-x="600" 
d="M39 199q-20 -16 -35 -31q-27 -23 -33 -16q-4 4 13 24q18 18 67 55q45 31 86 54q129 72 228 71q47 0 47 -12l-29 -14q-61 -29 -147 -113q-45 -45 -81 -99.5t-36 -86.5q-4 -29 26 -29q35 0 92.5 38t108.5 91q0 45 33 92q20 31 67 62v34l-5 14.5t-3 9.5t2 5q14 8 45 -14
q37 -27 37 -72q-4 -78 -116 -174q6 -4 28 -4q35 2 78 33q31 23 88 73q18 18 27 13q10 -6 -11 -23q-55 -51 -96 -80q-47 -35 -88 -37q-31 0 -45 11q-43 -33 -120 -62.5t-136 -29.5q-141 0 -145 98q0 61 55 117z" />
    <glyph glyph-name="p" unicode="p" horiz-adv-x="770" 
d="M207 354q-201 -182 -207 -188q-20 -23 -29 -14q-6 6 17 26l149 139l182 166q53 45 109 45q37 2 42 -9t-19 -42q-215 -256 -525 -678q-209 -281 -366 -526q-20 -33 -13 -41q10 -6 25 12q29 33 162 221q29 43 235 318q123 166 246 311q92 111 180 176q121 86 203 86
q47 0 67.5 -17t16.5 -46q-4 -31 -82 -123q-49 -57 -65 -86q-20 -33 -6 -43t51 6q33 16 92 59q39 31 96 82q23 23 29 17q6 -8 -9 -23q-80 -74 -133 -112q-117 -84 -202 -84q-82 0 -82 59q0 45 75 139q14 18 47 55t42 48q16 23 0 26q-14 4 -46 -8q-100 -49 -210 -170
q-131 -145 -299 -373l-248 -337q-129 -190 -178 -232q-35 -31 -86 -29q-55 4 -56 52q0 51 78 172l285 403q211 289 432 563z" />
    <glyph glyph-name="q" unicode="q" horiz-adv-x="659" 
d="M391 356q41 -2 56.5 -23.5t9.5 -45.5q41 43 65.5 53t65.5 10q57 0 54 -19q-1 -6 -7 -14l-129 -157q-45 -55 -273 -363q-240 -328 -364 -524q-23 -37 -8 -43q10 -4 28 20q29 29 150 205l231 316q115 143 256 292l131 125q27 18 31 15q6 -6 -22 -33q-104 -96 -121 -115
q-141 -143 -258 -297l-244 -336q-123 -176 -149 -204q-49 -55 -113 -54q-57 0 -57 52q0 45 75 168q80 127 285 405l235 315l-2 2q-133 -123 -249 -124q-53 -2 -83 17t-28 62q4 53 63 117l-2 2q-6 -6 -22 -18q-20 -18 -27 -12q-6 8 21 30q33 33 71 58q57 41 129 71
q113 53 201 47zM401 334h-2q-53 0 -190 -133q-119 -119 -113 -162q2 -20 27 -21q29 0 79 29t93 68q51 45 96 102t47 80q2 37 -37 37z" />
    <glyph glyph-name="r" unicode="r" horiz-adv-x="471" 
d="M389 297v-2q0 -8 -3 -16.5t-11 -19.5l-15.5 -20.5t-24 -27.5t-26.5 -33q-49 -61 -69 -96q-18 -27 -4 -41q12 -12 45 6q37 16 92 59l98 84q20 20 29 15q4 -4 -21 -31q-41 -45 -121 -104q-100 -82 -188 -84q-55 -2 -79.5 15t-22.5 46q0 57 92 139q131 111 133 117
q5 14 -17 17q-11 1 -65 -1q-33 -2 -47 5q-43 -47 -80 -80q-37 -37 -82 -78q-27 -20 -31 -14q-8 8 15 24q14 14 44.5 42l41.5 38q45 41 75 76q-14 10 -15 29.5t18 39.5q29 37 86 37q43 0 57 -20q-23 -16 -39 -33q-35 -43 6 -47q6 0 18.5 -1t19.5 -2t18.5 -2t18.5 -2t16 -3
t15.5 -5.5t11.5 -6.5t8 -8t3 -11z" />
    <glyph glyph-name="s" unicode="s" horiz-adv-x="516" 
d="M299 45q41 14 86 43q49 31 135 105q23 16 27 12q6 -6 -15 -25q-49 -49 -118 -98q-59 -41 -144 -70q-92 -31 -192 -30q-78 0 -119 35.5t-37 84.5q2 49 34 79t69 28q27 0 42 -13.5t15 -31.5q-2 -29 -37 -51q-37 -29 -37 -62q0 -47 55 -47q70 0 134 105q23 37 54.5 120.5
t41.5 96.5l-2 2q-25 -27 -92 -76q-57 -43 -93 -62q-18 -10 -22 -4q-6 8 12 19q31 18 90 63q66 47 123 99q12 25 33 45q27 25 61.5 24.5t34.5 -17t-35 -38.5q-6 -4 -24.5 -14.5t-24.5 -16.5q-20 -20 -2 -59q37 -88 6 -168q-24 -53 -59 -78z" />
    <glyph glyph-name="t" unicode="t" horiz-adv-x="393" 
d="M90 246q-12 -10 -44 -39t-44 -39q-20 -20 -29 -14q-4 8 17 28q139 123 157 142q-10 0 -34.5 -1t-36.5 -1q-6 0 -11.5 -1.5t-8.5 0t-4 3.5t-1 6q2 10 53 14q27 2 62 2q90 106 190 211q86 88 156 88q43 0 55 -16q-41 -35 -125 -133q-66 -76 -123 -152q66 2 115 0
q6 0 10.5 -1t9.5 -2t8 -3t1 -6q-2 -8 -37 -8q-76 0 -123 -2q-92 -111 -149 -226q-23 -45 -4 -57q16 -10 55 8q35 16 92 62l98 84q23 16 29 12q4 -4 -8 -21q-82 -76 -133 -114q-117 -88 -213 -88q-84 0 -84 61.5t104 202.5z" />
    <glyph glyph-name="u" unicode="u" horiz-adv-x="768" 
d="M199 307q-41 -14 -117 -74l-80 -67q-25 -18 -31 -14q-6 6 17 28q82 74 147 115q80 55 160 55q64 0 64 -13q0 -6 -11 -20q-45 -51 -112 -135q-59 -74 -78 -110q-14 -25 -2 -35q12 -12 47 6q53 27 153 104l120 101.5l95 83.5q29 23 84 22q65 0 66 -13q0 -7 -10 -19
l-109 -140q-55 -80 -63 -96q-18 -33 -7 -45q14 -12 52 6q39 20 84 57q41 31 102 89q18 18 27 10q6 -6 -23 -33q-53 -49 -119 -102q-106 -86 -194 -86q-96 0 -88 73q0 35 33 78q2 4 57 70l-4 4q-35 -31 -133 -109q-156 -117 -246 -116q-84 0 -84 63q2 37 37 84
q86 123 166 178z" />
    <glyph glyph-name="v" unicode="v" horiz-adv-x="661" 
d="M510 94q-47 0 -61 37q-37 -25 -87 -49q-104 -51 -176 -74q-86 -27 -135 -26q-41 0 -43 26q-2 18 19 39q59 63 100 115q61 74 80 119q6 23 -4 28q-12 8 -35 -6q-23 -12 -72 -51q-61 -53 -80 -72q-25 -25 -32 -20q-8 8 14 28q31 31 92 84q109 84 174 84q47 0 69.5 -20.5
t18.5 -59.5q-2 -55 -65 -126q-55 -72 -123 -125q66 16 188 77q47 25 88 56q0 55 37 114q51 88 115 82q20 -2 25.5 -25.5t-11.5 -52.5q-45 -72 -139 -133q8 -27 45 -30q41 -2 98 34l52 41q16 16 22 10.5t-16 -28.5q-16 -16 -50 -41q-57 -37 -108 -35z" />
    <glyph glyph-name="w" unicode="w" horiz-adv-x="1003" 
d="M82 -16h-2q-78 0 -78 65q2 39 49 103q92 123 154 163q-41 -16 -121 -77q-29 -23 -84 -74q-23 -18 -29 -12t15 26q100 90 149 121q80 53 168 53q57 0 58 -13q0 -7 -11 -20q-41 -45 -112 -135q-47 -59 -76 -106q-16 -29 -6 -39q12 -12 47 6q72 39 135 88q92 72 211 180
q29 25 106 25q48 0 50 -11q1 -5 -7 -14l-98 -127q-53 -72 -68 -104q-18 -37 -2 -53q14 -10 58 4q53 20 119 65q43 31 65 60q0 61 35 118q63 94 115 80q20 -6 18 -30.5t-20 -51.5q-39 -63 -121 -129q10 -33 57 -32q41 -4 94 34q8 6 54 43q25 23 30.5 17t-10.5 -23
q-25 -25 -59 -51q-55 -43 -111 -39q-49 0 -72 37q-41 -35 -59 -47q-145 -100 -262 -100q-90 0 -90 63q0 35 24 74q18 31 70 86l-4 4q-86 -74 -148 -121q-139 -106 -231 -106z" />
    <glyph glyph-name="x" unicode="x" horiz-adv-x="673" 
d="M215 100q-88 -115 -166 -114q-41 0 -64.5 20.5t-21.5 56.5q4 35 26.5 59.5t53.5 24.5q27 0 40 -16t5 -39q-4 -12 -21.5 -27.5t-19.5 -23.5q-6 -18 19 -23q63 -6 165 140q53 72 62 116q6 39 -31 45q-55 12 -164 -71q-57 -43 -96 -82q-29 -20 -33 -16q-8 8 19 28
q57 57 121 103q111 76 198 75q51 0 86 -29.5t27 -86.5l2 -2q102 119 182 118q35 0 52.5 -20.5t13.5 -54.5q-2 -25 -22.5 -43.5t-45.5 -18.5q-37 0 -35 35q2 10 10.5 21.5t8.5 17.5q0 16 -23 16q-39 0 -92 -49q-29 -27 -76 -90q-37 -47 -47 -90q-6 -49 29 -55q66 -12 178 69
q35 25 104 84q23 18 29 12q4 -6 -10 -22q-70 -61 -111 -92q-133 -90 -221 -90q-74 -2 -106.5 29.5t-24.5 84.5z" />
    <glyph glyph-name="y" unicode="y" horiz-adv-x="755" 
d="M508 246l-2 2q-6 -6 -23.5 -21.5t-21.5 -19.5q-31 -27 -135 -109q-156 -117 -246 -116q-43 0 -63.5 17t-18.5 46q0 33 35 84q96 135 166 178q-41 -14 -117 -74l-82 -69q-20 -18 -29 -12q-6 6 17 28q82 74 147 115q80 55 160 55q64 0 64 -13q0 -6 -11 -20
q-45 -51 -112 -135q-51 -63 -78 -112q-14 -25 -4 -35q12 -8 49 8q63 35 153 104l120 101.5l95 83.5q29 23 101 22q63 0 63 -12q0 -7 -10 -20l-127 -162l-270 -363q-268 -365 -363 -524q-23 -37 -12 -43q8 -6 27 16q18 20 159 219l228 306q119 152 260 299l129 120
q18 18 26 13q6 -6 -20 -33q-63 -55 -121 -115q-129 -133 -258 -297l-246 -333q-143 -203 -176 -232q-37 -33 -86 -31q-55 2 -55 54q0 59 78 172q109 164 280 401z" />
    <glyph glyph-name="z" unicode="z" horiz-adv-x="548" 
d="M102 74q29 10 60 6q111 0 139 -68q37 18 121 76q59 41 129 105q20 16 26.5 10t-12.5 -25q-78 -66 -133 -106q-63 -43 -123 -76q4 -12 4 -37q0 -190 -333 -483q-129 -117 -307.5 -211t-268.5 -94q-98 0 -98 73q0 129 317 365q113 82 412 258l151 88q10 49 -5 76.5
t-46 27.5q-72 0 -147 -75q-16 -16 -25 -11q-14 10 2 35q20 29 82 62l98.5 45.5t110.5 54.5q102 55 160 111q14 14 8 20q-2 4 -14 -4q-94 -61 -180.5 -61t-112.5 49q-51 -61 -115 -117q-18 -20 -26.5 -12t12.5 22q53 51 121 125q-4 35 20.5 65.5t71.5 30.5q37 0 39 -20
q-31 -6 -35 -27q-2 -18 17.5 -29.5t72.5 -11.5q98 0 176 29q33 12 43 2q14 -14 -12 -47q-55 -80 -178 -139q-37 -18 -117 -44t-105 -38zM-588 -807h2q80 0 208 94.5t253 227.5q92 96 186.5 221t118.5 196l-137 -82q-250 -152 -395 -262q-266 -201 -281 -340q-4 -55 45 -55z
" />
    <glyph glyph-name="braceleft" unicode="{" horiz-adv-x="641" 
d="M1176 948l-15 -16q-10 0 -36.5 1t-43.5 1q-166 0 -235 -78q-33 -37 -107.5 -170t-150.5 -201q-68 -59 -187 -63q29 -27 31 -75t-35 -105l-93 -120t-85 -114q-80 -121 64 -160q29 -10 90 -14l-11 -12q-92 0 -139 10q-100 20 -116.5 85t67.5 185q141 186 148 199
q29 55 15.5 90t-52.5 43l2 4q49 0 108.5 16.5t91.5 49.5q39 39 70 82t64.5 102.5t46.5 77.5q59 94 138 140t216 46z" />
    <glyph glyph-name="bar" unicode="|" horiz-adv-x="317" 
d="M190 1536v-2048h-63v2048h63z" />
    <glyph glyph-name="braceright" unicode="}" horiz-adv-x="641" 
d="M518 938l10 10q102 0 140 -8q217 -47 49 -272q-6 -8 -63.5 -78t-82.5 -109q-29 -47 -14.5 -81.5t57.5 -41.5l-2 -4q-47 6 -108.5 -19.5t-100.5 -66.5q-37 -39 -67.5 -82t-66.5 -104.5t-46 -75.5q-59 -94 -138 -140t-216 -46l-154 4l13 14h82q168 0 235 78
q33 37 107.5 170t150.5 201q92 78 203 82q-33 23 -41 64.5t27 96.5q18 25 86.5 111t93.5 123q78 117 -64 160q-39 10 -90 14z" />
    <glyph glyph-name="asciitilde" unicode="~" horiz-adv-x="628" 
d="M477 469h2q70 0 107 -47t45 -105q2 -12 -4 -16q-4 -2 -7 6q-1 4 -4 6q-43 61 -143 58q-31 0 -105.5 -23.5t-115.5 -23.5q-92 0 -123 94q-6 16 0 18q6 4 12 -8q25 -31 86 -31q41 2 123 37t127 35z" />
    <glyph glyph-name="uni00A0" unicode="&#xa0;" horiz-adv-x="786" 
 />
    <glyph glyph-name="exclamdown" unicode="&#xa1;" horiz-adv-x="540" 
d="M346 223h-2q-31 0 -38 19.5t13 46.5q23 29 62 48t61 21q23 -35 2 -88q-16 -47 -98 -47zM-184 -354h-2q-24 0 -23 10q1 13 39 61q127 160 442 428q23 20 31 13q6 -3 -16 -31q-154 -195 -285 -393q-59 -88 -186 -88z" />
    <glyph glyph-name="cent" unicode="&#xa2;" horiz-adv-x="473" 
d="M438 418l-235 -316q16 -4 35 0q72 12 139 72q20 14 24 10q6 -6 -12 -24q-94 -90 -209 -90q-68 -90 -92 -119q-10 -16 -20 -14q-6 6 6 22l76 113q-96 12 -103 84q-8 90 88 174q51 47 129 80.5t154 29.5l28 43q37 45 52 41q12 -6 -19 -51l-26 -37q37 -6 53 -27.5t10 -50.5
q-4 -27 -27.5 -48t-44.5 -21q-25 0 -30.5 19.5t8.5 43.5q34 56 16 66zM180 113l226 311q-51 -10 -121 -80q-43 -39 -79 -96.5t-38 -95.5q0 -29 12 -39z" />
    <glyph glyph-name="sterling" unicode="&#xa3;" horiz-adv-x="1044" 
d="M1292 616q2 -35 -47 -76.5t-133 -70.5q-104 -35 -211 -35q-8 -8 -26.5 -29.5t-26.5 -31.5l-78 -86q12 0 135 -4q29 0 29 -9q0 -6 -29 -10q-16 0 -157 -6q-102 -98 -248 -166q143 -31 200 -29q119 4 195 50q23 14 25 12q8 -4 -7 -19q-127 -127 -272 -126q-78 0 -233 53
q-109 -51 -299 -51q-68 0 -130.5 14t-60.5 45q0 39 76 63.5t192 22.5q119 0 285 -29q31 20 60.5 49t62.5 67t39 44q-39 0 -108.5 -1t-131.5 -1q-47 0 -47 18q0 20 45 21q137 0 264 -6l72 80l61 67q-96 10 -145 51t-45 105q4 37 27.5 65.5t56.5 36.5q23 4 23 -2q1 -3 -9 -5
q-6 -2 -10 -3q-63 -20 -68 -92q-2 -53 48.5 -84t126.5 -39q10 -2 24 -2q86 88 206 141.5t202 53.5q65 -1 67 -46zM1272 614v2q0 29 -45 29q-139 0 -303 -180q80 8 168 35q180 55 180 114zM113 -2h2q176 0 270 43q-131 37 -246 39q-195 4 -202 -37q-4 -25 61.5 -35t114.5 -10
z" />
    <glyph glyph-name="currency" unicode="&#xa4;" horiz-adv-x="696" 
d="M625 371v-2q0 -57 -35 -122t-84 -106q28 -49 49 -92q12 -25 2 -31t-31 19q-10 12 -57 78q-74 -57 -172 -60q-86 -2 -129 47l-88 -59q-31 -23 -41 -14q-8 8 18 30q12 12 44 38l44 36q-12 25 -12 57q0 125 123 222l-53 92q-12 25 0 31q10 6 30 -21l60 -78q74 55 172 60
q82 2 129 -45q76 53 78 55q31 25 41 16q10 -6 -17 -33q-16 -16 -82 -71q11 -16 11 -47zM532 369v2q0 45 -23.5 71.5t-64.5 24.5q-84 -2 -152.5 -96.5t-68.5 -188.5q0 -49 20.5 -77.5t63.5 -26.5q86 4 155.5 103.5t69.5 187.5z" />
    <glyph glyph-name="yen" unicode="&#xa5;" horiz-adv-x="806" 
d="M412 248q223 199 395 297q213 119 364 102q18 -4 30.5 -11t8.5 -13q-4 -2 -5 0t-11 4t-23 2q-106 0 -331 -127q-172 -96 -367 -246q43 -2 128 -3t130 -1q37 0 37 -10.5t-37 -10.5q-270 -4 -297 -6q-12 -6 -37 -24q-8 -6 -23.5 -21.5t-23.5 -21.5q102 0 254 -4q37 0 37 -9
q0 -10 -37 -10q-55 -2 -289 -6l-163 -154q-8 -8 -33 -14t-33 -2t12 33l107 135q-37 0 -90.5 -1t-61.5 -1q-51 0 -51 10q0 29 53 29q96 0 170 -2q27 35 31 39q6 6 13 15l7 9q-63 -2 -198 -2q-51 0 -51 13q0 27 49 26q74 0 221 -4q72 104 106 186q37 84 31 123q-4 45 -61 45
q-72 0 -140 -55q-18 -14 -20 -12q-8 8 6 20q86 90 213 90q98 0 125 -61q23 -51 -10 -141q-35 -90 -135 -205z" />
    <glyph glyph-name="brokenbar" unicode="&#xa6;" horiz-adv-x="317" 
d="M190 1382v-716h-63v716h63zM127 358h63v-716h-63v716z" />
    <glyph glyph-name="section" unicode="&#xa7;" horiz-adv-x="747" 
d="M98 -213h-2q-74 0 -118 39t-33 94q6 35 29.5 55.5t56.5 20.5q29 -2 42 -20.5t7 -43.5q-2 -16 -21.5 -36.5t-21.5 -34.5q-2 -23 16.5 -38.5t52.5 -15.5q100 0 136 78q29 68 -15 174q-43 113 -14 183q25 66 85 100.5t132 34.5q-27 76 -4 139q25 66 87 104.5t136 36.5
q51 -2 85 -31.5t22 -74.5q-6 -27 -26.5 -45.5t-45.5 -16.5q-27 2 -39 21.5t0 46.5q6 14 18.5 30.5t12.5 24.5q0 27 -43 27q-90 0 -121 -82q-23 -59 12 -145q49 -125 23 -199q-23 -66 -85.5 -101.5t-133.5 -41.5q23 -80 4 -136q-25 -70 -92.5 -108.5t-141.5 -38.5zM436 358
q-102 6 -141 -86q-25 -59 10 -147l14 -35q102 4 136 86q29 57 -9 150q-6 14 -10 32z" />
    <glyph glyph-name="dieresis" unicode="&#xa8;" horiz-adv-x="628" 
d="M434 637h2q29 0 37 -17.5t-12 -41.5q-45 -53 -117 -68q-18 31 0 82q14 45 90 45zM653 637h2q29 0 36 -17.5t-13 -41.5q-45 -53 -115 -68q-18 33 -2 82q14 45 92 45z" />
    <glyph glyph-name="copyright" unicode="&#xa9;" horiz-adv-x="1042" 
d="M545 594h2q131 0 227 -93t96 -224.5t-96 -223.5t-229 -92q-131 0 -228.5 92t-97.5 223.5t97.5 224.5t228.5 93zM545 555h-2q-113 0 -195 -83t-82 -196q0 -115 82 -196.5t196.5 -81.5t196.5 82t82 196q0 113 -81.5 196t-196.5 83zM694 334h-30q-4 84 -91 84
q-109 0 -108 -139q0 -141 104 -142q78 0 103 72h24q-6 -39 -8 -49q-10 -31 -29 -39q-39 -16 -94 -17q-80 0 -135 44.5t-55 123.5q0 82 58.5 129.5t139.5 47.5q61 0 91 -17q31 -14 30 -53v-45z" />
    <glyph glyph-name="ordfeminine" unicode="&#xaa;" horiz-adv-x="563" 
d="M588 799q43 45 90 45q37 0 38 -10q0 -5 -7 -13q-113 -147 -123 -166q-14 -23 -4 -28q8 -6 34 6q37 20 58 39q4 4 69 59q14 14 19 10q8 -4 -8 -20q-70 -61 -86 -76q-76 -59 -138 -59q-49 0 -55 30q-6 29 14 56l-2 2q-96 -86 -174 -88q-82 -4 -75 59q6 41 50 89t111 79
q78 41 140 35q53 -6 49 -49zM545 827h-2q-35 0 -129 -90q-78 -76 -78 -106q0 -16 16 -17q41 0 121 68q31 27 63.5 64.5t32.5 54.5q3 26 -24 26z" />
    <glyph glyph-name="guillemotleft" unicode="&#xab;" horiz-adv-x="616" 
d="M240 8h-2q-4 -2 -11 9l-4 6q-90 117 -123 155q-14 18 -12 25q2 10 25 16q143 59 225 113q14 10 16 8q10 -6 -2 -25q-70 -86 -143 -133q25 -70 35 -153q4 -19 -4 -21zM442 8q-4 -2 -16 15q-39 53 -121 155q-14 18 -12 25q2 8 24 16q133 55 226 113q14 10 16 8q8 -6 -4 -25
q-59 -82 -141 -133q29 -80 32 -153q4 -19 -4 -21z" />
    <glyph glyph-name="logicalnot" unicode="&#xac;" horiz-adv-x="935" 
d="M164 328v2q0 14 39 14q59 0 618 18q14 0 23.5 -6t8.5 -12t-5 -12q-152 -168 -217 -254q-29 -35 -41 -27q-8 4 10 39q84 129 141 207q-268 8 -538 14q-39 1 -39 17z" />
    <glyph glyph-name="uni00AD" unicode="&#xad;" horiz-adv-x="524" 
d="M322 256q53 0 78.5 -34t21.5 -85q0 -12 -6 -12q-4 0 -10 6q-23 31 -91 31q-27 0 -78 -10.5t-92 -10.5q-55 0 -77 29q-6 6 -2 12q2 2 12 -2q16 -6 37 -2q41 4 108 45q52 33 99 33z" />
    <glyph glyph-name="registered" unicode="&#xae;" horiz-adv-x="927" 
d="M756 580v-2q0 -111 -83 -189t-195.5 -78t-195.5 79t-83 189.5t83 190.5t195.5 80t195.5 -79.5t83 -190.5zM711 580v2q0 96 -69 163.5t-165 67.5t-164.5 -68.5t-68.5 -165t68.5 -165t164.5 -68.5t165 69t69 165zM664 463v-21h-60q-43 0 -86 60q-31 45 -37 59q-6 -2 -14 -2
l-18 2v-37q0 -35 8 -46t37 -11v-23h-154v23q29 0 34 10t5 49v119q0 31 -7 40t-32 9v23h143q111 0 111 -72q0 -41 -49 -63q27 -49 43 -70q31 -43 76 -49zM449 692v-108q39 -2 56 11t17 48q1 55 -73 49z" />
    <glyph glyph-name="macron" unicode="&#xaf;" horiz-adv-x="628" 
d="M655 567v-2q0 -10 -12 -22q-20 -20 -39 -21q-154 6 -274 0q-16 0 -19.5 2t2.5 13q29 37 60 41q135 16 254 10q28 -3 28 -21z" />
    <glyph glyph-name="degree" unicode="&#xb0;" horiz-adv-x="342" 
d="M281 559h2q39 0 68.5 -29.5t29.5 -70.5t-29.5 -71t-70.5 -30t-72 30t-31 71t31 70.5t72 29.5zM281 516h-2q-23 0 -40.5 -16.5t-17.5 -41t17.5 -42t42 -17.5t41 17.5t16.5 42t-16 41t-41 16.5z" />
    <glyph glyph-name="plusminus" unicode="&#xb1;" horiz-adv-x="735" 
d="M612 565h2q33 0 39 -10t-28 -55l-115 -125q133 -4 225 -8q33 0 33 -12.5t-31 -12.5q-180 -4 -254 -6l-121 -129q-29 -29 -43 -23q-14 8 5 33l84 117q-35 0 -105 -1t-102.5 -1t-43 6t-5.5 18q6 29 43 29q31 0 113.5 -3t125.5 -5l96 131q43 57 82 57zM623 129
q0 -12 -37 -12q-399 -10 -486 -11q-29 0 -38 6.5t-7 18.5q10 33 49 33q49 -2 230.5 -10.5t259.5 -10.5q14 0 22.5 -3t6.5 -11z" />
    <glyph glyph-name="uni00B2" unicode="&#xb2;" 
d="M236 381q27 6 49 4q20 0 58 -8t48 -8q39 0 74 41q8 8 14 6q8 -4 0 -13q-74 -92 -133 -92q-39 0 -80 21q-41 18 -71 18q-27 0 -60 -16q-4 -4 -9 -9.5t-8 -9.5l-3 -4q-16 0 -6 17q2 8 16 18q12 8 131 68q66 31 118 76t62 81q10 45 -35 45q-41 0 -79 -28q-31 -27 -39 -51
q-4 -18 6 -28.5t28 -6.5q10 6 11 0q2 -4 -9 -10q-16 -6 -32 -7q-43 2 -35 43q6 41 63 78q66 45 131 45q51 0 78 -20.5t19 -61.5q-12 -68 -137 -125q-31 -14 -95.5 -36.5t-74.5 -26.5z" />
    <glyph glyph-name="uni00B3" unicode="&#xb3;" 
d="M383 510q35 0 63 -18q33 -27 17 -68q-16 -49 -88 -80q-68 -29 -135 -29q-45 0 -70 16.5t-20 49.5q2 20 21 38.5t46 18.5q18 0 28.5 -9t8.5 -21q-2 -14 -23 -27q-27 -16 -26 -27q-2 -10 7 -15t26 -5q78 0 133 102q27 51 -6 58q-16 0 -31 -7q-16 -6 -19 -4q-4 10 19 21
q125 41 125 96q0 27 -37 27q-33 0 -62 -19q-25 -16 -34 -39q-6 -12 0 -28q4 -8 2 -11q-10 -6 -25 7q-16 12 -10 32q8 27 59 56q53 29 111 28q78 0 78 -45q4 -47 -70 -76q-20 -8 -88 -22z" />
    <glyph glyph-name="acute" unicode="&#xb4;" horiz-adv-x="628" 
d="M666 702q31 0 39 -18q16 -35 -19 -70q-53 -53 -174 -125q-20 -10 -27 -4q-4 4 13 25q16 18 120 154q23 36 48 38z" />
    <glyph glyph-name="uni00B5" unicode="&#xb5;" horiz-adv-x="768" 
d="M203 43q53 27 153 104l120 101.5l95 83.5q29 23 84 22q65 0 66 -13q0 -7 -10 -19l-109 -140q-55 -80 -63 -96q-18 -33 -7 -45q14 -12 52 6q39 20 84 57q41 31 102 89q18 18 27 10q6 -6 -23 -33q-53 -49 -119 -102q-106 -86 -194 -86q-96 0 -88 73q0 31 33 78q2 4 57 70
l-4 4q-35 -31 -133 -109q-51 -37 -78 -55t-76 -39.5t-90 -21.5q-45 0 -49 34q-29 -31 -47 -69q-37 -72 -45 -115q-4 -31 8 -43q-8 -16 -39 -6q-39 16 -27 76q10 53 45 116q37 72 105 158q96 127 166 174q-41 -14 -117 -74l-82 -69q-20 -18 -29 -12q-6 6 17 28q82 74 147 115
q80 55 160 55q64 0 64 -13q0 -6 -11 -20q-45 -51 -112 -135q-59 -74 -78 -110q-14 -25 -2 -35q12 -12 47 6z" />
    <glyph glyph-name="paragraph" unicode="&#xb6;" horiz-adv-x="905" 
d="M1210 819h2q39 0 69 -10t30 -25q0 -25 -31 -20q-18 4 -47 29q-16 12 -41 10q-92 -6 -238 -176q39 -14 50 -25q16 -12 10 -18q-4 -4 -17 6q-25 14 -55 22q-53 -59 -94 -116q-166 -227 -287 -349q-180 -182 -350 -186q-18 0 -31 4q-115 -76 -231 -76q-76 0 -125 33t-39 94
q4 39 32.5 59.5t63.5 16.5q23 -2 37 -19.5t8 -41.5q-4 -20 -28.5 -45t-22.5 -39q0 -39 76 -39q104 0 227 102q88 76 201 217q-123 25 -162 120t45 194q127 141 475 129q84 -4 140 -19q167 168 333 168zM786 643q-10 2 -34 2q-250 0 -367 -153q-49 -63 -58.5 -119t10 -86.5
t54.5 -42.5q6 6 19 22l83.5 108t87 102.5t111.5 109.5t94 57zM197 -20l7 -2q7 -1 9 -1q80 0 219 140q31 31 63.5 69.5l55 66.5l67 85l68.5 90q115 145 178 207q-16 4 -28 6q-16 0 -21 -2q-10 -4 -22.5 -11t-27.5 -20.5l-28.5 -26t-32 -34l-32 -36.5t-36 -43l-35.5 -44
l-38.5 -48l-38.5 -48q-195 -246 -299 -326q-16 -16 -28 -22z" />
    <glyph glyph-name="periodcentered" unicode="&#xb7;" horiz-adv-x="296" 
d="M221 350h2q33 0 40 -20.5t-13 -48.5q-25 -29 -64 -49.5t-65 -24.5q-25 31 -2 92q18 51 102 51z" />
    <glyph glyph-name="cedilla" unicode="&#xb8;" horiz-adv-x="628" 
d="M51 -190h2q29 0 51.5 14t24.5 35q4 20 -10.5 33.5t-42.5 11.5q-8 0 -15.5 -3t-10.5 -4t-7 -2t-6 1q-4 8 6 18q49 53 94 88l25 -10q-43 -27 -68 -62q12 4 29 4q45 0 67.5 -20t18.5 -59t-47 -62.5t-107 -21.5q-82 2 -116 51q-18 27 -7 35q2 2 19 -15q37 -32 100 -32z" />
    <glyph glyph-name="uni00B9" unicode="&#xb9;" 
d="M424 588q-14 -8 -52 -32t-53 -30q-57 -27 -65 -8q0 2 72 37q51 25 110 61q59 35 82 35q25 0 -6 -37q-96 -113 -186 -243q-23 -35 -42.5 -45.5t-84.5 -18.5q-18 -3 -15.5 5.5t25.5 37.5q154 195 215 238z" />
    <glyph glyph-name="ordmasculine" unicode="&#xba;" horiz-adv-x="563" 
d="M389 586h-2q-100 0 -100 69q0 39 32.5 79t71.5 63q74 45 156 49q39 4 39 -6q0 -2 -21 -13q-43 -18 -102 -77q-76 -68 -80 -121q-2 -25 20 -25q55 0 136 86q4 33 22 64q16 27 47 43q3 12 0 24q-6 18 -4 21q8 8 31 -11q27 -20 24 -51q0 -47 -75 -116q6 -6 18 -5
q20 -2 49 19q31 23 62 53q14 14 20 10q4 -4 -10 -20q-27 -31 -61 -53q-39 -27 -64 -25q-16 -4 -31 6q-84 -63 -178 -63z" />
    <glyph glyph-name="guillemotright" unicode="&#xbb;" horiz-adv-x="616" 
d="M352 342q2 0 17 -14q27 -39 120 -156q14 -18 13 -25q-2 -8 -25 -16q-168 -76 -225 -113q-14 -10 -16 -8q-8 6 4 23q18 27 60 67.5t81 67.5q-23 66 -35 151q0 21 6 23zM150 342q6 0 16 -14q51 -74 121 -156q14 -18 12 -25q-4 -8 -25 -16q-168 -76 -225 -113
q-14 -14 -16 -8q-8 6 4 23q18 27 60 67.5t81 67.5q-27 80 -33 151q-3 21 5 23z" />
    <glyph glyph-name="onequarter" unicode="&#xbc;" horiz-adv-x="866" 
d="M408 90q0 6 14 16q106 78 149 105q84 51 142 80q53 29 98 28q23 0 10 -12l-143 -192q12 0 45 -4q10 -2 17.5 -6.5t4.5 -10.5q-4 -4 -22 -4q-10 0 -31.5 1t-27.5 1l-60 -82q-16 -23 -88 -41q-8 -2 -14 -2t-7 4t2 12.5t13 22.5q37 55 63 86q-66 0 -86 -2q-33 0 -65 -4
q-14 -2 -14 4zM731 283l-141 -84q-27 -16 -68 -45t-57 -39v-2q61 4 125 4q65 84 141 166zM770 614q49 0 -10 -57q-350 -324 -613 -627q-25 -25 -30 -20q-8 8 12 35q256 332 545 614q55 55 96 55zM336 481q-14 -8 -52 -31.5t-53 -29.5q-57 -27 -65 -8q0 2 1 3t7 4t13.5 6
l21.5 9t29 15q51 25 110 61q59 35 82 35q25 0 -6 -37q-96 -113 -186 -244q-23 -35 -42.5 -45t-84.5 -18q-18 -3 -15.5 5.5t25.5 37.5q154 194 215 237z" />
    <glyph glyph-name="onehalf" unicode="&#xbd;" horiz-adv-x="905" 
d="M547 51q33 4 47 4q20 -2 59 -10t49 -8q41 0 72 41q10 10 17 6q4 -2 -3 -12q-72 -90 -133 -90q-33 0 -77 18q-41 18 -70 18q-39 0 -62 -16q-8 -4 -14 -12l-6 -8q-4 -2 -7 3t-1 13q4 8 18 18l131 66q68 33 119 77t59 81q6 20 -4 32.5t-30 12.5q-39 0 -78 -29
q-35 -27 -39 -51q-4 -18 6 -28.5t29 -6.5q10 4 10 0q2 -4 -8 -8q-16 -8 -35 -6q-39 2 -35 41q8 43 64 77q70 45 131 45q49 2 76.5 -19t19.5 -62q-14 -63 -135 -125q-23 -10 -55.5 -22.5t-67.5 -24zM770 614q51 0 -10 -57q-350 -324 -613 -627q-23 -27 -30 -20q-6 8 12 35
q268 344 545 614q55 55 96 55zM336 481q-14 -8 -52 -31.5t-53 -29.5q-57 -27 -65 -8q0 2 1 3t7 4t13.5 6l21.5 9t29 15q51 25 110 61q59 35 82 35q25 0 -6 -37q-96 -113 -186 -244q-23 -35 -42.5 -45t-84.5 -18q-18 -3 -15.5 5.5t25.5 37.5q154 194 215 237z" />
    <glyph glyph-name="threequarters" unicode="&#xbe;" horiz-adv-x="944" 
d="M324 403q35 4 63 -18q33 -25 16 -68q-14 -49 -88 -79q-68 -29 -135 -29q-45 2 -69.5 17.5t-20.5 47.5q2 20 20.5 39t45.5 19q18 0 29.5 -9.5t9.5 -21.5q-2 -14 -23 -27q-27 -12 -27 -24q-2 -10 7.5 -16.5t25.5 -6.5q80 4 133 103q27 51 -6 57q-10 2 -31 -6q-16 -6 -18 -4
q-4 14 18 20q53 18 89 45t36 52q0 27 -37 26q-34 0 -61 -18q-25 -16 -35 -39q-6 -12 0 -27q6 -8 2 -12q-10 -6 -24 6q-16 14 -11 33q8 27 60 55q53 29 110 29q78 0 78 -45q0 -49 -69 -76q-41 -15 -88 -23zM489 90q0 8 15 16q74 57 149 105q94 57 142 80q53 29 98 28
q23 0 10 -12l-143 -192q14 0 43 -4q12 -2 18 -6.5t4 -10.5q0 -4 -20 -4q-10 0 -31.5 1t-28.5 1l-59 -82q-16 -25 -90 -41q-20 -4 -20 4t16 33q23 37 61 86q-57 0 -84 -2q-29 0 -65 -4q-15 -2 -15 4zM813 283l-141 -84q-27 -16 -69 -45t-58 -39v-2q61 4 125 4
q127 150 143 166zM850 614q49 0 -4 -51l-6 -6q-369 -346 -613 -627q-23 -27 -28 -20q-8 8 10 35q258 332 545 614q55 55 96 55z" />
    <glyph glyph-name="questiondown" unicode="&#xbf;" horiz-adv-x="540" 
d="M-41 -350h-2q-70 0 -105.5 34.5t-25.5 94.5q27 135 250 215q109 39 145 61q49 29 66 60q16 59 37 59q6 0 9 -9t2 -24.5t-9 -29.5q-25 -51 -117 -107q-197 -125 -227 -231q-10 -35 4 -58.5t47 -23.5q61 0 131 49q45 31 64.5 82t0.5 82q-2 4 -6 8t-7 6t-3 4q2 6 23 2
q33 -6 46 -27.5t5 -50.5q-16 -61 -109 -122q-110 -74 -219 -74zM324 223h-2q-31 0 -38.5 19.5t13.5 46.5q23 29 61.5 48t61.5 21q23 -35 2 -88q-16 -47 -98 -47z" />
    <glyph glyph-name="Agrave" unicode="&#xc0;" horiz-adv-x="1460" 
d="M35 115v2q0 57 35.5 94t79.5 39q41 2 64.5 -18.5t21.5 -53.5q0 -31 -50 -67q-35 -27 -34 -52q0 -35 49 -55t141 -12q188 16 414 172q-49 39 -88 102.5t-37 134.5q2 94 70.5 161t177.5 67q154 0 235 -158q41 41 88 82q182 174 314 246q147 78 264 78q80 0 104 -25
q6 -6 10 -12t4 -10.5t-2 -6.5q-2 0 -4 1t-6 5.5t-10 8.5q-16 12 -45 12q-37 0 -66 -23q-74 -57 -168 -192q-188 -262 -380 -576q55 4 118 39q53 27 115 82q25 25 33 19q8 -8 -19 -31q-61 -57 -123 -88q-72 -37 -135 -41q-37 -43 -131 -53q-27 -4 -40 0t-11 12l4 16
q2 6 9 17.5t7 13.5q-61 6 -143 35q-76 31 -125 67q-227 -166 -440 -182q-127 -10 -214 29t-87 121zM1139 199q158 242 252 356q184 233 391 301v2q-117 0 -256 -76q-109 -59 -275 -209l-127 -122q20 -55 25 -123q4 -72 -10 -129zM901 586h-2q-76 0 -119 -55.5t-47 -133.5
q-6 -119 64 -200q43 33 149 122l148 134q-72 133 -193 133zM811 178q31 -37 109 -74q66 -29 135 -38l51 86q25 49 20 163q-4 72 -22 117l-146 -131q-57 -51 -147 -123zM1647 1047q-45 31 -25 69q14 27 34.5 27t39.5 -21q94 -86 162 -137q16 -16 14 -20q-8 -10 -25 -2
q-137 43 -200 84z" />
    <glyph glyph-name="Aacute" unicode="&#xc1;" horiz-adv-x="1460" 
d="M35 115v2q0 57 35.5 94t79.5 39q41 2 64.5 -18.5t21.5 -53.5q0 -31 -50 -67q-35 -27 -34 -52q0 -35 49 -55t141 -12q188 16 414 172q-49 39 -88 102.5t-37 134.5q2 94 70.5 161t177.5 67q154 0 235 -158q41 41 88 82q182 174 314 246q147 78 264 78q80 0 104 -25
q6 -6 10 -12t4 -10.5t-2 -6.5q-2 0 -4 1t-6 5.5t-10 8.5q-16 12 -45 12q-37 0 -66 -23q-74 -57 -168 -192q-188 -262 -380 -576q55 4 118 39q53 27 115 82q25 25 33 19q8 -8 -19 -31q-61 -57 -123 -88q-72 -37 -135 -41q-37 -43 -131 -53q-27 -4 -40 0t-11 12l4 16
q2 6 9 17.5t7 13.5q-61 6 -143 35q-76 31 -125 67q-227 -166 -440 -182q-127 -10 -214 29t-87 121zM1139 199q158 242 252 356q184 233 391 301v2q-117 0 -256 -76q-109 -59 -275 -209l-127 -122q20 -55 25 -123q4 -72 -10 -129zM901 586h-2q-76 0 -119 -55.5t-47 -133.5
q-6 -119 64 -200q43 33 149 122l148 134q-72 133 -193 133zM811 178q31 -37 109 -74q66 -29 135 -38l51 86q25 49 20 163q-4 72 -22 117l-146 -131q-57 -51 -147 -123zM1663 965q-12 4 -10 10q16 8 50 29.5l46 29.5q31 18 143 96q23 12 39 5q10 -4 15.5 -20.5t-2.5 -33.5
q-25 -33 -111 -63q-104 -43 -170 -53z" />
    <glyph glyph-name="Acircumflex" unicode="&#xc2;" horiz-adv-x="1460" 
d="M35 115v2q0 57 35.5 94t79.5 39q41 2 64.5 -18.5t21.5 -53.5q0 -31 -50 -67q-35 -27 -34 -52q0 -35 49 -55t141 -12q188 16 414 172q-49 39 -88 102.5t-37 134.5q2 94 70.5 161t177.5 67q154 0 235 -158q41 41 88 82q182 174 314 246q147 78 264 78q80 0 104 -25
q6 -6 10 -12t4 -10.5t-2 -6.5q-2 0 -4 1t-6 5.5t-10 8.5q-16 12 -45 12q-37 0 -66 -23q-74 -57 -168 -192q-188 -262 -380 -576q55 4 118 39q53 27 115 82q25 25 33 19q8 -8 -19 -31q-61 -57 -123 -88q-72 -37 -135 -41q-37 -43 -131 -53q-27 -4 -40 0t-11 12l4 16
q2 6 9 17.5t7 13.5q-61 6 -143 35q-76 31 -125 67q-227 -166 -440 -182q-127 -10 -214 29t-87 121zM1139 199q158 242 252 356q184 233 391 301v2q-117 0 -256 -76q-109 -59 -275 -209l-127 -122q20 -55 25 -123q4 -72 -10 -129zM901 586h-2q-76 0 -119 -55.5t-47 -133.5
q-6 -119 64 -200q43 33 149 122l148 134q-72 133 -193 133zM811 178q31 -37 109 -74q66 -29 135 -38l51 86q25 49 20 163q-4 72 -22 117l-146 -131q-57 -51 -147 -123zM1571 958q-25 -6 -27 0q-2 4 17 19q127 70 233 151q12 12 23 13q6 0 12 -17q49 -111 74 -143
q9 -15 6 -18q-4 -4 -27 4q-66 39 -100 71q-111 -53 -211 -80z" />
    <glyph glyph-name="Atilde" unicode="&#xc3;" horiz-adv-x="1460" 
d="M35 115v2q0 57 35.5 94t79.5 39q41 2 64.5 -18.5t21.5 -53.5q0 -31 -50 -67q-35 -27 -34 -52q0 -35 49 -55t141 -12q188 16 414 172q-49 39 -88 102.5t-37 134.5q2 94 70.5 161t177.5 67q154 0 235 -158q41 41 88 82q182 174 314 246q147 78 264 78q80 0 104 -25
q6 -6 10 -12t4 -10.5t-2 -6.5q-2 0 -4 1t-6 5.5t-10 8.5q-16 12 -45 12q-37 0 -66 -23q-74 -57 -168 -192q-188 -262 -380 -576q55 4 118 39q53 27 115 82q25 25 33 19q8 -8 -19 -31q-61 -57 -123 -88q-72 -37 -135 -41q-37 -43 -131 -53q-27 -4 -40 0t-11 12l4 16
q2 6 9 17.5t7 13.5q-61 6 -143 35q-76 31 -125 67q-227 -166 -440 -182q-127 -10 -214 29t-87 121zM1139 199q158 242 252 356q184 233 391 301v2q-117 0 -256 -76q-109 -59 -275 -209l-127 -122q20 -55 25 -123q4 -72 -10 -129zM901 586h-2q-76 0 -119 -55.5t-47 -133.5
q-6 -119 64 -200q43 33 149 122l148 134q-72 133 -193 133zM811 178q31 -37 109 -74q66 -29 135 -38l51 86q25 49 20 163q-4 72 -22 117l-146 -131q-57 -51 -147 -123zM1589 977q-10 4 2 24q47 90 125 89q29 -2 69 -24t60 -24q43 -2 84 35q14 14 19 10q6 -2 -2 -20
q-45 -94 -121 -94q-25 0 -68 22.5t-67 24.5q-51 6 -82 -33q-13 -12 -19 -10z" />
    <glyph glyph-name="Adieresis" unicode="&#xc4;" horiz-adv-x="1460" 
d="M35 115v2q0 57 35.5 94t79.5 39q41 2 64.5 -18.5t21.5 -53.5q0 -31 -50 -67q-35 -27 -34 -52q0 -35 49 -55t141 -12q188 16 414 172q-49 39 -88 102.5t-37 134.5q2 94 70.5 161t177.5 67q154 0 235 -158q41 41 88 82q182 174 314 246q147 78 264 78q80 0 104 -25
q6 -6 10 -12t4 -10.5t-2 -6.5q-2 0 -4 1t-6 5.5t-10 8.5q-16 12 -45 12q-37 0 -66 -23q-74 -57 -168 -192q-188 -262 -380 -576q55 4 118 39q53 27 115 82q25 25 33 19q8 -8 -19 -31q-61 -57 -123 -88q-72 -37 -135 -41q-37 -43 -131 -53q-27 -4 -40 0t-11 12l4 16
q2 6 9 17.5t7 13.5q-61 6 -143 35q-76 31 -125 67q-227 -166 -440 -182q-127 -10 -214 29t-87 121zM1139 199q158 242 252 356q184 233 391 301v2q-117 0 -256 -76q-109 -59 -275 -209l-127 -122q20 -55 25 -123q4 -72 -10 -129zM901 586h-2q-76 0 -119 -55.5t-47 -133.5
q-6 -119 64 -200q43 33 149 122l148 134q-72 133 -193 133zM811 178q31 -37 109 -74q66 -29 135 -38l51 86q25 49 20 163q-4 72 -22 117l-146 -131q-57 -51 -147 -123zM1835 975q-20 29 0 78q18 43 90 43q27 0 33 -17.5t-12 -42.5q-20 -27 -54 -44t-57 -17zM1599 975
q-23 27 -2 78q18 43 89 43q27 0 33.5 -17.5t-11.5 -42.5q-23 -27 -57 -44t-52 -17z" />
    <glyph glyph-name="Aring" unicode="&#xc5;" horiz-adv-x="1460" 
d="M35 115v2q0 57 35.5 94t79.5 39q41 2 64.5 -18.5t21.5 -53.5q0 -31 -50 -67q-35 -27 -34 -52q0 -35 49 -55t141 -12q188 16 414 172q-49 39 -88 102.5t-37 134.5q2 94 70.5 161t177.5 67q154 0 235 -158q41 41 88 82q182 174 314 246q147 78 264 78q80 0 104 -25
q6 -6 10 -12t4 -10.5t-2 -6.5q-2 0 -4 1t-6 5.5t-10 8.5q-16 12 -45 12q-37 0 -66 -23q-74 -57 -168 -192q-188 -262 -380 -576q55 4 118 39q53 27 115 82q25 25 33 19q8 -8 -19 -31q-61 -57 -123 -88q-72 -37 -135 -41q-37 -43 -131 -53q-27 -4 -40 0t-11 12l4 16
q2 6 9 17.5t7 13.5q-61 6 -143 35q-76 31 -125 67q-227 -166 -440 -182q-127 -10 -214 29t-87 121zM1139 199q158 242 252 356q184 233 391 301v2q-117 0 -256 -76q-109 -59 -275 -209l-127 -122q20 -55 25 -123q4 -72 -10 -129zM901 586h-2q-76 0 -119 -55.5t-47 -133.5
q-6 -119 64 -200q43 33 149 122l148 134q-72 133 -193 133zM811 178q31 -37 109 -74q66 -29 135 -38l51 86q25 49 20 163q-4 72 -22 117l-146 -131q-57 -51 -147 -123zM1772 965q-43 0 -71 28.5t-28 71.5q0 39 29 69.5t69.5 30.5t70.5 -30.5t30 -69.5q0 -43 -29.5 -71.5
t-70.5 -28.5zM1772 1014q23 0 37 14t14 37q0 20 -14.5 36.5t-37 16.5t-36 -16.5t-13.5 -36.5q1 -51 50 -51z" />
    <glyph glyph-name="AE" unicode="&#xc6;" horiz-adv-x="1927" 
d="M1870 442v2q0 25 -78 29q-68 0 -94 -4q8 -20 34.5 -34.5t55.5 -16.5q82 -5 82 24zM1186 215q35 92 157 164q98 61 246 94q-29 31 -22.5 95.5t55.5 121.5q43 51 120 89t144 50v2q-29 4 -55 5q-137 0 -272 -68q-147 -70 -304 -201q-49 -41 -125 -112q56 -111 56 -240z
M903 586h-2q-76 0 -118 -56.5t-46 -134.5q-6 -125 62 -200q162 133 299 266q-76 125 -195 125zM1167 111q-4 29 4 63q-6 141 -59 262q-109 -102 -299 -260q70 -74 213 -86q78 -6 141 21zM1782 47q-143 -96 -291 -104q-127 -6 -216 30.5t-106 116.5q-55 -27 -143 -22
q-160 8 -248 79q-221 -166 -440 -182q-127 -10 -214 29t-87 121q0 59 34.5 96t80.5 39q41 2 64.5 -17.5t23.5 -54.5q-2 -33 -52 -67q-35 -27 -32 -52q0 -35 48 -55t140 -12q193 16 412 172q-47 33 -85 99.5t-38 137.5q2 100 71.5 164t180.5 64q143 -2 231 -150
q55 53 121 109q158 131 309 203q145 63 281 63q49 0 96 -14q82 12 168 10q102 -4 171 -42t69 -87q0 -74 -98.5 -115t-217.5 -28q-84 6 -117 49q-8 12 -2 14q2 2 5 -2q4 -6 8 -8q39 -33 108 -39q100 -4 176 28.5t76 96.5q0 43 -43 76.5t-129 35.5q-80 0 -162 -41
q-80 -37 -153 -110q-88 -94 -88 -191q43 8 100 5q115 -4 115 -52q0 -41 -113 -41q-141 0 -194 56q-100 -41 -174 -115t-97 -174q-18 -90 31 -140.5t147 -50.5q125 0 273 97q41 27 143 116q20 16 26.5 10.5t-20.5 -30.5q-96 -84 -149 -121z" />
    <glyph glyph-name="Ccedilla" unicode="&#xc7;" horiz-adv-x="835" 
d="M41 143q-4 129 83 259t241 239q-51 61 -52 129q0 84 70 138.5t172 54.5h2q178 0 266 -129q53 12 111 12q102 4 178 -34t66 -120q-6 -66 -77 -113t-157 -67t-170 -20q-217 0 -325 77q-106 -94 -175 -212.5t-69 -213.5q0 -186 201 -178q139 4 290 111q35 23 129 106
q31 27 37 21q6 -8 -24 -35q-96 -88 -140 -119q-162 -111 -321 -121q-66 0 -96 4q-33 -27 -56 -53q12 4 27 4q45 0 68.5 -23.5t19.5 -58.5q-4 -37 -49 -60.5t-105 -21.5q-84 6 -116 52q-20 27 -7 34q2 2 19 -14q41 -31 100 -31q63 4 72 43q6 20 -8.5 35t-40.5 12
q-8 0 -17.5 -3l-12.5 -4t-7 1q-8 4 6 19q27 29 74 71q-199 29 -207 209zM776 512h2q113 0 204 49t105 139q8 66 -33.5 97.5t-119.5 31.5q-59 0 -103 -14q25 -45 29 -113v-23t-1 -19.5t-2 -14.5t-2 -8t-3 -2t-3 6t-2 21.5t-3 29.5q-8 61 -45 113q-78 -25 -176.5 -90.5
t-159.5 -130.5q106 -72 313 -72zM555 934h-2q-90 0 -151.5 -44t-61.5 -120q0 -70 41 -117q195 121 405 172q-33 45 -97 77t-134 32z" />
    <glyph glyph-name="Egrave" unicode="&#xc8;" horiz-adv-x="845" 
d="M469 549v2q0 63 45 121q-86 66 -84 147q4 59 53 96t127 37q154 0 256 -108q90 10 156 8q100 -4 161.5 -42t59.5 -89q-2 -68 -98 -117t-219 -49q-166 0 -291 55q-20 -29 -29 -59q-10 -35 -6 -64q53 6 102 5q115 -4 109 -52q-6 -41 -113 -41q-133 0 -194 56
q-78 -31 -154 -101q-102 -94 -119 -196q-20 -94 31 -144.5t154 -46.5q139 8 284 105q23 16 50.5 38.5l55.5 46l38 31.5q18 18 26 11q6 -6 -22 -31q-74 -70 -148 -121q-162 -109 -323 -121q-164 -10 -246 51.5t-61 180.5q14 82 88.5 149.5t159.5 104.5t176 57q-25 31 -25 80z
M922 575h2q98 0 179 41t83 105q4 43 -35 76.5t-123 36.5q-68 2 -139 -25q27 -45 31 -86q2 -12 3 -22.5t1 -18.5t-1 -14t-3 -8.5t-4.5 -2.5t-2.5 4.5t-3 18.5t-9 33q-10 47 -45 84q-68 -35 -121 -76q-41 -31 -90 -92q109 -54 277 -54zM823 836q-102 98 -215 98
q-70 0 -110.5 -31t-44.5 -84q-4 -74 73 -133q41 51 127 88q76 42 170 62zM604 471q12 -47 96 -51q72 -4 74 26q2 12 -18.5 19.5t-53.5 9.5q-49 4 -98 -4zM911 1047q-45 31 -24 69q14 27 34.5 27t39.5 -21q94 -86 161 -137q16 -16 15 -20q-8 -10 -25 -2q-138 43 -201 84z" />
    <glyph glyph-name="Eacute" unicode="&#xc9;" horiz-adv-x="845" 
d="M469 549v2q0 63 45 121q-86 66 -84 147q4 59 53 96t127 37q154 0 256 -108q90 10 156 8q100 -4 161.5 -42t59.5 -89q-2 -68 -98 -117t-219 -49q-166 0 -291 55q-20 -29 -29 -59q-10 -35 -6 -64q53 6 102 5q115 -4 109 -52q-6 -41 -113 -41q-133 0 -194 56
q-78 -31 -154 -101q-102 -94 -119 -196q-20 -94 31 -144.5t154 -46.5q139 8 284 105q23 16 50.5 38.5l55.5 46l38 31.5q18 18 26 11q6 -6 -22 -31q-74 -70 -148 -121q-162 -109 -323 -121q-164 -10 -246 51.5t-61 180.5q14 82 88.5 149.5t159.5 104.5t176 57q-25 31 -25 80z
M922 575h2q98 0 179 41t83 105q4 43 -35 76.5t-123 36.5q-68 2 -139 -25q27 -45 31 -86q2 -12 3 -22.5t1 -18.5t-1 -14t-3 -8.5t-4.5 -2.5t-2.5 4.5t-3 18.5t-9 33q-10 47 -45 84q-68 -35 -121 -76q-41 -31 -90 -92q109 -54 277 -54zM823 836q-102 98 -215 98
q-70 0 -110.5 -31t-44.5 -84q-4 -74 73 -133q41 51 127 88q76 42 170 62zM604 471q12 -47 96 -51q72 -4 74 26q2 12 -18.5 19.5t-53.5 9.5q-49 4 -98 -4zM944 965q-12 4 -10 10q16 8 50 29.5l46 29.5q31 18 144 96q23 12 38 5q10 -4 15.5 -20.5t-2.5 -33.5q-25 -33 -111 -63
q-104 -43 -170 -53z" />
    <glyph glyph-name="Ecircumflex" unicode="&#xca;" horiz-adv-x="845" 
d="M469 549v2q0 63 45 121q-86 66 -84 147q4 59 53 96t127 37q154 0 256 -108q90 10 156 8q100 -4 161.5 -42t59.5 -89q-2 -68 -98 -117t-219 -49q-166 0 -291 55q-20 -29 -29 -59q-10 -35 -6 -64q53 6 102 5q115 -4 109 -52q-6 -41 -113 -41q-133 0 -194 56
q-78 -31 -154 -101q-102 -94 -119 -196q-20 -94 31 -144.5t154 -46.5q139 8 284 105q23 16 50.5 38.5l55.5 46l38 31.5q18 18 26 11q6 -6 -22 -31q-74 -70 -148 -121q-162 -109 -323 -121q-164 -10 -246 51.5t-61 180.5q14 82 88.5 149.5t159.5 104.5t176 57q-25 31 -25 80z
M922 575h2q98 0 179 41t83 105q4 43 -35 76.5t-123 36.5q-68 2 -139 -25q27 -45 31 -86q2 -12 3 -22.5t1 -18.5t-1 -14t-3 -8.5t-4.5 -2.5t-2.5 4.5t-3 18.5t-9 33q-10 47 -45 84q-68 -35 -121 -76q-41 -31 -90 -92q109 -54 277 -54zM823 836q-102 98 -215 98
q-70 0 -110.5 -31t-44.5 -84q-4 -74 73 -133q41 51 127 88q76 42 170 62zM604 471q12 -47 96 -51q72 -4 74 26q2 12 -18.5 19.5t-53.5 9.5q-49 4 -98 -4zM899 958q-25 -6 -27 0q-2 4 17 19q127 70 233 151q12 12 23 13q6 0 12 -17q49 -111 74 -143q9 -15 6 -18q-4 -4 -27 4
q-66 39 -100 71q-111 -53 -211 -80z" />
    <glyph glyph-name="Edieresis" unicode="&#xcb;" horiz-adv-x="845" 
d="M469 549v2q0 63 45 121q-86 66 -84 147q4 59 53 96t127 37q154 0 256 -108q90 10 156 8q100 -4 161.5 -42t59.5 -89q-2 -68 -98 -117t-219 -49q-166 0 -291 55q-20 -29 -29 -59q-10 -35 -6 -64q53 6 102 5q115 -4 109 -52q-6 -41 -113 -41q-133 0 -194 56
q-78 -31 -154 -101q-102 -94 -119 -196q-20 -94 31 -144.5t154 -46.5q139 8 284 105q23 16 50.5 38.5l55.5 46l38 31.5q18 18 26 11q6 -6 -22 -31q-74 -70 -148 -121q-162 -109 -323 -121q-164 -10 -246 51.5t-61 180.5q14 82 88.5 149.5t159.5 104.5t176 57q-25 31 -25 80z
M922 575h2q98 0 179 41t83 105q4 43 -35 76.5t-123 36.5q-68 2 -139 -25q27 -45 31 -86q2 -12 3 -22.5t1 -18.5t-1 -14t-3 -8.5t-4.5 -2.5t-2.5 4.5t-3 18.5t-9 33q-10 47 -45 84q-68 -35 -121 -76q-41 -31 -90 -92q109 -54 277 -54zM823 836q-102 98 -215 98
q-70 0 -110.5 -31t-44.5 -84q-4 -74 73 -133q41 51 127 88q76 42 170 62zM604 471q12 -47 96 -51q72 -4 74 26q2 12 -18.5 19.5t-53.5 9.5q-49 4 -98 -4zM1137 975q-20 29 0 78q18 43 90 43q27 0 33 -17.5t-13 -42.5q-20 -27 -53.5 -44t-56.5 -17zM901 975q-23 27 -2 78
q18 43 88 43q27 0 34 -17.5t-11 -42.5q-23 -27 -57 -44t-52 -17z" />
    <glyph glyph-name="Igrave" unicode="&#xcc;" horiz-adv-x="989" 
d="M1319 850l-110.5 -22.5t-123.5 -26.5q-166 -39 -297 -113q-55 -31 -93 -75t-38 -87q0 -51 52 -51q29 0 53 17q18 12 20 10q4 -8 -10 -23q-31 -25 -74 -28q-49 -4 -83.5 20.5t-34.5 67.5q0 113 180 192q102 49 321 94q29 6 84.5 16.5t96.5 17.5t57 13q43 14 55 13
q8 0 10 -7.5t-2 -14.5t-12 -11q-88 -35 -194 -186q-29 -41 -89.5 -135.5t-93.5 -137.5q-332 -430 -774 -430q-117 0 -186.5 40t-69.5 118q0 55 38 96t91 41q47 0 67.5 -27.5t14.5 -62.5q-8 -37 -45 -66q-41 -37 -41 -63q0 -25 32 -40t87 -15q297 0 606 411q143 190 213 262
q150 150 293 193zM1145 1047q-45 31 -25 69q14 27 35 27t39 -21q94 -86 162 -137q16 -16 14 -20q-8 -10 -24 -2q-138 43 -201 84z" />
    <glyph glyph-name="Iacute" unicode="&#xcd;" horiz-adv-x="989" 
d="M1319 850l-110.5 -22.5t-123.5 -26.5q-166 -39 -297 -113q-55 -31 -93 -75t-38 -87q0 -51 52 -51q29 0 53 17q18 12 20 10q4 -8 -10 -23q-31 -25 -74 -28q-49 -4 -83.5 20.5t-34.5 67.5q0 113 180 192q102 49 321 94q29 6 84.5 16.5t96.5 17.5t57 13q43 14 55 13
q8 0 10 -7.5t-2 -14.5t-12 -11q-88 -35 -194 -186q-29 -41 -89.5 -135.5t-93.5 -137.5q-332 -430 -774 -430q-117 0 -186.5 40t-69.5 118q0 55 38 96t91 41q47 0 67.5 -27.5t14.5 -62.5q-8 -37 -45 -66q-41 -37 -41 -63q0 -25 32 -40t87 -15q297 0 606 411q143 190 213 262
q150 150 293 193zM1171 965q-12 4 -10 10q16 8 50 29.5l46 29.5q31 18 144 96q23 12 39 5q10 -4 15 -20.5t-3 -33.5q-25 -33 -111 -63q-104 -43 -170 -53z" />
    <glyph glyph-name="Icircumflex" unicode="&#xce;" horiz-adv-x="989" 
d="M1319 850l-110.5 -22.5t-123.5 -26.5q-166 -39 -297 -113q-55 -31 -93 -75t-38 -87q0 -51 52 -51q29 0 53 17q18 12 20 10q4 -8 -10 -23q-31 -25 -74 -28q-49 -4 -83.5 20.5t-34.5 67.5q0 113 180 192q102 49 321 94q29 6 84.5 16.5t96.5 17.5t57 13q43 14 55 13
q8 0 10 -7.5t-2 -14.5t-12 -11q-88 -35 -194 -186q-29 -41 -89.5 -135.5t-93.5 -137.5q-332 -430 -774 -430q-117 0 -186.5 40t-69.5 118q0 55 38 96t91 41q47 0 67.5 -27.5t14.5 -62.5q-8 -37 -45 -66q-41 -37 -41 -63q0 -25 32 -40t87 -15q297 0 606 411q143 190 213 262
q150 150 293 193zM1112 958q-25 -6 -27 0q-2 4 17 19q127 70 233 151q12 12 23 13q6 0 12 -17q49 -111 74 -143q9 -15 6 -18q-4 -4 -27 4q-66 39 -100 71q-111 -53 -211 -80z" />
    <glyph glyph-name="Idieresis" unicode="&#xcf;" horiz-adv-x="989" 
d="M1319 850l-110.5 -22.5t-123.5 -26.5q-166 -39 -297 -113q-55 -31 -93 -75t-38 -87q0 -51 52 -51q29 0 53 17q18 12 20 10q4 -8 -10 -23q-31 -25 -74 -28q-49 -4 -83.5 20.5t-34.5 67.5q0 113 180 192q102 49 321 94q29 6 84.5 16.5t96.5 17.5t57 13q43 14 55 13
q8 0 10 -7.5t-2 -14.5t-12 -11q-88 -35 -194 -186q-29 -41 -89.5 -135.5t-93.5 -137.5q-332 -430 -774 -430q-117 0 -186.5 40t-69.5 118q0 55 38 96t91 41q47 0 67.5 -27.5t14.5 -62.5q-8 -37 -45 -66q-41 -37 -41 -63q0 -25 32 -40t87 -15q297 0 606 411q143 190 213 262
q150 150 293 193zM1421 975q-20 29 0 78q18 43 90 43q27 0 33 -17.5t-12 -42.5q-20 -27 -54 -44t-57 -17zM1186 975q-23 27 -2 78q18 43 88 43q27 0 34 -17.5t-12 -42.5q-23 -27 -56.5 -44t-51.5 -17z" />
    <glyph glyph-name="Eth" unicode="&#xd0;" horiz-adv-x="1490" 
d="M1036 356q37 -2 87.5 -5t64.5 -3q25 -4 24 -10q0 -8 -24 -8q-23 -2 -86.5 -3t-91.5 -1q-184 -215 -488 -303q123 -20 213 -21q164 0 307.5 68.5t233.5 205.5q70 100 74 217t-58 193q-47 -45 -133 -166t-123 -164zM827 319h-39q-16 0 -25 5.5t-7 15.5q0 25 35 25
q8 0 30.5 -1.5t34.5 -1.5l25 25q168 205 372 332q-162 129 -448 129q-242 0 -424 -131t-184 -303q-4 -154 153 -164q160 -8 289 108q113 106 113 199q0 41 -26 66.5t-64 27.5q-72 2 -132 -53q-10 -10 -19 -21.5t-13 -14.5t-6 -3q-2 2 0 8t10 18.5t20 24.5q68 68 150 64
q47 -2 83 -33t38 -84q10 -129 -117 -233q-57 -45 -147.5 -71t-180.5 -22q-113 4 -190.5 55.5t-77.5 141.5q0 178 225 308t500 130q301 0 473 -131q55 35 139 66q115 41 209 41q76 0 119 -33q6 -6 11 -13.5t6 -11.5t-1 -6q-2 0 -3 2t-7 8.5t-16 12.5q-37 20 -103 20
q-88 0 -192 -43q-70 -29 -123 -73q113 -96 143.5 -229.5t-33.5 -244.5q-145 -250 -661 -249q-156 0 -303 16q-78 -14 -230 -14q-23 0 -66 -1q-73 0 -107.5 0.5t-76.5 3.5t-58.5 10t-14.5 19q6 51 299 41q88 0 274 -28q53 14 98.5 39.5t95.5 77t70.5 75.5t79.5 98z" />
    <glyph glyph-name="Ntilde" unicode="&#xd1;" horiz-adv-x="1372" 
d="M-190 98v2q0 59 40.5 96t90.5 37q86 0 86 -69q0 -33 -39 -68q-43 -35 -47 -59q-4 -33 30.5 -51.5t104.5 -18.5q125 0 280.5 63.5t294.5 172.5q293 223 445 510q20 41 59 80q53 49 100 49q23 0 31 -9.5t0 -19.5q-31 -45 -47 -113q-12 -49 -29 -249q-18 -227 -53 -314h2
q205 299 389 506q135 154 249 241t220 85q61 -2 96 -39t31 -90q-4 -23 -10 -23q-2 0 -2 3t-1 9.5t-3 10.5q-20 61 -111 63q-168 8 -446 -285q-193 -201 -479 -614q-29 -45 -64 -33q-47 14 -35 54q47 143 56 329q12 229 34 291h-2q-59 -113 -174.5 -238.5t-242.5 -222.5
q-147 -111 -304 -176t-286 -67q-111 -2 -187.5 36.5t-76.5 120.5zM1411 977q-10 4 2 24q47 90 125 89q29 -2 69 -24t60 -24q43 -2 84 35q14 14 18 10q6 -2 -2 -20q-45 -94 -120 -94q-25 0 -68 22.5t-68 24.5q-51 6 -81 -33q-13 -12 -19 -10z" />
    <glyph glyph-name="Ograve" unicode="&#xd2;" horiz-adv-x="933" 
d="M330 106v-2q0 -47 26 -77q10 -10 9 -13q-4 -8 -17 4q-39 27 -51 91q-8 70 26.5 164t110.5 186q102 129 234.5 203.5t226.5 70.5q106 -6 106 -141q0 -66 -33.5 -155t-95.5 -165q-106 -129 -273 -218t-308 -85q-88 2 -162 40t-92 128q-25 115 37.5 239t158.5 214
q143 137 335 209.5t358 56.5q137 -14 151 -113q6 -59 -35 -100q-20 -25 -28 -16l16 24q31 39 25 90q-6 41 -43 64.5t-86 23.5q-137 4 -292 -90t-263 -207q-94 -102 -152.5 -226t-38.5 -216q18 -98 135 -102q207 -6 467 311q160 201 172 340q4 35 -14 54.5t-47 21.5
q-78 4 -185.5 -71t-209.5 -206q-168 -213 -168 -332zM801 1047q-45 31 -25 69q14 27 34.5 27t39.5 -21q94 -86 162 -137q16 -16 14 -20q-8 -10 -25 -2q-137 43 -200 84z" />
    <glyph glyph-name="Oacute" unicode="&#xd3;" horiz-adv-x="933" 
d="M330 106v-2q0 -47 26 -77q10 -10 9 -13q-4 -8 -17 4q-39 27 -51 91q-8 70 26.5 164t110.5 186q102 129 234.5 203.5t226.5 70.5q106 -6 106 -141q0 -66 -33.5 -155t-95.5 -165q-106 -129 -273 -218t-308 -85q-88 2 -162 40t-92 128q-25 115 37.5 239t158.5 214
q143 137 335 209.5t358 56.5q137 -14 151 -113q6 -59 -35 -100q-20 -25 -28 -16l16 24q31 39 25 90q-6 41 -43 64.5t-86 23.5q-137 4 -292 -90t-263 -207q-94 -102 -152.5 -226t-38.5 -216q18 -98 135 -102q207 -6 467 311q160 201 172 340q4 35 -14 54.5t-47 21.5
q-78 4 -185.5 -71t-209.5 -206q-168 -213 -168 -332zM811 965q-12 4 -10 10q16 8 50 29.5l46 29.5q31 18 143 96q23 12 39 5q10 -4 15.5 -20.5t-2.5 -33.5q-25 -33 -111 -63q-104 -43 -170 -53z" />
    <glyph glyph-name="Ocircumflex" unicode="&#xd4;" horiz-adv-x="933" 
d="M330 106v-2q0 -47 26 -77q10 -10 9 -13q-4 -8 -17 4q-39 27 -51 91q-8 70 26.5 164t110.5 186q102 129 234.5 203.5t226.5 70.5q106 -6 106 -141q0 -66 -33.5 -155t-95.5 -165q-106 -129 -273 -218t-308 -85q-88 2 -162 40t-92 128q-25 115 37.5 239t158.5 214
q143 137 335 209.5t358 56.5q137 -14 151 -113q6 -59 -35 -100q-20 -25 -28 -16l16 24q31 39 25 90q-6 41 -43 64.5t-86 23.5q-137 4 -292 -90t-263 -207q-94 -102 -152.5 -226t-38.5 -216q18 -98 135 -102q207 -6 467 311q160 201 172 340q4 35 -14 54.5t-47 21.5
q-78 4 -185.5 -71t-209.5 -206q-168 -213 -168 -332zM735 958q-25 -6 -26 0q-2 4 16 19q127 70 233 151q12 12 23 13q6 0 12 -17q49 -111 74 -143q9 -15 6 -18q-4 -4 -26 4q-66 39 -101 71q-111 -53 -211 -80z" />
    <glyph glyph-name="Otilde" unicode="&#xd5;" horiz-adv-x="933" 
d="M330 106v-2q0 -47 26 -77q10 -10 9 -13q-4 -8 -17 4q-39 27 -51 91q-8 70 26.5 164t110.5 186q102 129 234.5 203.5t226.5 70.5q106 -6 106 -141q0 -66 -33.5 -155t-95.5 -165q-106 -129 -273 -218t-308 -85q-88 2 -162 40t-92 128q-25 115 37.5 239t158.5 214
q143 137 335 209.5t358 56.5q137 -14 151 -113q6 -59 -35 -100q-20 -25 -28 -16l16 24q31 39 25 90q-6 41 -43 64.5t-86 23.5q-137 4 -292 -90t-263 -207q-94 -102 -152.5 -226t-38.5 -216q18 -98 135 -102q207 -6 467 311q160 201 172 340q4 35 -14 54.5t-47 21.5
q-78 4 -185.5 -71t-209.5 -206q-168 -213 -168 -332zM768 977q-10 4 2 24q47 90 125 89q29 -2 69 -24t60 -24q43 -2 84 35q14 14 18 10q6 -2 -2 -20q-45 -94 -120 -94q-25 0 -68 22.5t-68 24.5q-51 6 -82 -33q-12 -12 -18 -10z" />
    <glyph glyph-name="Odieresis" unicode="&#xd6;" horiz-adv-x="933" 
d="M330 106v-2q0 -47 26 -77q10 -10 9 -13q-4 -8 -17 4q-39 27 -51 91q-8 70 26.5 164t110.5 186q102 129 234.5 203.5t226.5 70.5q106 -6 106 -141q0 -66 -33.5 -155t-95.5 -165q-106 -129 -273 -218t-308 -85q-88 2 -162 40t-92 128q-25 115 37.5 239t158.5 214
q143 137 335 209.5t358 56.5q137 -14 151 -113q6 -59 -35 -100q-20 -25 -28 -16l16 24q31 39 25 90q-6 41 -43 64.5t-86 23.5q-137 4 -292 -90t-263 -207q-94 -102 -152.5 -226t-38.5 -216q18 -98 135 -102q207 -6 467 311q160 201 172 340q4 35 -14 54.5t-47 21.5
q-78 4 -185.5 -71t-209.5 -206q-168 -213 -168 -332zM997 975q-20 29 0 78q18 43 90 43q27 0 33 -17.5t-12 -42.5q-20 -27 -54 -44t-57 -17zM762 975q-23 27 -2 78q18 43 88 43q27 0 34 -17.5t-12 -42.5q-23 -27 -56.5 -44t-51.5 -17z" />
    <glyph glyph-name="multiply" unicode="&#xd7;" horiz-adv-x="643" 
d="M358 295q156 115 199 149q61 47 109 48q45 0 5 -35q-14 -12 -38 -29l-264 -180q25 -98 41 -180q8 -33 -2 -39q-4 -2 -9.5 1t-7.5 8t-6 13l-59 166l-265 -176q-35 -25 -43 -16q-6 10 25 32l268 201l-57 160q-16 43 22 67q35 20 43 -22q2 -10 15.5 -69.5t23.5 -98.5z" />
    <glyph glyph-name="Oslash" unicode="&#xd8;" horiz-adv-x="933" 
d="M979 817l-721 -819q25 -10 57 -10q211 -6 467 311q158 199 185 348q6 41 0 64q-2 16 -9 32q-3 9 -2 9q4 2 8.5 -2.5t10.5 -14.5t12 -24q18 -51 17 -119q-8 -168 -132 -320q-106 -131 -273 -220t-308 -85q-23 0 -55 4l-138 -153q-14 -14 -22 -8t4 22l125 148
q-143 37 -168 157q-23 115 40.5 239t158.5 214q150 137 334 207.5t352 58.5q25 0 32 -4l111 129q27 27 45 18q16 -8 -6 -38l-107 -121q78 -33 80 -97q6 -53 -33 -100q-23 -27 -28 -16l16 24q31 43 23 90q-2 51 -76 76zM231 10l707 817q-4 2 -14 2q-133 2 -291 -92t-260 -205
q-96 -100 -153.5 -225t-37.5 -217q10 -49 49 -80z" />
    <glyph glyph-name="Ugrave" unicode="&#xd9;" horiz-adv-x="1200" 
d="M874 274q-106 -104 -243 -198t-242 -94q-59 0 -84.5 21.5t-23.5 64.5q2 100 251 378q193 219 218 314q10 43 -13.5 62.5t-60.5 19.5q-178 0 -361 -178q-164 -160 -163 -267q0 -82 73 -84q37 -2 74 21l15.5 12t10.5 8t5 0q4 -2 -4.5 -13t-20.5 -19q-37 -29 -86 -27
q-90 6 -106 100q-12 70 31.5 159t123.5 157q90 76 204 113.5t212 37.5q88 0 141.5 -30.5t53.5 -88.5q0 -43 -33 -101t-67 -100l-99 -120q-242 -276 -254 -354q-6 -41 33 -41q76 0 215 104q152 111 299 287q176 205 352 344q145 115 225 104q27 -6 24 -32.5t-34 -59.5
q-49 -53 -154 -129q-121 -88 -186 -143l-17 -21.5l-19.5 -24t-16.5 -20.5q-213 -281 -219 -356q-6 -37 20 -43q47 -6 127 53q45 31 117 94q25 20 31 14.5t-17 -26.5q-47 -45 -123 -102q-113 -88 -204 -88q-49 -2 -76 21.5t-27 64.5q0 77 98 206zM1251 567l123 88
q72 49 133 111q20 23 31.5 40t12.5 26.5t-5 13.5q-29 12 -110 -78zM1034 1022q-45 31 -24 70q14 27 34.5 26.5t38.5 -20.5q94 -86 162 -137q16 -16 15 -21q-8 -10 -25 -2q-138 43 -201 84z" />
    <glyph glyph-name="Uacute" unicode="&#xda;" horiz-adv-x="1200" 
d="M874 274q-106 -104 -243 -198t-242 -94q-59 0 -84.5 21.5t-23.5 64.5q2 100 251 378q193 219 218 314q10 43 -13.5 62.5t-60.5 19.5q-178 0 -361 -178q-164 -160 -163 -267q0 -82 73 -84q37 -2 74 21l15.5 12t10.5 8t5 0q4 -2 -4.5 -13t-20.5 -19q-37 -29 -86 -27
q-90 6 -106 100q-12 70 31.5 159t123.5 157q90 76 204 113.5t212 37.5q88 0 141.5 -30.5t53.5 -88.5q0 -43 -33 -101t-67 -100l-99 -120q-242 -276 -254 -354q-6 -41 33 -41q76 0 215 104q152 111 299 287q176 205 352 344q145 115 225 104q27 -6 24 -32.5t-34 -59.5
q-49 -53 -154 -129q-121 -88 -186 -143l-17 -21.5l-19.5 -24t-16.5 -20.5q-213 -281 -219 -356q-6 -37 20 -43q47 -6 127 53q45 31 117 94q25 20 31 14.5t-17 -26.5q-47 -45 -123 -102q-113 -88 -204 -88q-49 -2 -76 21.5t-27 64.5q0 77 98 206zM1251 567l123 88
q72 49 133 111q20 23 31.5 40t12.5 26.5t-5 13.5q-29 12 -110 -78zM1106 940q-12 4 -10 10q16 8 50 29.5t46 30.5q31 18 143 96q23 12 39 4q10 -4 15.5 -20.5t-3.5 -32.5q-25 -33 -110 -64q-104 -43 -170 -53z" />
    <glyph glyph-name="Ucircumflex" unicode="&#xdb;" horiz-adv-x="1200" 
d="M874 274q-106 -104 -243 -198t-242 -94q-59 0 -84.5 21.5t-23.5 64.5q2 100 251 378q193 219 218 314q10 43 -13.5 62.5t-60.5 19.5q-178 0 -361 -178q-164 -160 -163 -267q0 -82 73 -84q37 -2 74 21l15.5 12t10.5 8t5 0q4 -2 -4.5 -13t-20.5 -19q-37 -29 -86 -27
q-90 6 -106 100q-12 70 31.5 159t123.5 157q90 76 204 113.5t212 37.5q88 0 141.5 -30.5t53.5 -88.5q0 -43 -33 -101t-67 -100l-99 -120q-242 -276 -254 -354q-6 -41 33 -41q76 0 215 104q152 111 299 287q176 205 352 344q145 115 225 104q27 -6 24 -32.5t-34 -59.5
q-49 -53 -154 -129q-121 -88 -186 -143l-17 -21.5l-19.5 -24t-16.5 -20.5q-213 -281 -219 -356q-6 -37 20 -43q47 -6 127 53q45 31 117 94q25 20 31 14.5t-17 -26.5q-47 -45 -123 -102q-113 -88 -204 -88q-49 -2 -76 21.5t-27 64.5q0 77 98 206zM1251 567l123 88
q72 49 133 111q20 23 31.5 40t12.5 26.5t-5 13.5q-29 12 -110 -78zM1034 958q-25 -6 -26 0q-2 4 16 19q127 70 233 151q12 12 23 13q6 0 12 -17q49 -111 74 -143q9 -15 6 -18q-4 -4 -26 4q-66 39 -101 71q-111 -53 -211 -80z" />
    <glyph glyph-name="Udieresis" unicode="&#xdc;" horiz-adv-x="1200" 
d="M874 274q-106 -104 -243 -198t-242 -94q-59 0 -84.5 21.5t-23.5 64.5q2 100 251 378q193 219 218 314q10 43 -13.5 62.5t-60.5 19.5q-178 0 -361 -178q-164 -160 -163 -267q0 -82 73 -84q37 -2 74 21l15.5 12t10.5 8t5 0q4 -2 -4.5 -13t-20.5 -19q-37 -29 -86 -27
q-90 6 -106 100q-12 70 31.5 159t123.5 157q90 76 204 113.5t212 37.5q88 0 141.5 -30.5t53.5 -88.5q0 -43 -33 -101t-67 -100l-99 -120q-242 -276 -254 -354q-6 -41 33 -41q76 0 215 104q152 111 299 287q176 205 352 344q145 115 225 104q27 -6 24 -32.5t-34 -59.5
q-49 -53 -154 -129q-121 -88 -186 -143l-17 -21.5l-19.5 -24t-16.5 -20.5q-213 -281 -219 -356q-6 -37 20 -43q47 -6 127 53q45 31 117 94q25 20 31 14.5t-17 -26.5q-47 -45 -123 -102q-113 -88 -204 -88q-49 -2 -76 21.5t-27 64.5q0 77 98 206zM1251 567l123 88
q72 49 133 111q20 23 31.5 40t12.5 26.5t-5 13.5q-29 12 -110 -78zM1255 975q-20 29 0 78q18 43 91 43q27 0 32.5 -17.5t-12.5 -42.5q-20 -27 -54 -44t-57 -17zM1020 975q-23 27 -2 78q18 43 88 43q27 0 34 -17.5t-12 -42.5q-23 -27 -56.5 -44t-51.5 -17z" />
    <glyph glyph-name="Yacute" unicode="&#xdd;" horiz-adv-x="1110" 
d="M895 295q-119 -119 -259 -216t-247 -97q-59 0 -84.5 21.5t-23.5 64.5q2 100 251 378q193 219 218 314q10 43 -13.5 63.5t-60.5 20.5q-176 0 -361 -180q-164 -160 -163 -267q0 -84 71 -86q39 0 76 23q6 4 13 11t11.5 9t6.5 0q8 -8 -25 -32q-39 -27 -84 -27
q-43 0 -72.5 27.5t-35.5 72.5q-10 72 31.5 162t117.5 156q88 76 204 113.5t218 37.5q88 0 142.5 -31.5t52.5 -89.5q-2 -61 -52.5 -134.5t-146.5 -186.5q-242 -276 -254 -354q-6 -41 33 -41q76 0 215 104q152 111 299 287q213 246 321 348q125 113 209 100q20 -2 27.5 -16
t3.5 -32.5t-21 -39.5q-41 -53 -139 -133q-123 -102 -166 -143l-266 -365l-178 -252q156 4 238.5 -64.5t64.5 -182.5q-2 -14 -6 -23.5t-8 -15t-9 -2.5l5 38q12 111 -68 174.5t-231 55.5q-100 -143 -218 -277q-135 -154 -290.5 -243.5t-253.5 -89.5q-43 0 -71 19t-23 67
q6 82 99 183t204 177q186 127 399 170zM1255 569l105 86q82 68 117 111q55 66 28 80q-25 14 -98 -78zM580 -154q-190 -45 -363 -163q-88 -61 -171 -165t-87 -182q-2 -49 39 -57q53 -8 131 39q117 74 262 270zM1059 965q-12 4 -10 10q16 8 50 29.5l46 29.5q31 18 143 96
q23 12 39 5q10 -4 15.5 -20.5t-3.5 -33.5q-25 -33 -110 -63q-104 -43 -170 -53z" />
    <glyph glyph-name="Thorn" unicode="&#xde;" horiz-adv-x="1275" 
d="M403 201q-186 -115 -329 -234q-168 -141 -168 -194q0 -29 33 -25q155 11 464 453zM999 739q90 20 148 43q57 20 110.5 52t55.5 65q2 23 -11.5 33t-39.5 10q-61 -2 -168 -102q-12 -10 -27.5 -26.5l-35.5 -39.5t-32 -35zM776 473q203 178 324 178q53 0 93 -34.5t38 -108.5
q-2 -96 -101 -211q-111 -131 -275.5 -206t-270.5 -60q-29 2 -49.5 11t-26.5 18.5t-2 15.5q2 2 8 -3t23.5 -12.5t42.5 -9.5q80 -8 202.5 82t229.5 221q161 197 109 257q-12 14 -36 16q-106 4 -368 -228q-229 -305 -436 -487q-90 -80 -182.5 -133t-153.5 -60q-66 -4 -66 50
q-2 66 178 213q139 117 369 256q119 162 121 165q160 197 252 281v2q-100 -16 -172 -18q-117 -2 -187.5 24.5t-68.5 89.5q2 49 48 82t99 41q55 10 55 -4q0 -2 -6 -2t-18 -2t-25 -6q-88 -33 -88 -109q2 -100 191 -96q100 4 192 23q82 78 170 139q156 113 273 113
q35 0 54 -17.5t17 -46.5q-10 -74 -186 -135q-37 -14 -168 -49l-111 -130.5t-92 -109.5z" />
    <glyph glyph-name="germandbls" unicode="&#xdf;" horiz-adv-x="794" 
d="M569 47q45 14 115 59q61 39 111 84q23 23 30 15q4 -8 -12 -25q-51 -47 -115 -90q-66 -43 -135 -67q-104 -41 -213 -41q-76 0 -110.5 36.5t-26.5 83.5q8 49 44 82t77 29q25 -2 37 -17.5t8 -31.5q-4 -23 -45 -51q-43 -31 -47 -60q-2 -25 11 -38t38 -13q78 0 131 100
q55 102 29 201q-2 10 -13.5 43t-15.5 49.5t-1 40t17 41.5q23 25 108 58.5t128 60.5q113 72 137 170q6 27 -6 45t-39 20q-104 8 -246 -153q-29 -35 -225 -318q-207 -293 -281 -385q-238 -295 -475 -299q-76 0 -121 26t-49 58q-4 29 13.5 49.5t46.5 20.5q47 0 65 -68
q18 -66 55 -65q72 0 144 62.5t186 222.5l195 286v2q-53 -43 -103 -92q-20 -18 -28 -10q-4 6 14 25l168 149q166 231 199 268q119 135 236.5 191.5t211.5 48.5q59 -4 89 -46t14 -91q-23 -74 -134 -135q-39 -23 -105.5 -42.5t-114.5 -36t-58 -32.5q-12 -18 3 -47t50 -66
t43 -51q66 -88 29 -180q-19 -45 -64 -76z" />
    <glyph glyph-name="agrave" unicode="&#xe0;" horiz-adv-x="686" 
d="M416 731h2q31 0 37 -41q25 -92 51 -162q6 -23 2 -24q-8 -8 -23 10q-86 92 -112 139q-10 14 -11 31q0 20 18 33.5t36 13.5zM457 287q39 43 60.5 53t70.5 10q55 0 55 -14q0 -7 -10 -19l-111 -135q-59 -78 -69 -100q-16 -31 -2 -41q12 -10 49 6q29 12 88 59q53 43 100 87
q23 16 27 12q6 -6 -21 -33q-68 -63 -121 -104q-111 -86 -194 -86q-72 0 -82 49q-6 35 22 71l-2 2q-139 -123 -249 -122q-53 -2 -83 17t-28 62q4 53 63 117l-2 2q-10 -10 -22 -18q-20 -18 -27 -12q-4 8 19 30q39 35 73 58q53 39 129 71q117 51 201 47q39 -2 55.5 -22
t10.5 -47zM401 334h-2q-53 0 -190 -133q-119 -119 -113 -162q2 -20 27 -21q29 0 79 29t93 68q51 45 96 102t47 80q2 37 -37 37z" />
    <glyph glyph-name="aacute" unicode="&#xe1;" horiz-adv-x="686" 
d="M616 723q31 0 39 -18q16 -35 -18 -70q-53 -53 -174 -125q-20 -10 -27 -4q-4 4 13 24q16 18 120 154q22 37 47 39zM457 287q39 43 60.5 53t70.5 10q55 0 55 -14q0 -7 -10 -19l-111 -135q-59 -78 -69 -100q-16 -31 -2 -41q12 -10 49 6q29 12 88 59q53 43 100 87
q23 16 27 12q6 -6 -21 -33q-68 -63 -121 -104q-111 -86 -194 -86q-72 0 -82 49q-6 35 22 71l-2 2q-139 -123 -249 -122q-53 -2 -83 17t-28 62q4 53 63 117l-2 2q-10 -10 -22 -18q-20 -18 -27 -12q-4 8 19 30q39 35 73 58q53 39 129 71q117 51 201 47q39 -2 55.5 -22
t10.5 -47zM401 334h-2q-53 0 -190 -133q-119 -119 -113 -162q2 -20 27 -21q29 0 79 29t93 68q51 45 96 102t47 80q2 37 -37 37z" />
    <glyph glyph-name="acircumflex" unicode="&#xe2;" horiz-adv-x="686" 
d="M559 670q8 -2 12 -17q35 -90 74 -149q8 -12 6 -17q-4 -4 -26 5q-59 29 -103 75q-88 -47 -217 -84q-25 -10 -26 0q-2 4 14 17q158 92 242 159q12 13 24 11zM457 287q39 43 60.5 53t70.5 10q55 0 55 -14q0 -7 -10 -19l-111 -135q-59 -78 -69 -100q-16 -31 -2 -41
q12 -10 49 6q29 12 88 59q53 43 100 87q23 16 27 12q6 -6 -21 -33q-68 -63 -121 -104q-111 -86 -194 -86q-72 0 -82 49q-6 35 22 71l-2 2q-139 -123 -249 -122q-53 -2 -83 17t-28 62q4 53 63 117l-2 2q-10 -10 -22 -18q-20 -18 -27 -12q-4 8 19 30q39 35 73 58q53 39 129 71
q117 51 201 47q39 -2 55.5 -22t10.5 -47zM401 334h-2q-53 0 -190 -133q-119 -119 -113 -162q2 -20 27 -21q29 0 79 29t93 68q51 45 96 102t47 80q2 37 -37 37z" />
    <glyph glyph-name="atilde" unicode="&#xe3;" horiz-adv-x="686" 
d="M549 504h-2q-27 0 -71 26.5t-68 28.5q-45 2 -82 -39q-12 -14 -19 -12q-10 4 0 24q23 41 57.5 71t73.5 28q31 -2 70 -27.5t61 -28.5q43 -2 82 41q12 14 21 13q10 -4 -2 -25q-18 -35 -52 -67.5t-69 -32.5zM457 287q39 43 60.5 53t70.5 10q55 0 55 -14q0 -7 -10 -19
l-111 -135q-59 -78 -69 -100q-16 -31 -2 -41q12 -10 49 6q29 12 88 59q53 43 100 87q23 16 27 12q6 -6 -21 -33q-68 -63 -121 -104q-111 -86 -194 -86q-72 0 -82 49q-6 35 22 71l-2 2q-139 -123 -249 -122q-53 -2 -83 17t-28 62q4 53 63 117l-2 2q-10 -10 -22 -18
q-20 -18 -27 -12q-4 8 19 30q39 35 73 58q53 39 129 71q117 51 201 47q39 -2 55.5 -22t10.5 -47zM401 334h-2q-53 0 -190 -133q-119 -119 -113 -162q2 -20 27 -21q29 0 79 29t93 68q51 45 96 102t47 80q2 37 -37 37z" />
    <glyph glyph-name="adieresis" unicode="&#xe4;" horiz-adv-x="686" 
d="M449 637h2q29 0 37 -17.5t-13 -41.5q-45 -53 -117 -68q-18 31 0 82q15 45 91 45zM668 637h2q29 0 36 -17.5t-14 -41.5q-45 -53 -114 -68q-18 33 -3 82q15 45 93 45zM457 287q39 43 60.5 53t70.5 10q55 0 55 -14q0 -7 -10 -19l-111 -135q-59 -78 -69 -100q-16 -31 -2 -41
q12 -10 49 6q29 12 88 59q53 43 100 87q23 16 27 12q6 -6 -21 -33q-68 -63 -121 -104q-111 -86 -194 -86q-72 0 -82 49q-6 35 22 71l-2 2q-139 -123 -249 -122q-53 -2 -83 17t-28 62q4 53 63 117l-2 2q-10 -10 -22 -18q-20 -18 -27 -12q-4 8 19 30q39 35 73 58q53 39 129 71
q117 51 201 47q39 -2 55.5 -22t10.5 -47zM401 334h-2q-53 0 -190 -133q-119 -119 -113 -162q2 -20 27 -21q29 0 79 29t93 68q51 45 96 102t47 80q2 37 -37 37z" />
    <glyph glyph-name="aring" unicode="&#xe5;" horiz-adv-x="686" 
d="M508 707h2q41 0 72.5 -32t31.5 -75t-31.5 -72.5t-74.5 -29.5t-74 29.5t-31 72.5t31 75t74 32zM508 659h-2q-23 0 -39 -17t-16 -42t16 -41t41 -16q27 0 43 16t16 41t-16 42t-43 17zM457 287q39 43 60.5 53t70.5 10q55 0 55 -14q0 -7 -10 -19l-111 -135q-59 -78 -69 -100
q-16 -31 -2 -41q12 -10 49 6q29 12 88 59q53 43 100 87q23 16 27 12q6 -6 -21 -33q-68 -63 -121 -104q-111 -86 -194 -86q-72 0 -82 49q-6 35 22 71l-2 2q-139 -123 -249 -122q-53 -2 -83 17t-28 62q4 53 63 117l-2 2q-10 -10 -22 -18q-20 -18 -27 -12q-4 8 19 30
q39 35 73 58q53 39 129 71q117 51 201 47q39 -2 55.5 -22t10.5 -47zM401 334h-2q-53 0 -190 -133q-119 -119 -113 -162q2 -20 27 -21q29 0 79 29t93 68q51 45 96 102t47 80q2 37 -37 37z" />
    <glyph glyph-name="ae" unicode="&#xe6;" horiz-adv-x="825" 
d="M508 18q82 0 197 76q66 45 118 94q20 16 26.5 10.5t-20.5 -30.5q-90 -76 -118 -96q-127 -86 -250 -90q-80 -2 -117 21.5t-35 62.5q0 27 10 38l-2 2q-133 -123 -249 -124q-53 -2 -83 17t-28 62q4 53 63 117l-2 2q-8 -8 -20 -16q-23 -20 -29 -14q-4 8 15 26q37 37 75 60
q61 45 131 73q72 33 179 47q82 10 86 -10q0 -4 -7.5 -6l-23.5 -6t-29 -8q-86 -27 -186 -125q-119 -119 -113 -162q2 -20 27 -21q29 0 79 29t93 68l77 75.5t84 91t60 66.5q18 20 43 21q37 0 43 -3.5t-2 -19.5q-25 -31 -29 -35q84 47 150 47q45 0 67.5 -17t20.5 -44
q-4 -63 -135 -127q-82 -39 -201 -64q-12 -18 -12 -45q0 -43 47 -43zM483 127q70 12 142 63q82 59 90 115q6 31 -23 31q-37 0 -108 -78q-64 -63 -101 -131z" />
    <glyph glyph-name="ccedilla" unicode="&#xe7;" horiz-adv-x="485" 
d="M117 -18h-6q-33 -20 -54 -52q12 4 27 4q45 0 68.5 -20t19.5 -59t-47 -62.5t-107 -21.5q-82 2 -116 51q-20 27 -6 35q4 2 9 -5q5 -5 9 -10q33 -33 100 -32h2q29 0 50.5 12t23.5 33q4 23 -9 37t-44 12q-10 0 -18.5 -4t-11.5 -5t-7 1q-8 4 6 18q31 35 72 70q-41 4 -71 25.5
t-32 64.5q0 55 54 112l-2 2q-6 -4 -27 -24q-25 -20 -31 -14q-4 8 13 24q37 35 71 57q59 43 103 64q133 68 217 61q45 -2 65.5 -24.5t14.5 -52.5q-4 -27 -27 -48.5t-43 -21.5q-51 0 -16 59q39 61 6 68q-35 10 -127 -86q-104 -104 -115 -182q-6 -47 47 -48q76 0 189 74
q27 18 118 94q18 16 24.5 10.5t-20.5 -30.5q-63 -57 -114 -92q-137 -94 -258 -94z" />
    <glyph glyph-name="egrave" unicode="&#xe8;" horiz-adv-x="485" 
d="M367 725h2q31 0 37 -41q25 -92 51 -162q6 -23 2 -24q-8 -8 -23 10q-86 92 -112 139q-10 16 -11 31q0 20 18 33.5t36 13.5zM170 16q76 0 195 78q68 47 122 99q16 12 23 6q6 -8 -23 -33q-57 -53 -120 -94q-127 -86 -248 -90q-147 -6 -144 92q0 53 54 112l-2 2
q-2 -4 -14.5 -14t-14.5 -12q-23 -18 -29 -12q-4 8 13 24q31 29 69 57q41 31 105 64q127 63 223 63h2q92 0 88 -61q-4 -63 -135 -127q-82 -39 -201 -64q-12 -18 -12 -45q0 -45 49 -45zM143 127q70 12 142 63q82 59 90 115q6 31 -23 31q-39 0 -110 -78q-66 -74 -99 -131z" />
    <glyph glyph-name="eacute" unicode="&#xe9;" horiz-adv-x="485" 
d="M549 723q31 0 39 -18q16 -35 -19 -70q-53 -53 -174 -125q-20 -10 -26 -4q-4 4 12 24q16 18 121 154q22 37 47 39zM170 16q76 0 195 78q68 47 122 99q16 12 23 6q6 -8 -23 -33q-57 -53 -120 -94q-127 -86 -248 -90q-147 -6 -144 92q0 53 54 112l-2 2q-2 -4 -14.5 -14
t-14.5 -12q-23 -18 -29 -12q-4 8 13 24q31 29 69 57q41 31 105 64q127 63 223 63h2q92 0 88 -61q-4 -63 -135 -127q-82 -39 -201 -64q-12 -18 -12 -45q0 -45 49 -45zM143 127q70 12 142 63q82 59 90 115q6 31 -23 31q-39 0 -110 -78q-66 -74 -99 -131z" />
    <glyph glyph-name="ecircumflex" unicode="&#xea;" horiz-adv-x="485" 
d="M510 670q8 -2 12 -17q35 -90 74 -149q8 -12 6 -17q-4 -4 -27 5q-59 29 -102 75q-88 -47 -217 -84q-25 -10 -27 0q-2 4 15 17q158 92 241 159q13 13 25 11zM170 16q76 0 195 78q68 47 122 99q16 12 23 6q6 -8 -23 -33q-57 -53 -120 -94q-127 -86 -248 -90q-147 -6 -144 92
q0 53 54 112l-2 2q-2 -4 -14.5 -14t-14.5 -12q-23 -18 -29 -12q-4 8 13 24q31 29 69 57q41 31 105 64q127 63 223 63h2q92 0 88 -61q-4 -63 -135 -127q-82 -39 -201 -64q-12 -18 -12 -45q0 -45 49 -45zM143 127q70 12 142 63q82 59 90 115q6 31 -23 31q-39 0 -110 -78
q-66 -74 -99 -131z" />
    <glyph glyph-name="edieresis" unicode="&#xeb;" horiz-adv-x="485" 
d="M356 637h2q29 0 37 -17.5t-12 -41.5q-45 -53 -117 -68q-18 31 0 82q14 45 90 45zM575 637h3q29 0 36 -17.5t-14 -41.5q-45 -53 -115 -68q-18 33 -2 82q14 45 92 45zM170 16q76 0 195 78q68 47 122 99q16 12 23 6q6 -8 -23 -33q-57 -53 -120 -94q-127 -86 -248 -90
q-147 -6 -144 92q0 53 54 112l-2 2q-2 -4 -14.5 -14t-14.5 -12q-23 -18 -29 -12q-4 8 13 24q31 29 69 57q41 31 105 64q127 63 223 63h2q92 0 88 -61q-4 -63 -135 -127q-82 -39 -201 -64q-12 -18 -12 -45q0 -45 49 -45zM143 127q70 12 142 63q82 59 90 115q6 31 -23 31
q-39 0 -110 -78q-66 -74 -99 -131z" />
    <glyph glyph-name="igrave" unicode="&#xec;" horiz-adv-x="395" 
d="M305 717h2q31 0 37 -41q25 -92 51 -162q6 -23 2 -25q-8 -8 -22 11q-86 92 -113 139q-10 16 -10 31q0 20 17.5 33.5t35.5 13.5zM199 307q-41 -14 -117 -74l-82 -69q-20 -18 -29 -12q-6 6 17 28q82 74 147 115q80 55 164 55q66 0 67 -13q1 -7 -12 -20q-76 -86 -114 -135
q-45 -57 -70 -100q-18 -37 -6 -45t45 8q35 16 90 61l96 82q23 20 29 14.5t-18 -28.5q-53 -55 -119 -104q-117 -88 -205 -88q-80 0 -80 57q0 33 29 78q29 47 86 110.5t82 79.5z" />
    <glyph glyph-name="iacute" unicode="&#xed;" horiz-adv-x="395" 
d="M492 723q31 0 38 -18q16 -35 -18 -70q-53 -53 -174 -125q-20 -10 -27 -4q-4 4 13 24q16 18 120 154q23 37 48 39zM199 307q-41 -14 -117 -74l-82 -69q-20 -18 -29 -12q-6 6 17 28q82 74 147 115q80 55 164 55q66 0 67 -13q1 -7 -12 -20q-76 -86 -114 -135
q-45 -57 -70 -100q-18 -37 -6 -45t45 8q35 16 90 61l96 82q23 20 29 14.5t-18 -28.5q-53 -55 -119 -104q-117 -88 -205 -88q-80 0 -80 57q0 33 29 78q29 47 86 110.5t82 79.5z" />
    <glyph glyph-name="icircumflex" unicode="&#xee;" horiz-adv-x="395" 
d="M426 670q8 -2 12 -17q35 -90 74 -149q8 -12 6 -17q-4 -4 -26 5q-59 29 -103 75q-88 -47 -217 -84q-25 -10 -27 0q-2 4 15 17q160 92 241 159q13 13 25 11zM199 307q-41 -14 -117 -74l-82 -69q-20 -18 -29 -12q-6 6 17 28q82 74 147 115q80 55 164 55q66 0 67 -13
q1 -7 -12 -20q-76 -86 -114 -135q-45 -57 -70 -100q-18 -37 -6 -45t45 8q35 16 90 61l96 82q23 20 29 14.5t-18 -28.5q-53 -55 -119 -104q-117 -88 -205 -88q-80 0 -80 57q0 33 29 78q29 47 86 110.5t82 79.5z" />
    <glyph glyph-name="idieresis" unicode="&#xef;" horiz-adv-x="395" 
d="M305 637h2q29 0 37 -17.5t-12 -41.5q-45 -53 -117 -68q-18 31 0 82q14 45 90 45zM524 637h2q29 0 36 -17.5t-13 -41.5q-45 -53 -115 -68q-18 33 -2 82q14 45 92 45zM199 307q-41 -14 -117 -74l-82 -69q-20 -18 -29 -12q-6 6 17 28q82 74 147 115q80 55 164 55
q66 0 67 -13q1 -7 -12 -20q-76 -86 -114 -135q-45 -57 -70 -100q-18 -37 -6 -45t45 8q35 16 90 61l96 82q23 20 29 14.5t-18 -28.5q-53 -55 -119 -104q-117 -88 -205 -88q-80 0 -80 57q0 33 29 78q29 47 86 110.5t82 79.5z" />
    <glyph glyph-name="eth" unicode="&#xf0;" horiz-adv-x="618" 
d="M147 4q31 0 83.5 38t95.5 85q88 96 96 164q4 29 -21 31q-49 6 -165 -105q-43 -41 -78 -95t-39 -85q-5 -33 28 -33zM373 356h10q39 -2 53.5 -26.5t7.5 -53.5q25 33 47.5 100.5t24.5 123.5q0 25 -2 35l-184 -62q-25 -10 -27 0q-2 8 21 23l182 77q-31 141 -156 148h-23.5
h-14.5t-5 2q-2 6 9.5 11t33.5 7q78 4 148.5 -26.5t109.5 -98.5q78 31 105 41q37 12 47 -12q6 -20 -35 -37q-66 -25 -98 -35q10 -37 14 -84q4 -231 -207 -401q-131 -106 -303 -106q-141 0 -141 98q-4 61 51 117l-2 2q-20 -16 -35 -31q-27 -23 -33 -16q-4 4 13 24q18 18 67 55
q45 31 86 54q130 71 236 71z" />
    <glyph glyph-name="ntilde" unicode="&#xf1;" horiz-adv-x="833" 
d="M633 504h-2q-27 0 -71 26.5t-68 28.5q-45 2 -82 -39q-12 -14 -19 -12q-10 4 0 24q23 41 57.5 71t73.5 28q31 -2 70 -27.5t61 -28.5q43 -2 82 41q12 14 21 13q10 -4 -2 -25q-18 -35 -52 -67.5t-69 -32.5zM526 -14q-53 -2 -73.5 19.5t-14.5 53.5q4 39 74 125q47 53 84 101
q16 20 -2 26q-16 8 -59 -14q-61 -31 -152 -98l-233 -183q-27 -23 -87 -24q-41 -2 -50 5t-1 28q33 63 94 137l87 110q16 23 6 31q-8 8 -31 -6q-39 -23 -76 -53q-57 -45 -90 -78q-27 -25 -35 -16q-4 8 21 28q51 51 106 94q109 84 182 84q72 0 72 -51q0 -33 -45 -90l-94 -121
l4 -2q86 72 193 150q156 115 256 114q86 0 79 -61q-2 -33 -75 -125q-49 -61 -64 -84q-20 -35 -6 -47q16 -10 51 10q51 25 88 57l103 87q18 16 24 10t-10 -21q-66 -68 -131 -112q-115 -84 -195 -84z" />
    <glyph glyph-name="ograve" unicode="&#xf2;" horiz-adv-x="600" 
d="M416 725h2q31 0 37 -41q25 -92 51 -162q6 -23 2 -24q-8 -8 -23 10q-86 92 -112 139q-10 16 -11 31q0 20 18 33.5t36 13.5zM39 199q-20 -16 -35 -31q-27 -23 -33 -16q-4 4 13 24q18 18 67 55q45 31 86 54q129 72 228 71q47 0 47 -12l-29 -14q-61 -29 -147 -113
q-45 -45 -81 -99.5t-36 -86.5q-4 -29 26 -29q35 0 92.5 38t108.5 91q0 45 33 92q20 31 67 62v34l-5 14.5t-3 9.5t2 5q14 8 45 -14q37 -27 37 -72q-4 -78 -116 -174q6 -4 28 -4q35 2 78 33q31 23 88 73q18 18 27 13q10 -6 -11 -23q-55 -51 -96 -80q-47 -35 -88 -37
q-31 0 -45 11q-43 -33 -120 -62.5t-136 -29.5q-141 0 -145 98q0 61 55 117z" />
    <glyph glyph-name="oacute" unicode="&#xf3;" horiz-adv-x="600" 
d="M598 723q31 0 39 -18q16 -35 -19 -70q-53 -53 -174 -125q-20 -10 -26 -4q-4 4 12 24q16 18 121 154q22 37 47 39zM39 199q-20 -16 -35 -31q-27 -23 -33 -16q-4 4 13 24q18 18 67 55q45 31 86 54q129 72 228 71q47 0 47 -12l-29 -14q-61 -29 -147 -113q-45 -45 -81 -99.5
t-36 -86.5q-4 -29 26 -29q35 0 92.5 38t108.5 91q0 45 33 92q20 31 67 62v34l-5 14.5t-3 9.5t2 5q14 8 45 -14q37 -27 37 -72q-4 -78 -116 -174q6 -4 28 -4q35 2 78 33q31 23 88 73q18 18 27 13q10 -6 -11 -23q-55 -51 -96 -80q-47 -35 -88 -37q-31 0 -45 11
q-43 -33 -120 -62.5t-136 -29.5q-141 0 -145 98q0 61 55 117z" />
    <glyph glyph-name="ocircumflex" unicode="&#xf4;" horiz-adv-x="600" 
d="M524 670q8 -2 13 -17q35 -90 73 -149q8 -12 6 -17q-4 -4 -26 5q-59 29 -103 75q-88 -47 -217 -84q-25 -10 -26 0q-2 4 14 17q160 92 242 159q12 13 24 11zM39 199q-20 -16 -35 -31q-27 -23 -33 -16q-4 4 13 24q18 18 67 55q45 31 86 54q129 72 228 71q47 0 47 -12
l-29 -14q-61 -29 -147 -113q-45 -45 -81 -99.5t-36 -86.5q-4 -29 26 -29q35 0 92.5 38t108.5 91q0 45 33 92q20 31 67 62v34l-5 14.5t-3 9.5t2 5q14 8 45 -14q37 -27 37 -72q-4 -78 -116 -174q6 -4 28 -4q35 2 78 33q31 23 88 73q18 18 27 13q10 -6 -11 -23q-55 -51 -96 -80
q-47 -35 -88 -37q-31 0 -45 11q-43 -33 -120 -62.5t-136 -29.5q-141 0 -145 98q0 61 55 117z" />
    <glyph glyph-name="otilde" unicode="&#xf5;" horiz-adv-x="600" 
d="M504 504h-2q-27 0 -71 26.5t-69 28.5q-45 2 -81 -39q-12 -14 -19 -12q-10 4 0 24q23 41 57.5 71t73.5 28q31 -2 70 -27.5t61 -28.5q43 -2 82 41q12 14 21 13q10 -4 -2 -25q-18 -35 -52 -67.5t-69 -32.5zM39 199q-20 -16 -35 -31q-27 -23 -33 -16q-4 4 13 24q18 18 67 55
q45 31 86 54q129 72 228 71q47 0 47 -12l-29 -14q-61 -29 -147 -113q-45 -45 -81 -99.5t-36 -86.5q-4 -29 26 -29q35 0 92.5 38t108.5 91q0 45 33 92q20 31 67 62v34l-5 14.5t-3 9.5t2 5q14 8 45 -14q37 -27 37 -72q-4 -78 -116 -174q6 -4 28 -4q35 2 78 33q31 23 88 73
q18 18 27 13q10 -6 -11 -23q-55 -51 -96 -80q-47 -35 -88 -37q-31 0 -45 11q-43 -33 -120 -62.5t-136 -29.5q-141 0 -145 98q0 61 55 117z" />
    <glyph glyph-name="odieresis" unicode="&#xf6;" horiz-adv-x="600" 
d="M397 637h2q29 0 37 -17.5t-12 -41.5q-45 -53 -117 -68q-18 31 0 82q14 45 90 45zM616 637h2q29 0 36.5 -17.5t-13.5 -41.5q-45 -53 -115 -68q-18 33 -2 82q14 45 92 45zM39 199q-20 -16 -35 -31q-27 -23 -33 -16q-4 4 13 24q18 18 67 55q45 31 86 54q129 72 228 71
q47 0 47 -12l-29 -14q-61 -29 -147 -113q-45 -45 -81 -99.5t-36 -86.5q-4 -29 26 -29q35 0 92.5 38t108.5 91q0 45 33 92q20 31 67 62v34l-5 14.5t-3 9.5t2 5q14 8 45 -14q37 -27 37 -72q-4 -78 -116 -174q6 -4 28 -4q35 2 78 33q31 23 88 73q18 18 27 13q10 -6 -11 -23
q-55 -51 -96 -80q-47 -35 -88 -37q-31 0 -45 11q-43 -33 -120 -62.5t-136 -29.5q-141 0 -145 98q0 61 55 117z" />
    <glyph glyph-name="divide" unicode="&#xf7;" horiz-adv-x="653" 
d="M451 457h2q25 0 30.5 -15.5t-10.5 -35.5q-16 -23 -48 -39.5t-50 -16.5q-16 27 0 68q17 39 76 39zM637 264v-2q0 -10 -37 -10q-260 -10 -459 -12q-29 0 -37 6t-6 20q6 35 49 31q420 -16 461 -18q29 -1 29 -15zM338 176h2q25 0 31 -16.5t-10.5 -37t-48 -36.5t-48.5 -16
q-20 25 0 67q19 39 74 39z" />
    <glyph glyph-name="oslash" unicode="&#xf8;" horiz-adv-x="600" 
d="M418 340h-2q-57 0 -183 -121q-70 -66 -106 -151q-10 -27 -10 -39l317 307q-4 4 -16 4zM145 2h2q33 0 91.5 39t107.5 90q0 45 33 92q25 37 70 62q4 18 0 32l-324 -309q6 -6 20 -6zM51 231q45 31 86 54q106 59 211 73q63 6 103 -6q20 18 65 64q39 39 51 30q10 -10 -32 -49
q-35 -35 -60 -55q47 -31 47 -80q-4 -78 -116 -174q6 -4 28 -4q35 2 78 33q31 23 88 73q18 18 27 13q10 -6 -11 -23q-55 -51 -96 -80q-47 -35 -88 -37q-31 0 -45 11q-45 -35 -118.5 -63.5t-137.5 -30.5q-20 0 -33 4q-59 -59 -73 -72q-16 -16 -23 -8q-4 4 10 22q14 12 64 62
q-86 16 -90 92q0 61 55 117l-2 2q-20 -16 -35 -31q-27 -23 -33 -16q-4 4 13 24q18 18 67 55z" />
    <glyph glyph-name="ugrave" unicode="&#xf9;" horiz-adv-x="768" 
d="M459 711h2q31 0 37 -41q25 -92 51 -162q6 -23 2 -25q-8 -8 -23 11q-86 92 -112 139q-10 14 -10 31q0 20 17.5 33.5t35.5 13.5zM199 307q-41 -14 -117 -74l-80 -67q-25 -18 -31 -14q-6 6 17 28q82 74 147 115q80 55 160 55q64 0 64 -13q0 -6 -11 -20q-45 -51 -112 -135
q-59 -74 -78 -110q-14 -25 -2 -35q12 -12 47 6q53 27 153 104l120 101.5l95 83.5q29 23 84 22q65 0 66 -13q0 -7 -10 -19l-109 -140q-55 -80 -63 -96q-18 -33 -7 -45q14 -12 52 6q39 20 84 57q41 31 102 89q18 18 27 10q6 -6 -23 -33q-53 -49 -119 -102q-106 -86 -194 -86
q-96 0 -88 73q0 35 33 78q2 4 57 70l-4 4q-35 -31 -133 -109q-156 -117 -246 -116q-84 0 -84 63q2 37 37 84q86 123 166 178z" />
    <glyph glyph-name="uacute" unicode="&#xfa;" horiz-adv-x="768" 
d="M651 723q31 0 39 -18q16 -35 -18 -70q-53 -53 -174 -125q-20 -10 -27 -4q-4 4 12 24q16 18 121 154q22 37 47 39zM199 307q-41 -14 -117 -74l-80 -67q-25 -18 -31 -14q-6 6 17 28q82 74 147 115q80 55 160 55q64 0 64 -13q0 -6 -11 -20q-45 -51 -112 -135
q-59 -74 -78 -110q-14 -25 -2 -35q12 -12 47 6q53 27 153 104l120 101.5l95 83.5q29 23 84 22q65 0 66 -13q0 -7 -10 -19l-109 -140q-55 -80 -63 -96q-18 -33 -7 -45q14 -12 52 6q39 20 84 57q41 31 102 89q18 18 27 10q6 -6 -23 -33q-53 -49 -119 -102q-106 -86 -194 -86
q-96 0 -88 73q0 35 33 78q2 4 57 70l-4 4q-35 -31 -133 -109q-156 -117 -246 -116q-84 0 -84 63q2 37 37 84q86 123 166 178z" />
    <glyph glyph-name="ucircumflex" unicode="&#xfb;" horiz-adv-x="768" 
d="M616 680q8 -2 13 -16q35 -90 73 -150q8 -12 7 -16q-4 -4 -27 4q-59 29 -102 76q-88 -47 -218 -84q-25 -10 -26 0q-2 4 14 16q158 92 242 160q12 12 24 10zM199 307q-41 -14 -117 -74l-80 -67q-25 -18 -31 -14q-6 6 17 28q82 74 147 115q80 55 160 55q64 0 64 -13
q0 -6 -11 -20q-45 -51 -112 -135q-59 -74 -78 -110q-14 -25 -2 -35q12 -12 47 6q53 27 153 104l120 101.5l95 83.5q29 23 84 22q65 0 66 -13q0 -7 -10 -19l-109 -140q-55 -80 -63 -96q-18 -33 -7 -45q14 -12 52 6q39 20 84 57q41 31 102 89q18 18 27 10q6 -6 -23 -33
q-53 -49 -119 -102q-106 -86 -194 -86q-96 0 -88 73q0 35 33 78q2 4 57 70l-4 4q-35 -31 -133 -109q-156 -117 -246 -116q-84 0 -84 63q2 37 37 84q86 123 166 178z" />
    <glyph glyph-name="udieresis" unicode="&#xfc;" horiz-adv-x="768" 
d="M485 637h2q29 0 37 -17.5t-12 -41.5q-45 -53 -117 -68q-18 31 0 82q14 45 90 45zM705 637h2q29 0 36 -17.5t-14 -41.5q-45 -53 -115 -68q-18 33 -2 82q15 45 93 45zM199 307q-41 -14 -117 -74l-80 -67q-25 -18 -31 -14q-6 6 17 28q82 74 147 115q80 55 160 55
q64 0 64 -13q0 -6 -11 -20q-45 -51 -112 -135q-59 -74 -78 -110q-14 -25 -2 -35q12 -12 47 6q53 27 153 104l120 101.5l95 83.5q29 23 84 22q65 0 66 -13q0 -7 -10 -19l-109 -140q-55 -80 -63 -96q-18 -33 -7 -45q14 -12 52 6q39 20 84 57q41 31 102 89q18 18 27 10
q6 -6 -23 -33q-53 -49 -119 -102q-106 -86 -194 -86q-96 0 -88 73q0 35 33 78q2 4 57 70l-4 4q-35 -31 -133 -109q-156 -117 -246 -116q-84 0 -84 63q2 37 37 84q86 123 166 178z" />
    <glyph glyph-name="yacute" unicode="&#xfd;" horiz-adv-x="755" 
d="M664 713q31 0 38 -19q16 -35 -18 -69q-53 -53 -174 -125q-20 -10 -27 -4q-4 4 13 24q16 18 120 154q23 37 48 39zM508 246l-2 2q-6 -6 -23.5 -21.5t-21.5 -19.5q-31 -27 -135 -109q-156 -117 -246 -116q-43 0 -63.5 17t-18.5 46q0 33 35 84q96 135 166 178
q-41 -14 -117 -74l-82 -69q-20 -18 -29 -12q-6 6 17 28q82 74 147 115q80 55 160 55q64 0 64 -13q0 -6 -11 -20q-45 -51 -112 -135q-51 -63 -78 -112q-14 -25 -4 -35q12 -8 49 8q63 35 153 104l120 101.5l95 83.5q29 23 101 22q63 0 63 -12q0 -7 -10 -20l-127 -162
l-270 -363q-268 -365 -363 -524q-23 -37 -12 -43q8 -6 27 16q18 20 159 219l228 306q119 152 260 299l129 120q18 18 26 13q6 -6 -20 -33q-63 -55 -121 -115q-129 -133 -258 -297l-246 -333q-143 -203 -176 -232q-37 -33 -86 -31q-55 2 -55 54q0 59 78 172q109 164 280 401z
" />
    <glyph glyph-name="thorn" unicode="&#xfe;" horiz-adv-x="770" 
d="M137 317q18 16 154 148l178 203q88 102 176 182q55 55 113 55q53 0 57 -20q-164 -164 -364 -408q-238 -287 -525 -678q-209 -281 -366 -526q-20 -33 -13 -41q10 -6 25 12q29 33 162 221q29 43 235 318q123 166 246 311q92 111 180 176q121 86 203 86q47 0 67.5 -17
t16.5 -46q-4 -31 -82 -123q-49 -57 -65 -86q-20 -33 -7 -43q14 -12 52 6q33 16 92 59l56 47t42 37q20 20 27 15q6 -8 -9 -23q-80 -74 -133 -112q-117 -84 -202 -84q-82 0 -82 59q0 45 75 139q14 18 47 55t42 48q16 23 0 26q-14 4 -46 -8q-100 -49 -210 -170
q-131 -145 -299 -373l-248 -337q-129 -190 -178 -232q-35 -31 -86 -29q-55 4 -56 52q0 51 78 172l285 403q211 289 432 563l-205 -188q-25 -20 -31 -14q-4 8 13 24z" />
    <glyph glyph-name="ydieresis" unicode="&#xff;" horiz-adv-x="755" 
d="M483 637h2q29 0 37 -17.5t-12 -41.5q-45 -53 -117 -68q-18 31 0 82q14 45 90 45zM702 637h3q29 0 36 -17.5t-14 -41.5q-45 -53 -115 -68q-18 33 -2 82q14 45 92 45zM508 246l-2 2q-6 -6 -23.5 -21.5t-21.5 -19.5q-31 -27 -135 -109q-156 -117 -246 -116q-43 0 -63.5 17
t-18.5 46q0 33 35 84q96 135 166 178q-41 -14 -117 -74l-82 -69q-20 -18 -29 -12q-6 6 17 28q82 74 147 115q80 55 160 55q64 0 64 -13q0 -6 -11 -20q-45 -51 -112 -135q-51 -63 -78 -112q-14 -25 -4 -35q12 -8 49 8q63 35 153 104l120 101.5l95 83.5q29 23 101 22
q63 0 63 -12q0 -7 -10 -20l-127 -162l-270 -363q-268 -365 -363 -524q-23 -37 -12 -43q8 -6 27 16q18 20 159 219l228 306q119 152 260 299l129 120q18 18 26 13q6 -6 -20 -33q-63 -55 -121 -115q-129 -133 -258 -297l-246 -333q-143 -203 -176 -232q-37 -33 -86 -31
q-55 2 -55 54q0 59 78 172q109 164 280 401z" />
    <glyph glyph-name="Amacron" unicode="&#x100;" horiz-adv-x="1460" 
d="M35 115v2q0 57 35.5 94t79.5 39q41 2 64.5 -18.5t21.5 -53.5q0 -31 -50 -67q-35 -27 -34 -52q0 -35 49 -55t141 -12q188 16 414 172q-49 39 -88 102.5t-37 134.5q2 94 70.5 161t177.5 67q154 0 235 -158q41 41 88 82q182 174 314 246q147 78 264 78q80 0 104 -25
q6 -6 10 -12t4 -10.5t-2 -6.5q-2 0 -4 1t-6 5.5t-10 8.5q-16 12 -45 12q-37 0 -66 -23q-74 -57 -168 -192q-188 -262 -380 -576q55 4 118 39q53 27 115 82q25 25 33 19q8 -8 -19 -31q-61 -57 -123 -88q-72 -37 -135 -41q-37 -43 -131 -53q-27 -4 -40 0t-11 12l4 16
q2 6 9 17.5t7 13.5q-61 6 -143 35q-76 31 -125 67q-227 -166 -440 -182q-127 -10 -214 29t-87 121zM1139 199q158 242 252 356q184 233 391 301v2q-117 0 -256 -76q-109 -59 -275 -209l-127 -122q20 -55 25 -123q4 -72 -10 -129zM901 586h-2q-76 0 -119 -55.5t-47 -133.5
q-6 -119 64 -200q43 33 149 122l148 134q-72 133 -193 133zM811 178q31 -37 109 -74q66 -29 135 -38l51 86q25 49 20 163q-4 72 -22 117l-146 -131q-57 -51 -147 -123zM1616 987q-14 0 -18.5 2t1.5 10q29 43 60 48q98 12 254 12q35 0 35 -21q0 -12 -17 -28q-25 -25 -41 -25
q-174 8 -274 2z" />
    <glyph glyph-name="amacron" unicode="&#x101;" horiz-adv-x="686" 
d="M678 567v-2q0 -10 -12 -22q-20 -20 -39 -21q-154 6 -275 0q-16 0 -19 2t3 13q29 37 59 41q135 16 254 10q29 -3 29 -21zM457 287q39 43 60.5 53t70.5 10q55 0 55 -14q0 -7 -10 -19l-111 -135q-59 -78 -69 -100q-16 -31 -2 -41q12 -10 49 6q29 12 88 59q53 43 100 87
q23 16 27 12q6 -6 -21 -33q-68 -63 -121 -104q-111 -86 -194 -86q-72 0 -82 49q-6 35 22 71l-2 2q-139 -123 -249 -122q-53 -2 -83 17t-28 62q4 53 63 117l-2 2q-10 -10 -22 -18q-20 -18 -27 -12q-4 8 19 30q39 35 73 58q53 39 129 71q117 51 201 47q39 -2 55.5 -22
t10.5 -47zM401 334h-2q-53 0 -190 -133q-119 -119 -113 -162q2 -20 27 -21q29 0 79 29t93 68q51 45 96 102t47 80q2 37 -37 37z" />
    <glyph glyph-name="Abreve" unicode="&#x102;" horiz-adv-x="1460" 
d="M35 115v2q0 57 35.5 94t79.5 39q41 2 64.5 -18.5t21.5 -53.5q0 -31 -50 -67q-35 -27 -34 -52q0 -35 49 -55t141 -12q188 16 414 172q-49 39 -88 102.5t-37 134.5q2 94 70.5 161t177.5 67q154 0 235 -158q41 41 88 82q182 174 314 246q147 78 264 78q80 0 104 -25
q6 -6 10 -12t4 -10.5t-2 -6.5q-2 0 -4 1t-6 5.5t-10 8.5q-16 12 -45 12q-37 0 -66 -23q-74 -57 -168 -192q-188 -262 -380 -576q55 4 118 39q53 27 115 82q25 25 33 19q8 -8 -19 -31q-61 -57 -123 -88q-72 -37 -135 -41q-37 -43 -131 -53q-27 -4 -40 0t-11 12l4 16
q2 6 9 17.5t7 13.5q-61 6 -143 35q-76 31 -125 67q-227 -166 -440 -182q-127 -10 -214 29t-87 121zM1139 199q158 242 252 356q184 233 391 301v2q-117 0 -256 -76q-109 -59 -275 -209l-127 -122q20 -55 25 -123q4 -72 -10 -129zM901 586h-2q-76 0 -119 -55.5t-47 -133.5
q-6 -119 64 -200q43 33 149 122l148 134q-72 133 -193 133zM811 178q31 -37 109 -74q66 -29 135 -38l51 86q25 49 20 163q-4 72 -22 117l-146 -131q-57 -51 -147 -123zM1731 967q-45 6 -75 39.5t-28 78.5q4 23 12 23q2 0 11 -16q25 -45 92 -52q109 -8 182 56q10 14 19 8
q6 -2 -2 -19q-88 -132 -211 -118z" />
    <glyph glyph-name="abreve" unicode="&#x103;" horiz-adv-x="686" 
d="M383 653h2q2 0 8 -16q23 -59 92 -66q90 -8 179 70q12 12 20 8q10 -4 0 -18q-88 -145 -213 -133q-45 4 -74.5 39.5t-27.5 93.5q0 22 14 22zM457 287q39 43 60.5 53t70.5 10q55 0 55 -14q0 -7 -10 -19l-111 -135q-59 -78 -69 -100q-16 -31 -2 -41q12 -10 49 6q29 12 88 59
q53 43 100 87q23 16 27 12q6 -6 -21 -33q-68 -63 -121 -104q-111 -86 -194 -86q-72 0 -82 49q-6 35 22 71l-2 2q-139 -123 -249 -122q-53 -2 -83 17t-28 62q4 53 63 117l-2 2q-10 -10 -22 -18q-20 -18 -27 -12q-4 8 19 30q39 35 73 58q53 39 129 71q117 51 201 47
q39 -2 55.5 -22t10.5 -47zM401 334h-2q-53 0 -190 -133q-119 -119 -113 -162q2 -20 27 -21q29 0 79 29t93 68q51 45 96 102t47 80q2 37 -37 37z" />
    <glyph glyph-name="Aogonek" unicode="&#x104;" horiz-adv-x="1460" 
d="M901 586h-2q-76 0 -119 -55.5t-47 -133.5q-6 -119 64 -200q43 33 149 122l148 134q-72 133 -193 133zM1139 199q158 242 252 356q184 233 391 301v2q-117 0 -256 -76q-117 -66 -275 -209l-127 -122q20 -55 25 -123q4 -72 -10 -129zM811 178q39 -43 109 -74
q66 -29 135 -38l51 86q25 49 20 163q-4 72 -22 117l-146 -131q-55 -49 -147 -123zM1206 39q-27 -31 -61 -41q-121 -66 -141 -127q-14 -43 28 -47q31 -2 76 24q18 10 20 7q6 -8 -6 -21q-70 -70 -151 -67q-39 2 -57.5 27.5t-8.5 58.5q25 70 174 133q-33 -2 -46 4t-5 24
q2 6 9 17.5t7 13.5q-61 6 -143 35q-68 25 -125 67q-227 -166 -440 -182q-127 -10 -214 29t-87 121v2q0 57 35.5 94t79.5 39q41 2 63.5 -18.5t22.5 -53.5q0 -31 -50 -67q-35 -27 -34 -52q0 -35 49 -55t141 -12q188 16 414 172q-49 39 -88 102.5t-37 134.5q2 94 70.5 161
t177.5 67q154 0 235 -158l88 82q188 178 314 246q147 78 264 78q80 0 104 -25q6 -6 10 -12t4 -10.5t-2 -6.5q-2 0 -4 1t-6 5.5t-10 8.5q-16 12 -45 12q-37 0 -66 -23q-74 -57 -168 -192q-188 -262 -380 -576q55 4 118 39q53 27 115 82q25 25 33 19q8 -8 -19 -31
q-61 -57 -123 -88q-72 -37 -135 -41z" />
    <glyph glyph-name="aogonek" unicode="&#x105;" horiz-adv-x="686" 
d="M401 334h-2q-53 0 -190 -133q-119 -119 -113 -162q2 -20 27 -21q29 0 79 29t93 68q51 45 96 102t47 80q2 37 -37 37zM61 238q53 39 129 71q113 53 201 47q39 -2 55.5 -23.5t10.5 -45.5q39 43 60.5 53t70.5 10q55 0 55 -14q0 -7 -10 -19q-66 -78 -109 -135
q-59 -74 -71 -100q-16 -29 -2 -39q14 -12 49 4q29 12 88 59q53 43 100 87q23 16 27 12q6 -6 -21 -33q-68 -63 -121 -104q-76 -57 -127 -76q-119 -63 -139 -127q-14 -43 27 -47q31 -2 76 24q18 10 22 6q4 -6 -8 -20q-63 -68 -150 -68q-39 2 -58 27t-9 59q20 66 184 136h-12
q-72 0 -82 49q-6 39 22 71l-2 2q-139 -123 -249 -122q-53 -2 -83 17t-28 62q4 53 63 117l-2 2q-10 -10 -22 -18q-20 -18 -27 -12q-4 8 19 30q38 35 73 58z" />
    <glyph glyph-name="Cacute" unicode="&#x106;" horiz-adv-x="835" 
d="M555 963h2q178 0 266 -129q53 12 111 12q102 4 178 -34t66 -120q-6 -66 -77 -113t-157 -67t-170 -20q-217 0 -325 77q-106 -94 -175 -212.5t-69 -213.5q0 -186 201 -178q139 4 290 111q35 23 129 106q31 27 37 21q6 -8 -24 -35q-96 -88 -140 -119q-162 -111 -317 -121
q-154 -10 -245 44.5t-95 170.5q-4 129 83 259t241 239q-51 61 -52 129q0 84 70 138.5t172 54.5zM776 512h2q113 0 204 49t105 139q8 66 -33.5 97.5t-119.5 31.5q-59 0 -103 -14q25 -45 29 -113v-23t-1 -19.5t-2 -14.5t-2 -8t-3 -2t-3 6t-2 21.5t-3 29.5q-10 68 -45 113
q-78 -25 -176.5 -90.5t-159.5 -130.5q106 -72 313 -72zM555 934h-2q-90 0 -151.5 -44t-61.5 -120q0 -70 41 -117q195 121 405 172q-33 45 -97 77t-134 32zM958 991q-12 4 -10 10q16 8 50 30l46 30q31 18 144 96q23 12 39 4q10 -4 15 -20.5t-3 -32.5q-25 -33 -111 -64
q-104 -43 -170 -53z" />
    <glyph glyph-name="cacute" unicode="&#x107;" horiz-adv-x="485" 
d="M575 702q31 0 39 -18q16 -35 -18 -70q-53 -53 -174 -125q-20 -10 -27 -4q-4 4 13 25q16 18 120 154q22 36 47 38zM113 -18h-2q-135 0 -136 92q0 55 54 112l-2 2q-6 -4 -27 -24q-25 -20 -31 -14q-4 8 13 24q37 35 71 57q59 43 103 64q133 68 217 61q47 -2 69.5 -23.5
t16.5 -54t-29.5 -55t-48.5 -22.5q-29 0 -36 21.5t9 47.5q33 55 27 62q-2 3 -8 4q-35 10 -127 -86q-104 -104 -115 -182q-6 -47 47 -48q76 0 189 74q27 18 118 94q18 16 24.5 10.5t-20.5 -30.5q-63 -57 -114 -92q-137 -94 -262 -94z" />
    <glyph glyph-name="Ccaron" unicode="&#x10c;" horiz-adv-x="835" 
d="M555 963h2q178 0 266 -129q53 12 111 12q102 4 178 -34t66 -120q-6 -66 -77 -113t-157 -67t-170 -20q-217 0 -325 77q-106 -94 -175 -212.5t-69 -213.5q0 -186 201 -178q139 4 290 111q35 23 129 106q31 27 37 21q6 -8 -24 -35q-96 -88 -140 -119q-162 -111 -317 -121
q-154 -10 -245 44.5t-95 170.5q-4 129 83 259t241 239q-51 61 -52 129q0 84 70 138.5t172 54.5zM776 512h2q113 0 204 49t105 139q8 66 -33.5 97.5t-119.5 31.5q-59 0 -103 -14q25 -45 29 -113v-23t-1 -19.5t-2 -14.5t-2 -8t-3 -2t-3 6t-2 21.5t-3 29.5q-10 68 -45 113
q-78 -25 -176.5 -90.5t-159.5 -130.5q106 -72 313 -72zM555 934h-2q-90 0 -151.5 -44t-61.5 -120q0 -70 41 -117q195 121 405 172q-33 45 -97 77t-134 32zM989 979q-6 0 -12 14q-29 70 -74 146q-8 14 -6 16q6 6 25 -4q47 -20 100 -72q102 49 211 80q25 6 27 0t-15 -16
q-115 -66 -235 -154q-15 -10 -21 -10z" />
    <glyph glyph-name="ccaron" unicode="&#x10d;" horiz-adv-x="485" 
d="M369 485h-2q-8 0 -13 15q-35 90 -73 151q-8 12 -7 15q4 6 27 -2q63 -31 107 -78q98 53 213 86q23 10 26 0q2 -8 -14 -17q-158 -92 -242 -159q-12 -13 -22 -11zM113 -18h-2q-135 0 -136 92q0 55 54 112l-2 2q-6 -4 -27 -24q-25 -20 -31 -14q-4 8 13 24q37 35 71 57
q59 43 103 64q133 68 217 61q47 -2 69.5 -23.5t16.5 -54t-29.5 -55t-48.5 -22.5q-29 0 -36 21.5t9 47.5q33 55 27 62q-2 3 -8 4q-35 10 -127 -86q-104 -104 -115 -182q-6 -47 47 -48q76 0 189 74q27 18 118 94q18 16 24.5 10.5t-20.5 -30.5q-63 -57 -114 -92
q-137 -94 -262 -94z" />
    <glyph glyph-name="Dcaron" unicode="&#x10e;" horiz-adv-x="1501" 
d="M748 557v2q0 41 -26 65.5t-65 26.5q-72 2 -131 -53q-8 -6 -14 -13l-10 -11.5t-6 -8.5t-4.5 -5t-4.5 -1q-2 2 0 8t10.5 18.5t20.5 24.5q68 68 150 64q47 -2 81.5 -33t38.5 -84q10 -129 -116 -233q-57 -45 -147.5 -71t-180.5 -22q-113 4 -190.5 55.5t-77.5 141.5
q0 178 225 308t500 130q289 0 475 -129q78 45 137 66q106 39 209 39q76 0 119 -33q8 -6 12 -13.5t5 -11.5t-1 -6q-2 0 -3 2t-7 8.5t-16 12.5q-37 20 -103 20q-88 0 -192 -43q-78 -33 -125 -71q113 -94 144.5 -229.5t-32.5 -246.5q-145 -250 -661 -249q-156 0 -303 16
q-78 -14 -230 -14q-23 0 -66 -1q-73 0 -108 0.5t-76.5 3.5t-58 10t-14.5 19q4 47 291 41q86 0 282 -28q49 14 92 37.5t89.5 68.5t69 69.5t76.5 95.5t68 87q82 100 187.5 190.5t187.5 141.5q-162 129 -448 129q-242 0 -424 -131t-184 -303q-4 -154 153 -164q160 -8 289 108
q113 107 113 199zM518 23q123 -20 213 -21q164 0 307.5 68.5t233.5 205.5q70 100 74 217t-58 193q-47 -45 -134 -167t-124 -165q-111 -137 -233.5 -211.5t-278.5 -119.5zM1397 938q-4 0 -13 14q-29 70 -73 146q-8 14 -6 16q6 6 24 -4q47 -20 101 -72q102 49 210 80
q25 6 27 0t-14 -16q-115 -66 -236 -154q-14 -10 -20 -10z" />
    <glyph glyph-name="dcaron" unicode="&#x10f;" horiz-adv-x="686" 
d="M401 334h-2q-53 0 -190 -133q-119 -119 -113 -162q2 -20 27 -21q29 0 79 29t93 68q51 45 96 102t47 80q2 37 -37 37zM190 309q109 53 201 47q41 -2 56.5 -23.5t7.5 -47.5l2 -2q90 127 262 327q127 150 235 248q47 43 115 43q45 0 49 -16q-63 -61 -233 -254
q-70 -80 -258 -314q-150 -184 -174 -235q-16 -31 -2 -41q12 -10 49 6q29 12 88 59q55 45 100 87q23 16 27 12q6 -6 -19 -31q-45 -45 -123 -106q-111 -86 -194 -86q-72 0 -82 49q-6 35 22 71l-2 2q-139 -123 -249 -122q-53 -2 -83 17t-28 62q4 53 63 117l-2 2q-6 -6 -22 -18
q-20 -18 -27 -12q-6 8 21 30q23 27 71 58q57 40 129 71zM1116 698q-2 4 14 21q43 43 68 92q4 8 1 25.5t-1 23.5q10 33 94 41q27 4 27 -18q0 -14 -14 -31q-55 -76 -164 -145q-21 -13 -25 -9z" />
    <glyph glyph-name="Dcroat" unicode="&#x110;" horiz-adv-x="1490" 
d="M1036 356q37 -2 87.5 -5t64.5 -3q25 -4 24 -10q0 -8 -24 -8q-23 -2 -86.5 -3t-91.5 -1q-184 -215 -488 -303q123 -20 213 -21q164 0 307.5 68.5t233.5 205.5q70 100 74 217t-58 193q-47 -45 -133 -166t-123 -164zM827 319h-39q-16 0 -25 5.5t-7 15.5q0 25 35 25
q8 0 30.5 -1.5t34.5 -1.5l25 25q168 205 372 332q-162 129 -448 129q-242 0 -424 -131t-184 -303q-4 -154 153 -164q160 -8 289 108q113 106 113 199q0 41 -26 66.5t-64 27.5q-72 2 -132 -53q-10 -10 -19 -21.5t-13 -14.5t-6 -3q-2 2 0 8t10 18.5t20 24.5q68 68 150 64
q47 -2 83 -33t38 -84q10 -129 -117 -233q-57 -45 -147.5 -71t-180.5 -22q-113 4 -190.5 55.5t-77.5 141.5q0 178 225 308t500 130q301 0 473 -131q55 35 139 66q115 41 209 41q76 0 119 -33q6 -6 11 -13.5t6 -11.5t-1 -6q-2 0 -3 2t-7 8.5t-16 12.5q-37 20 -103 20
q-88 0 -192 -43q-70 -29 -123 -73q113 -96 143.5 -229.5t-33.5 -244.5q-145 -250 -661 -249q-156 0 -303 16q-78 -14 -230 -14q-23 0 -66 -1q-73 0 -107.5 0.5t-76.5 3.5t-58.5 10t-14.5 19q6 51 299 41q88 0 274 -28q53 14 98.5 39.5t95.5 77t70.5 75.5t79.5 98z" />
    <glyph glyph-name="dcroat" unicode="&#x111;" horiz-adv-x="686" 
d="M915 666q-76 -86 -288 -349q-150 -184 -174 -235q-16 -31 -2 -41q12 -10 49 6q29 12 88 59q55 45 100 87q23 16 27 12q6 -6 -19 -31q-45 -45 -123 -106q-111 -86 -194 -86q-72 0 -82 49q-6 35 22 71l-2 2q-139 -123 -249 -122q-53 -2 -83 17t-28 62q4 53 63 117l-2 2
q-6 -6 -22 -18q-20 -18 -27 -12q-6 8 21 30q23 27 71 58q57 41 129 71q109 53 201 47q41 -2 56.5 -23.5t7.5 -47.5l2 -2q94 131 305 379q-27 0 -79 -1.5t-79 -3.5q-49 -4 -49 29t51 29q139 -4 197 -8q86 90 151 151q47 43 115 43q45 0 49 -16q-47 -45 -168 -178
q117 -4 174 -7q37 -2 37 -16q0 -12 -35 -12q-31 -2 -66.5 -3t-78.5 -2t-66 -1zM401 334h-2q-53 0 -190 -133q-119 -119 -113 -162q2 -20 27 -21q29 0 79 29t93 68q51 45 96 102t47 80q2 37 -37 37z" />
    <glyph glyph-name="Emacron" unicode="&#x112;" horiz-adv-x="845" 
d="M469 549v2q0 63 45 121q-86 66 -84 147q4 59 53 96t127 37q154 0 256 -108q90 10 156 8q100 -4 161.5 -42t59.5 -89q-2 -68 -98 -117t-219 -49q-166 0 -291 55q-20 -29 -29 -59q-10 -35 -6 -64q53 6 102 5q115 -4 109 -52q-6 -41 -113 -41q-133 0 -194 56
q-78 -31 -154 -101q-102 -94 -119 -196q-20 -94 31 -144.5t154 -46.5q139 8 284 105q23 16 50.5 38.5l55.5 46l38 31.5q18 18 26 11q6 -6 -22 -31q-74 -70 -148 -121q-162 -109 -323 -121q-164 -10 -246 51.5t-61 180.5q14 82 88.5 149.5t159.5 104.5t176 57q-25 31 -25 80z
M922 575h2q98 0 179 41t83 105q4 43 -35 76.5t-123 36.5q-68 2 -139 -25q27 -45 31 -86q2 -12 3 -22.5t1 -18.5t-1 -14t-3 -8.5t-4.5 -2.5t-2.5 4.5t-3 18.5t-9 33q-10 47 -45 84q-68 -35 -121 -76q-41 -31 -90 -92q109 -54 277 -54zM823 836q-102 98 -215 98
q-70 0 -110.5 -31t-44.5 -84q-4 -74 73 -133q41 51 127 88q76 42 170 62zM604 471q12 -47 96 -51q72 -4 74 26q2 12 -18.5 19.5t-53.5 9.5q-49 4 -98 -4zM879 1001q-14 0 -18.5 2.5t1.5 10.5q29 43 60 47q98 12 254 12q35 0 34 -20q0 -12 -16 -29q-25 -25 -41 -25
q-174 8 -274 2z" />
    <glyph glyph-name="emacron" unicode="&#x113;" horiz-adv-x="485" 
d="M606 567v-2q0 -10 -12 -22q-20 -20 -39 -21q-154 6 -274 0q-16 0 -19.5 2t2.5 13q29 37 60 41q135 16 254 10q28 -3 28 -21zM170 16q76 0 195 78q68 47 122 99q16 12 23 6q6 -8 -23 -33q-57 -53 -120 -94q-127 -86 -248 -90q-147 -6 -144 92q0 53 54 112l-2 2
q-2 -4 -14.5 -14t-14.5 -12q-23 -18 -29 -12q-4 8 13 24q31 29 69 57q41 31 105 64q127 63 223 63h2q92 0 88 -61q-4 -63 -135 -127q-82 -39 -201 -64q-12 -18 -12 -45q0 -45 49 -45zM143 127q70 12 142 63q82 59 90 115q6 31 -23 31q-39 0 -110 -78q-66 -74 -99 -131z" />
    <glyph glyph-name="Ebreve" unicode="&#x114;" horiz-adv-x="845" 
d="M469 549v2q0 63 45 121q-86 66 -84 147q4 59 53 96t127 37q154 0 256 -108q90 10 156 8q100 -4 161.5 -42t59.5 -89q-2 -68 -98 -117t-219 -49q-166 0 -291 55q-20 -29 -29 -59q-10 -35 -6 -64q53 6 102 5q115 -4 109 -52q-6 -41 -113 -41q-133 0 -194 56
q-78 -31 -154 -101q-102 -94 -119 -196q-20 -94 31 -144.5t154 -46.5q139 8 284 105q23 16 50.5 38.5l55.5 46l38 31.5q18 18 26 11q6 -6 -22 -31q-74 -70 -148 -121q-162 -109 -323 -121q-164 -10 -246 51.5t-61 180.5q14 82 88.5 149.5t159.5 104.5t176 57q-25 31 -25 80z
M922 575h2q98 0 179 41t83 105q4 43 -35 76.5t-123 36.5q-68 2 -139 -25q27 -45 31 -86q2 -12 3 -22.5t1 -18.5t-1 -14t-3 -8.5t-4.5 -2.5t-2.5 4.5t-3 18.5t-9 33q-10 47 -45 84q-68 -35 -121 -76q-41 -31 -90 -92q109 -54 277 -54zM823 836q-102 98 -215 98
q-70 0 -110.5 -31t-44.5 -84q-4 -74 73 -133q41 51 127 88q76 42 170 62zM604 471q12 -47 96 -51q72 -4 74 26q2 12 -18.5 19.5t-53.5 9.5q-49 4 -98 -4zM1014 967q-45 6 -75 39.5t-28 78.5q4 23 13 23q2 0 10 -16q25 -45 92 -52q109 -8 182 56q10 14 19 8q6 -2 -2 -19
q-88 -132 -211 -118z" />
    <glyph glyph-name="ebreve" unicode="&#x115;" horiz-adv-x="485" 
d="M293 653h2q2 0 8 -16q23 -59 92 -66q90 -8 178 70q12 12 21 8q10 -4 0 -18q-88 -145 -213 -133q-45 4 -75 39.5t-27 93.5q0 22 14 22zM170 16q76 0 195 78q68 47 122 99q16 12 23 6q6 -8 -23 -33q-57 -53 -120 -94q-127 -86 -248 -90q-147 -6 -144 92q0 53 54 112l-2 2
q-2 -4 -14.5 -14t-14.5 -12q-23 -18 -29 -12q-4 8 13 24q31 29 69 57q41 31 105 64q127 63 223 63h2q92 0 88 -61q-4 -63 -135 -127q-82 -39 -201 -64q-12 -18 -12 -45q0 -45 49 -45zM143 127q70 12 142 63q82 59 90 115q6 31 -23 31q-39 0 -110 -78q-66 -74 -99 -131z" />
    <glyph glyph-name="Edotaccent" unicode="&#x116;" horiz-adv-x="845" 
d="M469 549v2q0 63 45 121q-86 66 -84 147q4 59 53 96t127 37q154 0 256 -108q90 10 156 8q100 -4 161.5 -42t59.5 -89q-2 -68 -98 -117t-219 -49q-166 0 -291 55q-20 -29 -29 -59q-10 -35 -6 -64q53 6 102 5q115 -4 109 -52q-6 -41 -113 -41q-133 0 -194 56
q-78 -31 -154 -101q-102 -94 -119 -196q-20 -94 31 -144.5t154 -46.5q139 8 284 105q23 16 50.5 38.5l55.5 46l38 31.5q18 18 26 11q6 -6 -22 -31q-74 -70 -148 -121q-162 -109 -323 -121q-164 -10 -246 51.5t-61 180.5q14 82 88.5 149.5t159.5 104.5t176 57q-25 31 -25 80z
M922 575h2q98 0 179 41t83 105q4 43 -35 76.5t-123 36.5q-68 2 -139 -25q27 -45 31 -86q2 -12 3 -22.5t1 -18.5t-1 -14t-3 -8.5t-4.5 -2.5t-2.5 4.5t-3 18.5t-9 33q-10 47 -45 84q-68 -35 -121 -76q-41 -31 -90 -92q109 -54 277 -54zM823 836q-102 98 -215 98
q-70 0 -110.5 -31t-44.5 -84q-4 -74 73 -133q41 51 127 88q76 42 170 62zM604 471q12 -47 96 -51q72 -4 74 26q2 12 -18.5 19.5t-53.5 9.5q-49 4 -98 -4zM1038 977q-20 20 -4 78q20 47 99 47q27 0 34 -18.5t-12 -41.5q-23 -29 -60 -47t-57 -18z" />
    <glyph glyph-name="edotaccent" unicode="&#x117;" horiz-adv-x="485" 
d="M494 639h2q29 0 36 -17.5t-14 -43.5q-45 -53 -115 -68q-16 31 -2 84q13 45 93 45zM170 16q76 0 195 78q68 47 122 99q16 12 23 6q6 -8 -23 -33q-57 -53 -120 -94q-127 -86 -248 -90q-147 -6 -144 92q0 53 54 112l-2 2q-2 -4 -14.5 -14t-14.5 -12q-23 -18 -29 -12
q-4 8 13 24q31 29 69 57q41 31 105 64q127 63 223 63h2q92 0 88 -61q-4 -63 -135 -127q-82 -39 -201 -64q-12 -18 -12 -45q0 -45 49 -45zM143 127q70 12 142 63q82 59 90 115q6 31 -23 31q-39 0 -110 -78q-66 -74 -99 -131z" />
    <glyph glyph-name="Eogonek" unicode="&#x118;" horiz-adv-x="845" 
d="M922 575h2q98 0 179 41t83 105q4 43 -35 76.5t-123 36.5q-68 2 -139 -25q27 -45 31 -86q2 -12 3 -22.5t1 -18.5t-1 -14t-3 -8.5t-4.5 -2.5t-2.5 4.5t-3 18.5t-9 33q-12 47 -45 84q-68 -35 -121 -76q-43 -33 -90 -92q109 -54 277 -54zM823 836q-102 98 -215 98
q-70 0 -110.5 -31t-44.5 -84q-6 -72 73 -133q39 49 127 88q76 42 170 62zM604 471q16 -47 96 -51q72 -4 74 26q2 12 -18.5 19.5t-53.5 9.5q-51 4 -98 -4zM700 47q-141 -94 -290 -117q-117 -59 -140 -127q-14 -43 27 -47q31 -2 76 25q18 10 22 6q4 -8 -8 -20
q-70 -74 -149 -68q-39 4 -58.5 28.5t-9.5 57.5q23 74 195 141q-158 -8 -237 53.5t-58 178.5q14 82 88.5 149.5t159.5 104.5t176 57q-25 27 -25 80v2q0 72 45 121q-90 68 -84 147q4 59 53 96t127 37q154 0 256 -108q68 12 156 8q100 -4 161.5 -42t59.5 -89q-2 -68 -98 -117
t-219 -49q-166 0 -291 55q-16 -23 -29 -59q-12 -45 -6 -64q47 6 102 5q115 -4 109 -52q-6 -41 -113 -41q-133 0 -194 56q-78 -31 -154 -101q-102 -94 -119 -196q-20 -94 31 -144.5t154 -46.5q139 8 284 105q23 16 50.5 38.5l55.5 46l38 31.5q18 18 26 11q6 -6 -22 -31
q-74 -70 -148 -121z" />
    <glyph glyph-name="eogonek" unicode="&#x119;" horiz-adv-x="485" 
d="M371 72q-84 -51 -144 -70q-125 -63 -149 -131q-14 -43 28 -47q31 -2 76 24q18 10 21 7q6 -8 -6 -21q-70 -70 -152 -67q-39 2 -57.5 26.5t-7.5 59.5q18 63 196 135l-57 -6q-147 -6 -144 92q0 53 54 112l-2 2q-2 -4 -14.5 -14t-14.5 -12q-23 -18 -29 -12q-4 8 13 24
q31 29 69 57q41 31 105 64q127 63 223 63h2q92 0 88 -61q-4 -63 -135 -127q-82 -39 -201 -64q-12 -18 -12 -45q0 -43 49 -43q80 0 195 76q66 45 118 94q20 16 26.5 10.5t-20.5 -30.5q-89 -76 -118 -96zM143 127q70 12 142 63q82 59 90 115q6 31 -23 31q-39 0 -110 -78
q-66 -74 -99 -131z" />
    <glyph glyph-name="Ecaron" unicode="&#x11a;" horiz-adv-x="845" 
d="M469 549v2q0 63 45 121q-86 66 -84 147q4 59 53 96t127 37q154 0 256 -108q90 10 156 8q100 -4 161.5 -42t59.5 -89q-2 -68 -98 -117t-219 -49q-166 0 -291 55q-20 -29 -29 -59q-10 -35 -6 -64q53 6 102 5q115 -4 109 -52q-6 -41 -113 -41q-133 0 -194 56
q-78 -31 -154 -101q-102 -94 -119 -196q-20 -94 31 -144.5t154 -46.5q139 8 284 105q23 16 50.5 38.5l55.5 46l38 31.5q18 18 26 11q6 -6 -22 -31q-74 -70 -148 -121q-162 -109 -323 -121q-164 -10 -246 51.5t-61 180.5q14 82 88.5 149.5t159.5 104.5t176 57q-25 31 -25 80z
M922 575h2q98 0 179 41t83 105q4 43 -35 76.5t-123 36.5q-68 2 -139 -25q27 -45 31 -86q2 -12 3 -22.5t1 -18.5t-1 -14t-3 -8.5t-4.5 -2.5t-2.5 4.5t-3 18.5t-9 33q-10 47 -45 84q-68 -35 -121 -76q-41 -31 -90 -92q109 -54 277 -54zM823 836q-102 98 -215 98
q-70 0 -110.5 -31t-44.5 -84q-4 -74 73 -133q41 51 127 88q76 42 170 62zM604 471q12 -47 96 -51q72 -4 74 26q2 12 -18.5 19.5t-53.5 9.5q-49 4 -98 -4zM1069 952q-4 0 -12 15q-29 70 -74 145q-8 14 -6 16q6 6 24 -4q47 -20 101 -71q102 49 211 80q25 6 26.5 -0.5
t-14.5 -16.5q-115 -68 -235 -153q-15 -11 -21 -11z" />
    <glyph glyph-name="ecaron" unicode="&#x11b;" horiz-adv-x="485" 
d="M389 485h-2q-8 0 -12 15q-35 90 -74 151q-8 12 -6 15q4 6 27 -2q63 -31 106 -78q98 53 213 86q23 10 27 0q2 -8 -15 -17q-158 -92 -241 -159q-13 -13 -23 -11zM170 16q76 0 195 78q68 47 122 99q16 12 23 6q6 -8 -23 -33q-57 -53 -120 -94q-127 -86 -248 -90
q-147 -6 -144 92q0 53 54 112l-2 2q-2 -4 -14.5 -14t-14.5 -12q-23 -18 -29 -12q-4 8 13 24q31 29 69 57q41 31 105 64q127 63 223 63h2q92 0 88 -61q-4 -63 -135 -127q-82 -39 -201 -64q-12 -18 -12 -45q0 -45 49 -45zM143 127q70 12 142 63q82 59 90 115q6 31 -23 31
q-39 0 -110 -78q-66 -74 -99 -131z" />
    <glyph glyph-name="Gbreve" unicode="&#x11e;" horiz-adv-x="1019" 
d="M1282 752q2 -84 -68.5 -164t-187.5 -142q-96 -49 -230 -72.5t-251 -15.5q-70 2 -142 27q-96 -137 -106 -254q-4 -53 21.5 -87t74.5 -36q133 -2 336 207q63 63 148 64q31 0 36 -6.5t-10 -26.5l-102 -135l-121 -160v-2q102 53 205 131q68 51 133 110q27 16 29 15
q8 -8 -27 -39q-47 -43 -121 -98q-94 -72 -242 -152q-121 -174 -251 -330q-123 -141 -281 -236t-266 -95q-49 0 -76 21.5t-25 64.5q12 135 318 323q88 53 210 112.5t203 112.5l177 240q-152 -150 -316 -152q-197 -4 -213 150q-16 150 123 322q-117 78 -117 194
q0 119 98.5 187.5t237.5 68.5q164 0 285 -96q209 72 352 69q166 1 166 -120zM1257 754q0 96 -137 96q-154 0 -319 -90q33 -51 43 -107q6 -29 7 -53.5t-5 -24.5q-2 0 -3 4.5t-8.5 24l-17.5 45.5q-23 57 -55 86q-121 -82 -213 -170q-70 -70 -135 -166q55 -16 121 -18
q94 -4 224 27.5t234 87.5q109 59 187.5 130t76.5 128zM461 866h-2q-121 0 -206 -58t-85 -165q0 -104 104 -180q86 102 183 170q131 96 264 147q-108 86 -258 86zM467 -147q-49 -31 -156.5 -89.5t-212.5 -125.5q-96 -61 -176 -145.5t-84 -154.5q-2 -53 47 -57q51 -8 127 41
q115 74 262 266zM1024 967q-45 6 -74.5 39.5t-27.5 78.5q4 23 12 23q2 0 10 -16q25 -45 92 -52q109 -8 183 56q10 14 18 8q6 -2 -2 -19q-88 -132 -211 -118z" />
    <glyph glyph-name="gbreve" unicode="&#x11f;" horiz-adv-x="686" 
d="M358 653h2q2 0 9 -16q23 -59 92 -66q90 -8 178 70q12 12 20 8q10 -4 0 -18q-88 -145 -213 -133q-45 4 -74.5 39.5t-27.5 93.5q0 22 14 22zM145 -152l-151.5 -86.5t-235.5 -144.5q-139 -92 -231 -189.5t-100 -172.5q-2 -47 30 -58q47 -12 129 35q154 86 375 369
q65 81 184 247zM401 334h-2q-53 0 -190 -133q-119 -119 -113 -162q2 -20 27 -21q29 0 79 29t93 68q51 45 96 102t47 80q2 37 -37 37zM190 309q113 53 201 47q39 -2 55.5 -23.5t10.5 -45.5h2q41 43 61.5 53t67.5 10q51 0 51 -13q0 -6 -8 -18l-109 -137l-170 -229
q111 59 223 145l111 92q16 18 25 11q6 -8 -21 -31q-57 -53 -123 -100q-106 -80 -237 -154q-106 -162 -207 -289q-227 -287 -529 -420q-80 -39 -153 -38q-115 0 -109 86q4 154 406 393q98 59 228 126.5t198 110.5q55 74 147 211l-2 2q-137 -117 -241 -116q-53 -2 -83 17
t-28 62q4 53 63 117l-2 2q-6 -6 -22 -18q-20 -18 -27 -12q-6 8 21 30q33 33 71 58q57 40 129 71z" />
    <glyph glyph-name="Gcommaaccent" unicode="&#x122;" horiz-adv-x="1019" 
d="M1282 752q2 -84 -68.5 -164t-187.5 -142q-96 -49 -230 -72.5t-251 -15.5q-70 2 -142 27q-96 -137 -106 -254q-4 -53 21.5 -87t74.5 -36q133 -2 336 207q63 63 148 64q31 0 36 -6.5t-10 -26.5l-102 -135l-121 -160v-2q102 53 205 131q68 51 133 110q27 16 29 15
q8 -8 -27 -39q-47 -43 -121 -98q-94 -72 -242 -152q-121 -174 -251 -330q-123 -141 -281 -236t-266 -95q-49 0 -76 21.5t-25 64.5q12 135 318 323q88 53 210 112.5t203 112.5l177 240q-152 -150 -316 -152q-197 -4 -213 150q-16 150 123 322q-117 78 -117 194
q0 119 98.5 187.5t237.5 68.5q164 0 285 -96q209 72 352 69q166 1 166 -120zM1257 754q0 96 -137 96q-154 0 -319 -90q33 -51 43 -107q6 -29 7 -53.5t-5 -24.5q-2 0 -3 4.5t-8.5 24l-17.5 45.5q-23 57 -55 86q-121 -82 -213 -170q-70 -70 -135 -166q55 -16 121 -18
q94 -4 224 27.5t234 87.5q109 59 187.5 130t76.5 128zM461 866h-2q-121 0 -206 -58t-85 -165q0 -104 104 -180q86 102 183 170q131 96 264 147q-108 86 -258 86zM467 -147q-49 -31 -156.5 -89.5t-212.5 -125.5q-96 -61 -176 -145.5t-84 -154.5q-2 -53 47 -57q51 -8 127 41
q115 74 262 266zM113 -262q-2 4 14 20q43 43 68 92q4 8 1 26t-1 24q10 33 94 41q27 4 26 -19q0 -14 -14 -31q-55 -76 -164 -145q-20 -12 -24 -8z" />
    <glyph glyph-name="gcommaaccent" unicode="&#x123;" horiz-adv-x="686" 
d="M145 -152l-151.5 -86.5t-235.5 -144.5q-139 -92 -231 -189.5t-100 -172.5q-2 -47 30 -58q47 -12 129 35q154 86 375 369q65 81 184 247zM401 334h-2q-53 0 -190 -133q-119 -119 -113 -162q2 -20 27 -21q29 0 79 29t93 68q51 45 96 102t47 80q2 37 -37 37zM190 309
q113 53 201 47q39 -2 55.5 -23.5t10.5 -45.5h2q41 43 61.5 53t67.5 10q51 0 51 -13q0 -6 -8 -18l-109 -137l-170 -229q111 59 223 145l111 92q16 18 25 11q6 -8 -21 -31q-57 -53 -123 -100q-106 -80 -237 -154q-106 -162 -207 -289q-227 -287 -529 -420q-80 -39 -153 -38
q-115 0 -109 86q4 154 406 393q98 59 228 126.5t198 110.5q55 74 147 211l-2 2q-137 -117 -241 -116q-53 -2 -83 17t-28 62q4 53 63 117l-2 2q-6 -6 -22 -18q-20 -18 -27 -12q-6 8 21 30q33 33 71 58q57 40 129 71zM596 674q4 -8 -14 -23q-43 -43 -68 -94q-4 -8 -1 -24.5
t1 -24.5q-10 -31 -94 -39q-27 -4 -27 18q0 14 15 31q72 90 165 146q19 12 23 10z" />
    <glyph glyph-name="Imacron" unicode="&#x12a;" horiz-adv-x="989" 
d="M1319 850l-110.5 -22.5t-123.5 -26.5q-166 -39 -297 -113q-55 -31 -93 -75t-38 -87q0 -51 52 -51q29 0 53 17q18 12 20 10q4 -8 -10 -23q-31 -25 -74 -28q-49 -4 -83.5 20.5t-34.5 67.5q0 113 180 192q102 49 321 94q29 6 84.5 16.5t96.5 17.5t57 13q43 14 55 13
q8 0 10 -7.5t-2 -14.5t-12 -11q-88 -35 -194 -186q-29 -41 -89.5 -135.5t-93.5 -137.5q-332 -430 -774 -430q-117 0 -186.5 40t-69.5 118q0 55 38 96t91 41q47 0 67.5 -27.5t14.5 -62.5q-8 -37 -45 -66q-41 -37 -41 -63q0 -25 32 -40t87 -15q297 0 606 411q143 190 213 262
q150 150 293 193zM1139 987q-14 0 -18.5 2t1.5 10q29 43 60 48q98 12 254 12q35 0 34 -21q0 -12 -16 -28q-25 -25 -41 -25q-174 8 -274 2z" />
    <glyph glyph-name="imacron" unicode="&#x12b;" horiz-adv-x="395" 
d="M532 567v-2q0 -10 -12 -22q-20 -20 -39 -21q-154 6 -274 0q-16 0 -19.5 2t2.5 13q29 37 60 41q135 16 254 10q28 -3 28 -21zM199 307q-41 -14 -117 -74l-82 -69q-20 -18 -29 -12q-6 6 17 28q82 74 147 115q80 55 164 55q66 0 67 -13q1 -7 -12 -20q-76 -86 -114 -135
q-45 -57 -70 -100q-18 -37 -6 -45t45 8q35 16 90 61l96 82q23 20 29 14.5t-18 -28.5q-53 -55 -119 -104q-117 -88 -205 -88q-80 0 -80 57q0 33 29 78q29 47 86 110.5t82 79.5z" />
    <glyph glyph-name="Iogonek" unicode="&#x12e;" horiz-adv-x="989" 
d="M1026 657q145 150 289 191q-109 -18 -230 -47q-166 -39 -297 -113q-55 -31 -93 -75t-38 -87q0 -51 50 -51q31 0 55 17q18 12 20 10q4 -8 -10 -23q-31 -25 -74 -28q-49 -4 -83.5 20.5t-34.5 67.5q0 113 180 192q102 49 321 94q29 6 84.5 16.5t96.5 17.5t57 13
q43 14 55 12.5t10 -15t-14 -17.5q-88 -35 -194 -186q-29 -41 -89.5 -135.5t-93.5 -137.5q-233 -305 -520 -393q-125 -61 -145 -129q-14 -43 26 -47q31 -2 76 24q18 10 23 7q4 -8 -9 -21q-70 -74 -149 -67q-39 2 -58.5 27.5t-9.5 58.5q18 63 174 131q-84 -20 -182 -21
q-117 0 -186.5 40t-69.5 118q0 55 38 96t91 41q47 0 67.5 -27.5t14.5 -62.5q-8 -37 -45 -66q-41 -37 -41 -63q0 -25 32 -40t87 -15q297 0 606 411q143 190 213 262z" />
    <glyph glyph-name="iogonek" unicode="&#x12f;" horiz-adv-x="395" 
d="M465 616h2q31 0 38 -18t-16 -47q-23 -31 -62.5 -52.5t-61.5 -21.5q-27 39 -3 90q21 49 103 49zM135 295q80 55 164 55q66 0 67 -13q1 -7 -12 -20q-76 -86 -114 -135q-45 -57 -70 -100q-18 -37 -6 -45t45 8q35 16 90 61l96 82q23 20 29 14.5t-18 -28.5
q-53 -55 -119 -104.5t-117 -69.5q-119 -63 -143 -129q-14 -43 28 -47q31 -2 76 24q18 10 21 7q6 -8 -7 -21q-70 -70 -151 -67q-39 2 -57.5 26.5t-8.5 59.5q18 63 174 131q-6 -2 -20 -2q-80 0 -80 57q0 33 29 78q29 47 86 110.5t82 79.5q-41 -14 -117 -74l-80 -67
q-27 -18 -31 -14q-8 4 17 28q81 74 147 115z" />
    <glyph glyph-name="Idotaccent" unicode="&#x130;" horiz-adv-x="989" 
d="M1319 850l-110.5 -22.5t-123.5 -26.5q-166 -39 -297 -113q-55 -31 -93 -75t-38 -87q0 -51 52 -51q29 0 53 17q18 12 20 10q4 -8 -10 -23q-31 -25 -74 -28q-49 -4 -83.5 20.5t-34.5 67.5q0 113 180 192q102 49 321 94q29 6 84.5 16.5t96.5 17.5t57 13q43 14 55 13
q8 0 10 -7.5t-2 -14.5t-12 -11q-88 -35 -194 -186q-29 -41 -89.5 -135.5t-93.5 -137.5q-332 -430 -774 -430q-117 0 -186.5 40t-69.5 118q0 55 38 96t91 41q47 0 67.5 -27.5t14.5 -62.5q-8 -37 -45 -66q-41 -37 -41 -63q0 -25 32 -40t87 -15q297 0 606 411q143 190 213 262
q150 150 293 193zM1298 997q-20 20 -4 78q20 47 99 47q27 0 34 -18.5t-12 -40.5q-23 -29 -60 -47.5t-57 -18.5z" />
    <glyph glyph-name="dotlessi" unicode="&#x131;" horiz-adv-x="395" 
d="M199 307q-41 -14 -117 -74l-82 -69q-20 -18 -29 -12q-6 6 17 28q82 74 147 115q80 55 164 55q66 0 67 -13q1 -7 -12 -20q-76 -86 -114 -135q-45 -57 -70 -100q-18 -37 -6 -45t45 8q35 16 90 61l96 82q23 20 29 14.5t-18 -28.5q-53 -55 -119 -104q-117 -88 -205 -88
q-80 0 -80 57q0 33 29 78q29 47 86 110.5t82 79.5z" />
    <glyph glyph-name="Kcommaaccent" unicode="&#x136;" horiz-adv-x="1372" 
d="M1845 752q0 -70 -83 -118t-175 -40q-49 4 -74 20q-9 6 -6 13q2 2 13 -2q20 -10 61 -15q86 -8 162 36t76 108q0 39 -30 61.5t-71 22.5q-53 0 -103 -32t-82 -68t-81 -103q-11 -14 -16 -23q-123 -164 -346 -217q61 -23 84 -76q18 -49 -29 -129q-10 -16 -27.5 -41.5l-26 -38
t-15.5 -30t-7 -31.5q0 -35 39 -35q55 0 154 82l100 86q25 18 31 13q4 -4 -19 -27q-27 -27 -104 -92q-125 -98 -221 -99q-119 0 -123 86q-4 68 63 156q74 94 74 123q0 23 -14 41q-33 -12 -62 -12q-25 0 -42 7t-15 21q2 27 65 27q31 0 70 -16q37 16 70.5 45.5t55 54.5l58.5 71
t60 70q186 209 413 205q51 -2 88 -29.5t35 -74.5zM-43 121v2q0 57 37 94t88 37q37 -2 60.5 -23.5t23.5 -58.5q-2 -35 -39 -78q-27 -27 -27 -55q0 -59 90 -59q61 0 123 27.5t126.5 87t102.5 100.5t103.5 121.5l77.5 95.5q150 172 319 268v2q-158 -90 -337 -90
q-125 0 -194 33.5t-62 103.5q2 68 69 109q39 25 94 24q27 0 4 -24q-47 -47 -53 -107q-4 -49 33 -83t111 -34q113 0 241.5 45.5t218.5 126.5q45 45 66 39q34 -7 -10 -41q-6 -5 -13 -10q-43 -27 -135 -143l-55 -74l-61.5 -83t-45.5 -58q-360 -455 -733 -455q-88 0 -155.5 40
t-67.5 120zM989 385h2q27 0 43 10q-14 12 -39 15q-43 4 -43 -10.5t37 -14.5zM586 -203q-2 4 14 21q43 43 68 92q4 8 1 25.5t-1 23.5q10 33 94 41q27 4 26 -18q0 -14 -14 -31q-55 -76 -164 -146q-20 -12 -24 -8z" />
    <glyph glyph-name="kcommaaccent" unicode="&#x137;" horiz-adv-x="739" 
d="M98 250l-2 2l-92 -84q-16 -12 -22 -4q-2 8 18 26q14 14 64.5 56.5l70.5 60.5q100 135 242 303q117 139 255 269.5t240 201.5q121 84 203 84q35 0 51.5 -20.5t12.5 -52.5q-14 -147 -396 -435l-142 -102.5l-168 -120.5t-105 -82q-84 -100 -187 -256l2 -2q145 129 176 154
q84 61 138 86q63 25 123 22q47 0 71.5 -20.5t20.5 -48.5q-6 -45 -92 -58q-76 -12 -91 -28q-18 -25 -14 -88q6 -70 35 -76q18 -2 53 16q39 23 78 53q74 59 102 87q18 16 24.5 10t-22.5 -33q-63 -59 -118 -102q-106 -82 -203 -82q-100 0 -94 98q6 76 45 111q23 20 92 30
q39 6 57 29q12 12 14.5 32.5t-12.5 32.5q-23 12 -71 -10q-66 -31 -154 -102q-33 -27 -114 -99.5t-109 -93.5q-25 -18 -82 -22q-41 -2 -51.5 5t0.5 28q18 37 84 137q6 10 69 88zM350 393q55 47 182 146.5t175 140.5q367 309 376 424q6 39 -32 39q-51 0 -138 -82
q-92 -88 -262 -293zM45 -240q-4 4 14 23q43 43 68 94q4 8 1 24.5t-1 24.5q14 31 94 39q27 2 27 -18q0 -14 -15 -31q-70 -86 -163 -145q-21 -13 -25 -11z" />
    <glyph glyph-name="Lacute" unicode="&#x139;" horiz-adv-x="1226" 
d="M516 717v2q0 82 82 146.5t219 64.5q190 0 324 -111q86 31 190 31q96 2 162 -38t57 -105q-12 -90 -146 -144.5t-292 -73.5q-106 -10 -203 0q-145 -219 -364 -362q31 -4 178 -43q102 -27 170 -27q98 0 175 29t161 107q18 12 22 8q8 -8 -18 -29q-113 -111 -187.5 -156
t-169 -45t-204.5 41q-178 66 -187 68q-137 -102 -276 -105q-127 -4 -123 48q2 47 101.5 80.5t203.5 35.5q41 2 111 -4q57 57 135 195.5t111 183.5q-98 20 -165 74.5t-67 128.5zM920 508q76 -8 194 6q113 14 231.5 70.5t131.5 138.5q6 53 -34 82t-102 29q-94 0 -165 -54
q23 -31 32 -65q6 -20 8.5 -40t0 -28t-4.5 -8t-3 6t-8 24.5t-19 41.5q-12 25 -37 49q-94 -66 -225 -252zM537 719v-2q0 -66 65.5 -116t157.5 -71q141 205 342 277q-121 82 -295 82q-125 0 -197.5 -49t-72.5 -121zM455 90q-78 20 -146 19q-51 -2 -93 -25t-40 -51q4 -37 66 -33
q119 4 213 90zM1262 965q-12 4 -11 10q16 8 50 29.5l47 29.5q31 18 143 96q23 12 39 5q10 -4 15 -20.5t-3 -33.5q-25 -33 -110 -63q-104 -43 -170 -53z" />
    <glyph glyph-name="lacute" unicode="&#x13a;" horiz-adv-x="393" 
d="M100 252l-2 2l-94 -86q-16 -12 -22 -4q-2 8 18 26q6 6 141 121q104 139 246 299q113 131 231 242q51 51 119 51q47 0 56 -20q-33 -27 -134.5 -137.5t-175.5 -200.5q-293 -354 -331 -457q-14 -35 0 -47q16 -10 45 4q43 18 98 61q39 29 98 84q20 18 26.5 12.5t-18.5 -30.5
q-70 -66 -120 -102q-123 -88 -213 -88q-84 0 -84 63q1 76 116 207zM690 991q-12 4 -10 10q16 8 50 30l46 30q31 18 144 96q23 12 38 4q10 -4 15.5 -20.5t-2.5 -32.5q-25 -33 -111 -64q-104 -43 -170 -53z" />
    <glyph glyph-name="Lcommaaccent" unicode="&#x13b;" horiz-adv-x="1226" 
d="M516 717v2q0 82 82 146.5t219 64.5q190 0 324 -111q86 31 190 31q96 2 162 -38t57 -105q-12 -90 -146 -144.5t-292 -73.5q-106 -10 -203 0q-145 -219 -364 -362q31 -4 178 -43q102 -27 170 -27q98 0 175 29t161 107q18 12 22 8q8 -8 -18 -29q-113 -111 -187.5 -156
t-169 -45t-204.5 41q-178 66 -187 68q-137 -102 -276 -105q-127 -4 -123 48q2 47 101.5 80.5t203.5 35.5q41 2 111 -4q57 57 135 195.5t111 183.5q-98 20 -165 74.5t-67 128.5zM920 508q76 -8 194 6q113 14 231.5 70.5t131.5 138.5q6 53 -34 82t-102 29q-94 0 -165 -54
q23 -31 32 -65q6 -20 8.5 -40t0 -28t-4.5 -8t-3 6t-8 24.5t-19 41.5q-12 25 -37 49q-94 -66 -225 -252zM537 719v-2q0 -66 65.5 -116t157.5 -71q141 205 342 277q-121 82 -295 82q-125 0 -197.5 -49t-72.5 -121zM455 90q-78 20 -146 19q-51 -2 -93 -25t-40 -51q4 -37 66 -33
q119 4 213 90zM389 -264q-2 4 14 20q43 43 68 92q4 8 1 25.5t-1 24.5q10 33 94 41q27 4 27 -19q0 -14 -14 -31q-55 -76 -164 -145q-21 -12 -25 -8z" />
    <glyph glyph-name="lcommaaccent" unicode="&#x13c;" horiz-adv-x="393" 
d="M100 252l-2 2l-94 -86q-16 -12 -22 -4q-2 8 18 26q6 6 141 121q104 139 246 299q113 131 231 242q51 51 119 51q47 0 56 -20q-33 -27 -134.5 -137.5t-175.5 -200.5q-293 -354 -331 -457q-14 -35 0 -47q16 -10 45 4q43 18 98 61q39 29 98 84q20 18 26.5 12.5t-18.5 -30.5
q-70 -66 -120 -102q-123 -88 -213 -88q-84 0 -84 63q1 76 116 207zM-162 -295q-4 4 15 23q43 43 67 94q4 8 1 24.5t-1 24.5q14 31 94 39q27 2 27 -19q0 -14 -14 -30q-70 -86 -164 -146q-21 -12 -25 -10z" />
    <glyph glyph-name="Lcaron" unicode="&#x13d;" horiz-adv-x="1226" 
d="M516 717v2q0 82 82 146.5t219 64.5q190 0 324 -111q86 31 190 31q96 2 162 -38t57 -105q-12 -90 -146 -144.5t-292 -73.5q-106 -10 -203 0q-145 -219 -364 -362q31 -4 178 -43q102 -27 170 -27q98 0 175 29t161 107q18 12 22 8q8 -8 -18 -29q-113 -111 -187.5 -156
t-169 -45t-204.5 41q-178 66 -187 68q-137 -102 -276 -105q-127 -4 -123 48q2 47 101.5 80.5t203.5 35.5q41 2 111 -4q57 57 135 195.5t111 183.5q-98 20 -165 74.5t-67 128.5zM920 508q76 -8 194 6q113 14 231.5 70.5t131.5 138.5q6 53 -34 82t-102 29q-94 0 -165 -54
q23 -31 32 -65q6 -20 8.5 -40t0 -28t-4.5 -8t-3 6t-8 24.5t-19 41.5q-12 25 -37 49q-94 -66 -225 -252zM537 719v-2q0 -66 65.5 -116t157.5 -71q141 205 342 277q-121 82 -295 82q-125 0 -197.5 -49t-72.5 -121zM455 90q-78 20 -146 19q-51 -2 -93 -25t-40 -51q4 -37 66 -33
q119 4 213 90zM1597 637q-2 4 15 20q43 43 67 93q4 8 1 25.5t-1 23.5q10 33 95 41q27 4 26 -19q0 -14 -14 -30q-55 -76 -164 -146q-21 -12 -25 -8z" />
    <glyph glyph-name="lcaron" unicode="&#x13e;" horiz-adv-x="393" 
d="M100 252l-2 2l-94 -86q-16 -12 -22 -4q-2 8 18 26q6 6 141 121q104 139 246 299q113 131 231 242q51 51 119 51q47 0 56 -20q-33 -27 -134.5 -137.5t-175.5 -200.5q-293 -354 -331 -457q-14 -35 0 -47q16 -10 45 4q43 18 98 61q39 29 98 84q20 18 26.5 12.5t-18.5 -30.5
q-70 -66 -120 -102q-123 -88 -213 -88q-84 0 -84 63q1 76 116 207zM780 698q-2 4 15 21q43 43 67 92q4 8 1 25.5t-1 23.5q10 33 94 41q27 4 27 -18q0 -14 -14 -31q-55 -76 -164 -145q-21 -13 -25 -9z" />
    <glyph glyph-name="Lslash" unicode="&#x141;" horiz-adv-x="1226" 
d="M545 127q31 -4 178 -43q102 -27 170 -27q98 0 175 29t161 107q18 12 22 8q6 -4 -16 -27q-113 -113 -188.5 -158t-170 -45t-204.5 41q-178 66 -187 68q-137 -102 -276 -105q-127 -4 -123 48q2 47 101.5 80.5t203.5 35.5q45 2 111 -4q47 45 104 141q-25 -8 -55.5 -20
t-32.5 -12q-39 -12 -45 2q-10 27 27 39q43 14 133 39q86 152 115 190q-98 20 -165 74.5t-67 128.5q0 84 82 148.5t219 64.5q190 0 324 -111q86 31 190 31q96 2 162 -38t57 -105q-12 -90 -146 -144.5t-292 -73.5q-106 -10 -203 0q-53 -80 -98 -129q57 14 150 46q27 4 28 -3
q2 -4 -4 -9t-18 -9q-2 0 -37 -13.5t-80 -28.5l-78 -26q-98 -102 -227 -190zM920 508q76 -8 194 6q113 14 231.5 70.5t131.5 138.5q6 53 -34 82t-102 29q-94 0 -165 -54q23 -31 32 -65q6 -20 8.5 -40t0 -28t-4.5 -8t-3 2t-2 7t-3 13.5t-8 21.5t-14 28q-12 25 -37 49
q-94 -66 -225 -252zM537 719q0 -68 65.5 -118t157.5 -71q141 205 342 277q-121 82 -295 82q-125 0 -197.5 -49t-72.5 -121zM455 90q-78 20 -146 19q-51 -2 -93 -25t-40 -51q4 -37 66 -33q119 4 213 90z" />
    <glyph glyph-name="lslash" unicode="&#x142;" horiz-adv-x="395" 
d="M317 625q-39 -10 -45 4q-2 12 6.5 19t26.5 11q29 8 160 33q90 100 168 172q41 41 96 41q49 0 59 -20q-14 -14 -145 -158q27 6 87.5 17.5l82.5 15.5q31 6 33 -2q2 -6 -3 -8t-22 -7q-117 -31 -209 -51q-96 -106 -200 -239q-229 -279 -262 -375q-10 -27 4 -39q12 -8 45 6
q41 18 96 61q49 37 104 89q14 14 23 8q6 -6 -19 -29q-61 -61 -122 -104q-117 -88 -211 -88q-84 0 -84 63q2 76 110 205q-35 -29 -51 -45q-39 -33 -49 -35q-4 -1 -4 2q0 4 6 12q18 20 92 86q10 8 35 35l55.5 60.5t46.5 52.5q72 92 197 231q-25 -6 -49.5 -11t-39 -9t-18.5 -4z
" />
    <glyph glyph-name="Nacute" unicode="&#x143;" horiz-adv-x="1372" 
d="M-190 98v2q0 59 40.5 96t90.5 37q86 0 86 -69q0 -33 -39 -68q-43 -35 -47 -59q-4 -33 30.5 -51.5t104.5 -18.5q125 0 280.5 63.5t294.5 172.5q293 223 445 510q20 41 59 80q53 49 100 49q23 0 31 -9.5t0 -19.5q-31 -45 -47 -113q-12 -49 -29 -249q-18 -227 -53 -314h2
q205 299 389 506q135 154 249 241t220 85q61 -2 96 -39t31 -90q-4 -23 -10 -23q-2 0 -2 3t-1 9.5t-3 10.5q-20 61 -111 63q-168 8 -446 -285q-193 -201 -479 -614q-29 -45 -64 -33q-47 14 -35 54q47 143 56 329q12 229 34 291h-2q-59 -113 -174.5 -238.5t-242.5 -222.5
q-147 -111 -304 -176t-286 -67q-111 -2 -187.5 36.5t-76.5 120.5zM1473 965q-12 4 -11 10q16 8 50 29.5l47 29.5q31 18 143 96q23 12 39 5q10 -4 15 -20.5t-3 -33.5q-25 -33 -111 -63q-103 -43 -169 -53z" />
    <glyph glyph-name="nacute" unicode="&#x144;" horiz-adv-x="833" 
d="M631 702q31 0 39 -18q16 -35 -19 -70q-53 -53 -174 -125q-20 -10 -26 -4q-4 4 12 25q16 18 121 154q22 36 47 38zM526 -14q-53 -2 -73.5 19.5t-14.5 53.5q4 39 74 125q47 53 84 101q16 20 -2 26q-16 8 -59 -14q-61 -31 -152 -98l-233 -183q-27 -23 -87 -24q-41 -2 -50 5
t-1 28q33 63 94 137l87 110q16 23 6 31q-8 8 -31 -6q-39 -23 -76 -53q-57 -45 -90 -78q-27 -25 -35 -16q-4 8 21 28q51 51 106 94q109 84 182 84q72 0 72 -51q0 -33 -45 -90l-94 -121l4 -2q86 72 193 150q156 115 256 114q86 0 79 -61q-2 -33 -75 -125q-49 -61 -64 -84
q-20 -35 -6 -47q16 -10 51 10q51 25 88 57l103 87q18 16 24 10t-10 -21q-66 -68 -131 -112q-115 -84 -195 -84z" />
    <glyph glyph-name="Ncommaaccent" unicode="&#x145;" horiz-adv-x="1372" 
d="M-190 98v2q0 59 40.5 96t90.5 37q86 0 86 -69q0 -33 -39 -68q-43 -35 -47 -59q-4 -33 30.5 -51.5t104.5 -18.5q125 0 280.5 63.5t294.5 172.5q293 223 445 510q20 41 59 80q53 49 100 49q23 0 31 -9.5t0 -19.5q-31 -45 -47 -113q-12 -49 -29 -249q-18 -227 -53 -314h2
q205 299 389 506q135 154 249 241t220 85q61 -2 96 -39t31 -90q-4 -23 -10 -23q-2 0 -2 3t-1 9.5t-3 10.5q-20 61 -111 63q-168 8 -446 -285q-193 -201 -479 -614q-29 -45 -64 -33q-47 14 -35 54q47 143 56 329q12 229 34 291h-2q-59 -113 -174.5 -238.5t-242.5 -222.5
q-147 -111 -304 -176t-286 -67q-111 -2 -187.5 36.5t-76.5 120.5zM580 -201q-2 4 14 21q43 43 68 92q4 8 0.5 25.5t-0.5 23.5q10 33 94 41q27 4 26 -18q0 -14 -14 -31q-55 -76 -164 -146q-20 -12 -24 -8z" />
    <glyph glyph-name="ncommaaccent" unicode="&#x146;" horiz-adv-x="833" 
d="M526 -14q-53 -2 -73.5 19.5t-14.5 53.5q4 39 74 125q47 53 84 101q16 20 -2 26q-16 8 -59 -14q-61 -31 -152 -98l-233 -183q-27 -23 -87 -24q-41 -2 -50 5t-1 28q33 63 94 137l87 110q16 23 6 31q-8 8 -31 -6q-39 -23 -76 -53q-57 -45 -90 -78q-27 -25 -35 -16
q-4 8 21 28q51 51 106 94q109 84 182 84q72 0 72 -51q0 -33 -45 -90l-94 -121l4 -2q86 72 193 150q156 115 256 114q86 0 79 -61q-2 -33 -75 -125q-49 -61 -64 -84q-20 -35 -6 -47q16 -10 51 10q51 25 88 57l103 87q18 16 24 10t-10 -21q-66 -68 -131 -112
q-115 -84 -195 -84zM121 -248q-4 4 14 23q43 43 68 94q4 8 1 24.5t-1 24.5q14 31 94 39q27 2 27 -18q0 -14 -15 -31q-70 -86 -164 -146q-20 -12 -24 -10z" />
    <glyph glyph-name="Ncaron" unicode="&#x147;" horiz-adv-x="1372" 
d="M-190 98v2q0 59 40.5 96t90.5 37q86 0 86 -69q0 -33 -39 -68q-43 -35 -47 -59q-4 -33 30.5 -51.5t104.5 -18.5q125 0 280.5 63.5t294.5 172.5q293 223 445 510q20 41 59 80q53 49 100 49q23 0 31 -9.5t0 -19.5q-31 -45 -47 -113q-12 -49 -29 -249q-18 -227 -53 -314h2
q205 299 389 506q135 154 249 241t220 85q61 -2 96 -39t31 -90q-4 -23 -10 -23q-2 0 -2 3t-1 9.5t-3 10.5q-20 61 -111 63q-168 8 -446 -285q-193 -201 -479 -614q-29 -45 -64 -33q-47 14 -35 54q47 143 56 329q12 229 34 291h-2q-59 -113 -174.5 -238.5t-242.5 -222.5
q-147 -111 -304 -176t-286 -67q-111 -2 -187.5 36.5t-76.5 120.5zM1552 952q-4 0 -12 15q-29 70 -74 145q-8 14 -6 16q6 6 25 -4q47 -20 100 -71q102 49 211 80q25 6 27 -0.5t-15 -16.5q-115 -68 -235 -153q-15 -11 -21 -11z" />
    <glyph glyph-name="ncaron" unicode="&#x148;" horiz-adv-x="833" 
d="M524 485h-2q-8 0 -12 15q-35 90 -74 151q-8 12 -6 15q4 6 27 -2q63 -31 106 -78q98 53 213 86q23 10 27 0q2 -8 -15 -17q-158 -92 -241 -159q-13 -13 -23 -11zM526 -14q-53 -2 -73.5 19.5t-14.5 53.5q4 39 74 125q47 53 84 101q16 20 -2 26q-16 8 -59 -14
q-61 -31 -152 -98l-233 -183q-27 -23 -87 -24q-41 -2 -50 5t-1 28q33 63 94 137l87 110q16 23 6 31q-8 8 -31 -6q-39 -23 -76 -53q-57 -45 -90 -78q-27 -25 -35 -16q-4 8 21 28q51 51 106 94q109 84 182 84q72 0 72 -51q0 -33 -45 -90l-94 -121l4 -2q86 72 193 150
q156 115 256 114q86 0 79 -61q-2 -33 -75 -125q-49 -61 -64 -84q-20 -35 -6 -47q16 -10 51 10q51 25 88 57l103 87q18 16 24 10t-10 -21q-66 -68 -131 -112q-115 -84 -195 -84z" />
    <glyph glyph-name="Omacron" unicode="&#x14c;" horiz-adv-x="933" 
d="M330 106v-2q0 -47 26 -77q10 -10 9 -13q-4 -8 -17 4q-39 27 -51 91q-8 70 26.5 164t110.5 186q102 129 234.5 203.5t226.5 70.5q106 -6 106 -141q0 -66 -33.5 -155t-95.5 -165q-106 -129 -273 -218t-308 -85q-88 2 -162 40t-92 128q-25 115 37.5 239t158.5 214
q143 137 335 209.5t358 56.5q137 -14 151 -113q6 -59 -35 -100q-20 -25 -28 -16l16 24q31 39 25 90q-6 41 -43 64.5t-86 23.5q-137 4 -292 -90t-263 -207q-94 -102 -152.5 -226t-38.5 -216q18 -98 135 -102q207 -6 467 311q160 201 172 340q4 35 -14 54.5t-47 21.5
q-78 4 -185.5 -71t-209.5 -206q-168 -213 -168 -332zM788 987q-14 0 -18 2t2 10q29 43 59 48q98 12 254 12q35 0 35 -21q0 -12 -16 -28q-25 -25 -41 -25q-175 8 -275 2z" />
    <glyph glyph-name="omacron" unicode="&#x14d;" horiz-adv-x="600" 
d="M643 567v-2q0 -10 -12 -22q-20 -20 -39 -21q-154 6 -275 0q-16 0 -19 2t3 13q29 37 59 41q135 16 254 10q29 -3 29 -21zM39 199q-20 -16 -35 -31q-27 -23 -33 -16q-4 4 13 24q18 18 67 55q45 31 86 54q129 72 228 71q47 0 47 -12l-29 -14q-61 -29 -147 -113
q-45 -45 -81 -99.5t-36 -86.5q-4 -29 26 -29q35 0 92.5 38t108.5 91q0 45 33 92q20 31 67 62v34l-5 14.5t-3 9.5t2 5q14 8 45 -14q37 -27 37 -72q-4 -78 -116 -174q6 -4 28 -4q35 2 78 33q31 23 88 73q18 18 27 13q10 -6 -11 -23q-55 -51 -96 -80q-47 -35 -88 -37
q-31 0 -45 11q-43 -33 -120 -62.5t-136 -29.5q-141 0 -145 98q0 61 55 117z" />
    <glyph glyph-name="Ohungarumlaut" unicode="&#x150;" horiz-adv-x="933" 
d="M330 106v-2q0 -47 26 -77q10 -10 9 -13q-4 -8 -17 4q-39 27 -51 91q-8 70 26.5 164t110.5 186q102 129 234.5 203.5t226.5 70.5q106 -6 106 -141q0 -66 -33.5 -155t-95.5 -165q-106 -129 -273 -218t-308 -85q-88 2 -162 40t-92 128q-25 115 37.5 239t158.5 214
q143 137 335 209.5t358 56.5q137 -14 151 -113q6 -59 -35 -100q-20 -25 -28 -16l16 24q31 39 25 90q-6 41 -43 64.5t-86 23.5q-137 4 -292 -90t-263 -207q-94 -102 -152.5 -226t-38.5 -216q18 -98 135 -102q207 -6 467 311q160 201 172 340q4 35 -14 54.5t-47 21.5
q-78 4 -185.5 -71t-209.5 -206q-168 -213 -168 -332zM981 965q-4 8 12 20q57 47 123 117q25 25 51 24q25 0 31 -24q6 -29 -29 -51q-61 -39 -161 -84q-23 -8 -27 -2zM801 964.5q-4 6.5 14 20.5q57 47 123 117q25 25 49 24q27 0 33 -24q6 -27 -29 -51q-70 -43 -164 -84
q-22 -9 -26 -2.5z" />
    <glyph glyph-name="ohungarumlaut" unicode="&#x151;" horiz-adv-x="600" 
d="M494 645h2q25 0 30 -22q8 -27 -28 -52q-74 -49 -164 -84q-23 -10 -29 -4q-4 8 14 23q84 74 121 112q27 27 54 27zM659 645h3q23 0 28 -22q10 -29 -26 -52q-70 -47 -164 -84q-25 -10 -31 -4q-2 8 16 23q84 74 121 112q26 27 53 27zM39 199q-20 -16 -35 -31
q-27 -23 -33 -16q-4 4 13 24q18 18 67 55q45 31 86 54q129 72 228 71q47 0 47 -12l-29 -14q-61 -29 -147 -113q-45 -45 -81 -99.5t-36 -86.5q-4 -29 26 -29q35 0 92.5 38t108.5 91q0 45 33 92q20 31 67 62v34l-5 14.5t-3 9.5t2 5q14 8 45 -14q37 -27 37 -72
q-4 -78 -116 -174q6 -4 28 -4q35 2 78 33q31 23 88 73q18 18 27 13q10 -6 -11 -23q-55 -51 -96 -80q-47 -35 -88 -37q-31 0 -45 11q-43 -33 -120 -62.5t-136 -29.5q-141 0 -145 98q0 61 55 117z" />
    <glyph glyph-name="OE" unicode="&#x152;" horiz-adv-x="1495" 
d="M1653 831h-2q-96 0 -207 -67q-90 -57 -137 -119q29 -23 98.5 -41t138.5 -18q102 0 180 33.5t84 97.5q6 45 -33.5 79.5t-121.5 34.5zM1251 471q12 -47 97 -51q74 -4 73 26q2 12 -17.5 19.5t-53.5 9.5q-72 0 -99 -4zM1026 -74h-2q-324 -20 -324 189q-217 -152 -409 -146
q-88 2 -162 40t-92 128q-23 115 38.5 238t160.5 215q156 143 340 212.5t350 53.5q152 -14 166 -113q6 -57 -33 -102q-23 -23 -29 -14l19 24q29 35 18 90q-6 39 -48 62.5t-93 25.5q-137 4 -290 -88t-263 -209q-92 -98 -150.5 -224t-40.5 -218q23 -100 133 -102
q211 -6 467 311q158 199 172 336q4 35 -11 57.5t-50 22.5q-10 0 -18.5 -1t-12.5 -3t-8 -3t-5 -2t-3 1q-2 4 4 9t18.5 10t26.5 5q53 4 82 -31.5t27 -99.5q-4 -96 -50 -192q72 37 187 61q-25 31 -25 80q4 94 84 162q-23 23 -22 67q0 16 4 30.5t8 22t8 5.5q2 -4 1 -5.5
t-3 -16.5t-2 -36q0 -37 20 -57q59 51 166 86q133 43 269 43q98 0 157.5 -38t57.5 -91q-4 -68 -99.5 -111t-218.5 -43q-74 0 -145.5 19.5t-104.5 44.5q-29 -33 -43 -80q-10 -39 -6 -64q66 6 103 5q115 -4 108 -52q-2 -41 -112 -41q-131 0 -193 56q-74 -29 -154 -101
q-100 -90 -120 -196q-18 -96 27.5 -146.5t158.5 -44.5q139 8 285 105q57 39 143 118q18 16 27 9q6 -6 -23 -31q-74 -70 -147 -121q-158 -109 -324 -121z" />
    <glyph glyph-name="oe" unicode="&#x153;" horiz-adv-x="845" 
d="M504 127q70 12 141 63q76 55 90 115q4 31 -22 31q-39 0 -111 -78q-69 -72 -98 -131zM51 231q35 25 86 54q125 72 228 71q47 0 47 -12l-29 -14q-68 -33 -147 -113q-45 -45 -80 -99.5t-37 -86.5q-4 -29 26 -29q72 0 201 129q47 45 76 96q29 49 22 90q-6 29 -4 31
q14 8 45 -14q25 -18 33 -45q18 16 76 35q80 35 145 34q47 0 69.5 -17t20.5 -44q-4 -63 -135 -127q-90 -41 -202 -64q-12 -25 -13 -45q0 -43 51 -43q80 0 195 76q66 45 119 94q16 16 24 11q6 -6 -20 -31q-59 -55 -117 -96q-131 -86 -254 -90q-123 -2 -143 61
q-109 -61 -203 -61q-141 0 -145 98q0 61 55 117l-2 2q-20 -16 -35 -31q-27 -23 -33 -16q-4 4 13 24q18 18 67 55z" />
    <glyph glyph-name="Racute" unicode="&#x154;" horiz-adv-x="1429" 
d="M1626 887h-2q-70 0 -174 -39q-63 -27 -107 -53q66 -33 109 -103.5t2 -150.5q-35 -68 -124 -97.5t-177 -31.5v-2q98 -31 104 -93q6 -51 -51 -127l-28.5 -37.5t-27.5 -39t-16.5 -31t-9.5 -33.5q-2 -12 7.5 -23.5t29.5 -11.5q53 0 160 82q63 51 94 82q25 20 31 14t-12 -24
q-70 -66 -115 -100q-113 -86 -203 -91q-133 -6 -137 86q0 66 78 156q86 98 88 127q6 35 -37 57q-20 -4 -39 -4q-6 0 -31 7q-45 -57 -84 -97q-147 -150 -399 -250q111 -31 174 -30q65 -3 117 30q10 6 17 12.5t10.5 9.5t5.5 3q12 0 -8 -25q-4 -5 -9 -10q-74 -68 -192 -67
q-90 0 -205 32q-141 -43 -328 -39q-184 4 -184 68q0 43 60.5 72.5t152.5 25.5q135 -8 356 -71q16 10 32.5 22t36 29.5l35 31t38 39l37 42l43 50l44 51t49 60.5t52.5 64q184 219 381 334q-121 51 -305 51q-203 0 -382.5 -108.5t-209.5 -272.5q-16 -86 11.5 -144.5t98.5 -62.5
q18 -2 32.5 0t17 3t6.5 -1q2 -4 -4.5 -9t-20.5 -9t-33 -4q-113 0 -179 65.5t-50 167.5q29 180 243 286.5t470 106.5q207 0 335 -51q59 37 138 61q102 33 188 33q117 0 148 -53q4 -8 6 -15.5t2 -11.5t-2 -4t-3 3q-3 10 -14 20q-39 43 -137 43zM1317 768q-61 -53 -139 -162
l-121 -170q18 0 30 -2q20 -2 35 -10q57 8 114.5 43t92.5 94q37 68 32 121t-44 86zM428 25q-172 41 -274 49q-176 14 -177 -33q0 -41 160 -47q174 -4 291 31zM1323 985q-12 4 -10 10q16 8 50 30l46 30q31 18 143 96q23 12 39 4q10 -4 15.5 -20.5t-2.5 -32.5q-25 -33 -111 -64
q-104 -43 -170 -53z" />
    <glyph glyph-name="racute" unicode="&#x155;" horiz-adv-x="471" 
d="M561 709q31 0 39 -19q16 -35 -18 -69q-53 -53 -174 -125q-20 -10 -27 -4q-4 4 12 24q16 18 121 154q22 37 47 39zM389 297v-2q0 -8 -3 -16.5t-11 -19.5l-15.5 -20.5t-24 -27.5t-26.5 -33q-49 -61 -69 -96q-18 -27 -4 -41q12 -12 45 6q37 16 92 59l98 84q20 20 29 15
q4 -4 -21 -31q-41 -45 -121 -104q-100 -82 -188 -84q-55 -2 -79.5 15t-22.5 46q0 57 92 139q131 111 133 117q5 14 -17 17q-11 1 -65 -1q-33 -2 -47 5q-43 -47 -80 -80q-37 -37 -82 -78q-27 -20 -31 -14q-8 8 15 24q14 14 44.5 42l41.5 38q45 41 75 76q-14 10 -15 29.5
t18 39.5q29 37 86 37q43 0 57 -20q-23 -16 -39 -33q-35 -43 6 -47q6 0 18.5 -1t19.5 -2t18.5 -2t18.5 -2t16 -3t15.5 -5.5t11.5 -6.5t8 -8t3 -11z" />
    <glyph glyph-name="Rcommaaccent" unicode="&#x156;" horiz-adv-x="1429" 
d="M1626 887h-2q-70 0 -174 -39q-63 -27 -107 -53q66 -33 109 -103.5t2 -150.5q-35 -68 -124 -97.5t-177 -31.5v-2q98 -31 104 -93q6 -51 -51 -127l-28.5 -37.5t-27.5 -39t-16.5 -31t-9.5 -33.5q-2 -12 7.5 -23.5t29.5 -11.5q53 0 160 82q63 51 94 82q25 20 31 14t-12 -24
q-70 -66 -115 -100q-113 -86 -203 -91q-133 -6 -137 86q0 66 78 156q86 98 88 127q6 35 -37 57q-20 -4 -39 -4q-6 0 -31 7q-45 -57 -84 -97q-147 -150 -399 -250q111 -31 174 -30q65 -3 117 30q10 6 17 12.5t10.5 9.5t5.5 3q12 0 -8 -25q-4 -5 -9 -10q-74 -68 -192 -67
q-90 0 -205 32q-141 -43 -328 -39q-184 4 -184 68q0 43 60.5 72.5t152.5 25.5q135 -8 356 -71q16 10 32.5 22t36 29.5l35 31t38 39l37 42l43 50l44 51t49 60.5t52.5 64q184 219 381 334q-121 51 -305 51q-203 0 -382.5 -108.5t-209.5 -272.5q-16 -86 11.5 -144.5t98.5 -62.5
q18 -2 32.5 0t17 3t6.5 -1q2 -4 -4.5 -9t-20.5 -9t-33 -4q-113 0 -179 65.5t-50 167.5q29 180 243 286.5t470 106.5q207 0 335 -51q59 37 138 61q102 33 188 33q117 0 148 -53q4 -8 6 -15.5t2 -11.5t-2 -4t-3 3q-3 10 -14 20q-39 43 -137 43zM1317 768q-61 -53 -139 -162
l-121 -170q18 0 30 -2q20 -2 35 -10q57 8 114.5 43t92.5 94q37 68 32 121t-44 86zM428 25q-172 41 -274 49q-176 14 -177 -33q0 -41 160 -47q174 -4 291 31zM649 -270q-2 4 15 20q43 43 67 92q4 8 1 25.5t-1 23.5q10 33 94 41q27 4 27 -18q0 -14 -14 -31q-55 -76 -164 -145
q-21 -12 -25 -8z" />
    <glyph glyph-name="rcommaaccent" unicode="&#x157;" horiz-adv-x="471" 
d="M389 297v-2q0 -8 -3 -16.5t-11 -19.5l-15.5 -20.5t-24 -27.5t-26.5 -33q-49 -61 -69 -96q-18 -27 -4 -41q12 -12 45 6q37 16 92 59l98 84q20 20 29 15q4 -4 -21 -31q-41 -45 -121 -104q-100 -82 -188 -84q-55 -2 -79.5 15t-22.5 46q0 57 92 139q131 111 133 117
q5 14 -17 17q-11 1 -65 -1q-33 -2 -47 5q-43 -47 -80 -80q-37 -37 -82 -78q-27 -20 -31 -14q-8 8 15 24q14 14 44.5 42l41.5 38q45 41 75 76q-14 10 -15 29.5t18 39.5q29 37 86 37q43 0 57 -20q-23 -16 -39 -33q-35 -43 6 -47q6 0 18.5 -1t19.5 -2t18.5 -2t18.5 -2t16 -3
t15.5 -5.5t11.5 -6.5t8 -8t3 -11zM-154 -268q-4 4 15 22q43 43 67 94q4 8 1 24.5t-1 25.5q14 31 95 39q27 2 26 -19q0 -14 -14 -31q-70 -86 -164 -145q-21 -12 -25 -10z" />
    <glyph glyph-name="Rcaron" unicode="&#x158;" horiz-adv-x="1429" 
d="M1626 887h-2q-70 0 -174 -39q-63 -27 -107 -53q66 -33 109 -103.5t2 -150.5q-35 -68 -124 -97.5t-177 -31.5v-2q98 -31 104 -93q6 -51 -51 -127l-28.5 -37.5t-27.5 -39t-16.5 -31t-9.5 -33.5q-2 -12 7.5 -23.5t29.5 -11.5q53 0 160 82q63 51 94 82q25 20 31 14t-12 -24
q-70 -66 -115 -100q-113 -86 -203 -91q-133 -6 -137 86q0 66 78 156q86 98 88 127q6 35 -37 57q-20 -4 -39 -4q-6 0 -31 7q-45 -57 -84 -97q-147 -150 -399 -250q111 -31 174 -30q65 -3 117 30q10 6 17 12.5t10.5 9.5t5.5 3q12 0 -8 -25q-4 -5 -9 -10q-74 -68 -192 -67
q-90 0 -205 32q-141 -43 -328 -39q-184 4 -184 68q0 43 60.5 72.5t152.5 25.5q135 -8 356 -71q16 10 32.5 22t36 29.5l35 31t38 39l37 42l43 50l44 51t49 60.5t52.5 64q184 219 381 334q-121 51 -305 51q-203 0 -382.5 -108.5t-209.5 -272.5q-16 -86 11.5 -144.5t98.5 -62.5
q18 -2 32.5 0t17 3t6.5 -1q2 -4 -4.5 -9t-20.5 -9t-33 -4q-113 0 -179 65.5t-50 167.5q29 180 243 286.5t470 106.5q207 0 335 -51q59 37 138 61q102 33 188 33q117 0 148 -53q4 -8 6 -15.5t2 -11.5t-2 -4t-3 3q-3 10 -14 20q-39 43 -137 43zM1317 768q-61 -53 -139 -162
l-121 -170q18 0 30 -2q20 -2 35 -10q57 8 114.5 43t92.5 94q37 68 32 121t-44 86zM428 25q-172 41 -274 49q-176 14 -177 -33q0 -41 160 -47q174 -4 291 31zM1335 952q-4 0 -12 15q-29 70 -74 145q-8 14 -6 16q6 6 25 -4q47 -20 100 -71q102 49 211 80q25 6 27 -0.5
t-15 -16.5q-115 -68 -235 -153q-15 -11 -21 -11z" />
    <glyph glyph-name="rcaron" unicode="&#x159;" horiz-adv-x="471" 
d="M401 506h-2q-8 0 -12 14q-35 90 -74 152q-8 12 -6 14q4 6 27 -2q63 -31 106 -78q98 53 213 86q23 10 27 0q2 -8 -14 -16q-158 -92 -242 -160q-13 -12 -23 -10zM389 297v-2q0 -8 -3 -16.5t-11 -19.5l-15.5 -20.5t-24 -27.5t-26.5 -33q-49 -61 -69 -96q-18 -27 -4 -41
q12 -12 45 6q37 16 92 59l98 84q20 20 29 15q4 -4 -21 -31q-41 -45 -121 -104q-100 -82 -188 -84q-55 -2 -79.5 15t-22.5 46q0 57 92 139q131 111 133 117q5 14 -17 17q-11 1 -65 -1q-33 -2 -47 5q-43 -47 -80 -80q-37 -37 -82 -78q-27 -20 -31 -14q-8 8 15 24
q14 14 44.5 42l41.5 38q45 41 75 76q-14 10 -15 29.5t18 39.5q29 37 86 37q43 0 57 -20q-23 -16 -39 -33q-35 -43 6 -47q6 0 18.5 -1t19.5 -2t18.5 -2t18.5 -2t16 -3t15.5 -5.5t11.5 -6.5t8 -8t3 -11z" />
    <glyph glyph-name="Sacute" unicode="&#x15a;" horiz-adv-x="1204" 
d="M805 449q23 8 137.5 52l175.5 66q127 178 264 264q86 55 162 56q33 0 52.5 -13.5t17.5 -42.5q-4 -49 -76 -106t-176 -100l-55 -23l-109 -209q-109 -217 -302.5 -323.5t-422.5 -122.5q-236 -14 -354 59q-109 -88 -158 -180q-13 -18 -14 -19q-8 2 0 25q31 84 141 195
q-102 80 -94 200q12 139 158.5 224.5t312.5 95.5q94 6 194.5 -17.5t145.5 -80.5zM1317 629q12 4 43 16q219 96 233 186q2 20 -13 30.5t-38 6.5q-41 -6 -92 -57q-59 -57 -133 -182zM524 143h-2q-92 0 -162 45q-49 -31 -112 -77q-68 -55 -70 -58q51 -51 137 -72.5t177 -15.5
q158 14 283.5 118.5t240.5 311.5q59 100 90 142v2q-147 -51 -287 -113q20 -31 17 -72q-6 -96 -103.5 -153.5t-208.5 -57.5zM520 164h2q88 0 169 54t85 136q2 29 -6 54l-139 -62q-106 -51 -252 -145q59 -37 141 -37zM762 430q-33 61 -120 84t-177 14q-123 -8 -230.5 -84.5
t-117.5 -201.5q-6 -100 37 -160q37 33 65 53l113 78q-35 31 -41 74q-4 20 6 20q2 0 8 -16q12 -39 45 -68q123 74 273 146q98 45 139 61zM1466 985q-12 4 -10 10q16 8 50 30l46 30q31 18 144 96q23 12 39 4q10 -4 15 -20.5t-3 -32.5q-25 -33 -111 -64q-104 -43 -170 -53z" />
    <glyph glyph-name="sacute" unicode="&#x15b;" horiz-adv-x="516" 
d="M586 758q31 0 39 -19q16 -35 -19 -69q-53 -53 -174 -125q-20 -10 -26 -4q-4 4 12 24q16 18 121 154q22 37 47 39zM299 45q41 14 86 43q49 31 135 105q23 16 27 12q6 -6 -15 -25q-49 -49 -118 -98q-59 -41 -144 -70q-92 -31 -192 -30q-78 0 -119 35.5t-37 84.5q2 49 34 79
t69 28q27 0 42 -13.5t15 -31.5q-2 -29 -37 -51q-37 -29 -37 -62q0 -47 55 -47q70 0 134 105q23 37 54.5 120.5t41.5 96.5l-2 2q-25 -27 -92 -76q-57 -43 -93 -62q-18 -10 -22 -4q-6 8 12 19q31 18 90 63q66 47 123 99q12 25 33 45q27 25 61.5 24.5t34.5 -17t-35 -38.5
q-6 -4 -24.5 -14.5t-24.5 -16.5q-20 -20 -2 -59q37 -88 6 -168q-24 -53 -59 -78z" />
    <glyph glyph-name="Scedilla" unicode="&#x15e;" horiz-adv-x="1204" 
d="M330 -236h2q29 0 50 12.5t24 33.5q4 23 -11.5 37t-42.5 12q-10 0 -18 -4.5t-11.5 -5.5t-7.5 1q-6 6 7 19q16 20 77 76q-184 4 -280 61q-109 -88 -158 -180q-13 -18 -14 -19q-8 2 0 25q31 84 141 195q-102 80 -94 200q12 139 158.5 224.5t312.5 95.5q94 6 194.5 -17.5
t145.5 -80.5q23 8 137.5 52l175.5 66q127 178 264 264q82 51 162 56q33 0 52.5 -13.5t17.5 -42.5q-4 -49 -76 -106t-176 -100l-55 -23q-29 -47 -109 -209q-109 -217 -302.5 -323.5t-422.5 -122.5q-6 0 -18.5 -1t-20.5 -1q-41 -27 -65 -62q8 6 30 6q45 0 70 -23.5t18 -58.5
q-4 -37 -49 -60t-104 -21q-84 4 -117 51q-20 27 -6 35q4 2 18 -15q38 -33 101 -33zM524 143h-2q-92 0 -162 45q-49 -31 -112 -77q-68 -55 -70 -58q51 -51 137 -72.5t177 -15.5q158 14 283.5 118.5t240.5 311.5l90 144q-164 -59 -287 -113q18 -39 17 -72
q-6 -96 -103.5 -153.5t-208.5 -57.5zM762 430q-33 61 -120 84t-177 14q-123 -8 -230.5 -84.5t-117.5 -201.5q-6 -100 37 -160q37 33 65 53l113 78q-35 31 -41 74q-4 20 6 20q2 0 8 -16q12 -39 45 -68q123 74 273 146zM520 164h2q88 0 169 54t85 136q0 31 -6 54l-139 -62
q-106 -51 -252 -145q59 -37 141 -37zM1317 629l43 16q219 96 233 186q2 20 -13 30.5t-38 6.5q-41 -6 -92 -57q-59 -57 -133 -182z" />
    <glyph glyph-name="scedilla" unicode="&#x15f;" horiz-adv-x="516" 
d="M270 12q-92 -29 -176 -30q-45 -33 -61 -60q8 6 30 6q45 0 70 -23.5t19 -58.5q-4 -37 -49.5 -60.5t-104.5 -21.5q-84 6 -117 52q-20 27 -6 34q4 2 19 -14q37 -33 100 -33h2q29 0 50.5 12.5t23.5 32.5q4 23 -9.5 37.5t-42.5 12.5q-8 0 -15 -3.5t-10 -4.5t-7 -2t-6 1
q-6 6 6 19q41 45 75 74q-70 2 -106.5 37.5t-32.5 82.5q2 49 34 79t69 28q27 0 42 -13.5t15 -31.5q-2 -29 -37 -51q-37 -29 -37 -62q0 -47 55 -47q70 0 134 105q23 37 54.5 120.5t41.5 96.5l-2 2q-25 -27 -92 -76q-57 -43 -93 -62q-18 -10 -22 -4q-6 8 12 19q31 18 90 63
q66 47 123 99q12 25 33 45q27 25 61.5 24.5t34.5 -17t-35 -38.5q-6 -4 -24.5 -14.5t-24.5 -16.5q-20 -20 -2 -59q37 -88 6 -168q-25 -53 -59 -78q41 14 86 43q49 31 135 105q23 16 27 12q6 -6 -15 -25q-49 -49 -118 -98q-60 -41 -144 -70z" />
    <glyph glyph-name="Scaron" unicode="&#x160;" horiz-adv-x="1204" 
d="M805 449q23 8 137.5 52l175.5 66q127 178 264 264q86 55 162 56q33 0 52.5 -13.5t17.5 -42.5q-4 -49 -76 -106t-176 -100l-55 -23l-109 -209q-109 -217 -302.5 -323.5t-422.5 -122.5q-236 -14 -354 59q-109 -88 -158 -180q-13 -18 -14 -19q-8 2 0 25q31 84 141 195
q-102 80 -94 200q12 139 158.5 224.5t312.5 95.5q94 6 194.5 -17.5t145.5 -80.5zM1317 629q12 4 43 16q219 96 233 186q2 20 -13 30.5t-38 6.5q-41 -6 -92 -57q-59 -57 -133 -182zM524 143h-2q-92 0 -162 45q-49 -31 -112 -77q-68 -55 -70 -58q51 -51 137 -72.5t177 -15.5
q158 14 283.5 118.5t240.5 311.5q59 100 90 142v2q-147 -51 -287 -113q20 -31 17 -72q-6 -96 -103.5 -153.5t-208.5 -57.5zM520 164h2q88 0 169 54t85 136q2 29 -6 54l-139 -62q-106 -51 -252 -145q59 -37 141 -37zM762 430q-33 61 -120 84t-177 14q-123 -8 -230.5 -84.5
t-117.5 -201.5q-6 -100 37 -160q37 33 65 53l113 78q-35 31 -41 74q-4 20 6 20q2 0 8 -16q12 -39 45 -68q123 74 273 146q98 45 139 61zM1524 977q-4 0 -13 14q-29 70 -73 146q-8 14 -6 16q6 6 24 -4q47 -20 100 -72q102 49 211 80q25 6 27 0t-14 -16q-115 -68 -236 -154
q-14 -10 -20 -10z" />
    <glyph glyph-name="scaron" unicode="&#x161;" horiz-adv-x="516" 
d="M406 561h-3q-8 0 -12 14q-35 90 -74 152q-8 12 -6 14q4 6 27 -2q63 -31 106 -77q98 53 213 86q23 10 27 0q2 -8 -14 -17q-158 -92 -242 -160q-12 -12 -22 -10zM299 45q41 14 86 43q49 31 135 105q23 16 27 12q6 -6 -15 -25q-49 -49 -118 -98q-59 -41 -144 -70
q-92 -31 -192 -30q-78 0 -119 35.5t-37 84.5q2 49 34 79t69 28q27 0 42 -13.5t15 -31.5q-2 -29 -37 -51q-37 -29 -37 -62q0 -47 55 -47q70 0 134 105q23 37 54.5 120.5t41.5 96.5l-2 2q-25 -27 -92 -76q-57 -43 -93 -62q-18 -10 -22 -4q-6 8 12 19q31 18 90 63q66 47 123 99
q12 25 33 45q27 25 61.5 24.5t34.5 -17t-35 -38.5q-6 -4 -24.5 -14.5t-24.5 -16.5q-20 -20 -2 -59q37 -88 6 -168q-24 -53 -59 -78z" />
    <glyph glyph-name="Tcommaaccent" unicode="&#x162;" horiz-adv-x="1259" 
d="M1487 1071h-2q-176 0 -264 -106q-18 -20 -31 -58q-2 -6 -4 -13t-3 -10t-3 -3q-8 0 -4 26q12 43 32 70q39 53 114 87t167 34q123 0 198.5 -55.5t63.5 -147.5q-12 -100 -117.5 -154.5t-267.5 -50.5q-45 0 -51 -2q-78 -29 -162 -127q-25 -29 -98.5 -129t-139.5 -158
q-207 -184 -477 -237v-2q203 -18 322 -19q139 4 227 23.5t174 75.5q49 31 88 67q20 14 25 13q8 -6 -10 -27q-47 -43 -97 -76q-184 -121 -440 -121q-227 0 -418 27q-96 -12 -200 -16q-119 -4 -166 2t-43 30q12 57 184 58q137 0 301 -27q109 20 238 129q70 59 164 165.5
l124 139.5q168 170 363 215v2q-137 18 -264 43q-252 47 -414 47q-135 -2 -226 -48t-102 -136q-8 -68 47.5 -113t139.5 -49q92 -2 152.5 33t68.5 96q4 37 -12 60q-10 13 -9 14q6 6 31 -8q43 -27 43 -70q-2 -66 -87 -106.5t-189 -36.5q-94 4 -154.5 54t-54.5 132
q10 113 122.5 181.5t290.5 66.5q121 0 387 -41q223 -37 349 -43q137 -8 229 25.5t102.5 103.5t-56 120t-181.5 50zM254 -285q-2 4 14 21q43 43 68 92q4 8 1 25.5t-1 23.5q10 33 94 41q27 4 27 -18q0 -14 -15 -31q-55 -76 -163 -145q-21 -13 -25 -9z" />
    <glyph glyph-name="tcommaaccent" unicode="&#x163;" horiz-adv-x="393" 
d="M90 246q-12 -10 -44 -39t-44 -39q-20 -20 -29 -14q-4 8 17 28q139 123 157 142q-10 0 -34.5 -1t-36.5 -1q-6 0 -11.5 -1.5t-8.5 0t-4 3.5t-1 6q2 10 53 14q27 2 62 2q90 106 190 211q86 88 156 88q43 0 55 -16q-41 -35 -125 -133q-66 -76 -123 -152q66 2 115 0
q6 0 10.5 -1t9.5 -2t8 -3t1 -6q-2 -8 -37 -8q-76 0 -123 -2q-92 -111 -149 -226q-23 -45 -4 -57q16 -10 55 8q35 16 92 62l98 84q23 16 29 12q4 -4 -8 -21q-82 -76 -133 -114q-117 -88 -213 -88q-84 0 -84 61.5t104 202.5zM-129 -287q-4 4 14 23q43 43 68 94q4 8 1 24.5
t-1 24.5q14 31 94 39q27 2 27 -18q0 -14 -15 -31q-70 -86 -163 -145q-21 -13 -25 -11z" />
    <glyph glyph-name="Tcaron" unicode="&#x164;" horiz-adv-x="1259" 
d="M1487 1071h-2q-176 0 -264 -106q-18 -20 -31 -58q-2 -6 -4 -13t-3 -10t-3 -3q-8 0 -4 26q12 43 32 70q39 53 114 87t167 34q123 0 198.5 -55.5t63.5 -147.5q-12 -100 -117.5 -154.5t-267.5 -50.5q-45 0 -51 -2q-78 -29 -162 -127q-25 -29 -98.5 -129t-139.5 -158
q-207 -184 -477 -237v-2q203 -18 322 -19q139 4 227 23.5t174 75.5q49 31 88 67q20 14 25 13q8 -6 -10 -27q-47 -43 -97 -76q-184 -121 -440 -121q-227 0 -418 27q-96 -12 -200 -16q-119 -4 -166 2t-43 30q12 57 184 58q137 0 301 -27q109 20 238 129q70 59 164 165.5
l124 139.5q168 170 363 215v2q-137 18 -264 43q-252 47 -414 47q-135 -2 -226 -48t-102 -136q-8 -68 47.5 -113t139.5 -49q92 -2 152.5 33t68.5 96q4 37 -12 60q-10 13 -9 14q6 6 31 -8q43 -27 43 -70q-2 -66 -87 -106.5t-189 -36.5q-94 4 -154.5 54t-54.5 132
q10 113 122.5 181.5t290.5 66.5q121 0 387 -41q223 -37 349 -43q137 -8 229 25.5t102.5 103.5t-56 120t-181.5 50zM1384 815q-4 0 -12 14q-29 70 -74 146q-8 14 -6 16q6 6 25 -4q47 -20 100 -72q102 49 211 80q25 6 27 0t-15 -16q-115 -66 -235 -154q-15 -10 -21 -10z" />
    <glyph glyph-name="tcaron" unicode="&#x165;" horiz-adv-x="393" 
d="M90 246q-12 -10 -44 -39t-44 -39q-20 -20 -29 -14q-4 8 17 28q139 123 157 142q-10 0 -34.5 -1t-36.5 -1q-6 0 -11.5 -1.5t-8.5 0t-4 3.5t-1 6q2 10 53 14q27 2 62 2q90 106 190 211q86 88 156 88q43 0 55 -16q-41 -35 -125 -133q-66 -76 -123 -152q66 2 115 0
q6 0 10.5 -1t9.5 -2t8 -3t1 -6q-2 -8 -37 -8q-76 0 -123 -2q-92 -111 -149 -226q-23 -45 -4 -57q16 -10 55 8q35 16 92 62l98 84q23 16 29 12q4 -4 -8 -21q-82 -76 -133 -114q-117 -88 -213 -88q-84 0 -84 61.5t104 202.5zM586 477q-4 4 14 23q43 43 68 94q4 8 1 24.5
t-1 24.5q14 31 94 39q27 2 26 -18q0 -14 -14 -31q-70 -86 -164 -146q-20 -12 -24 -10z" />
    </font>
</defs>
</svg>
